#N canvas 0 23 1360 711 12;
#X obj 25 305 +~;
#X obj 25 251 osc~ 110;
#X obj 25 275 *~ 0.25;
#X obj 95 275 *~ 0.25;
#X obj 95 251 osc~ 220;
#X obj 165 251 osc~ 440;
#X obj 165 275 *~ 0.2;
#X obj 25 328 *~;
#X obj 294 288 cos~;
#X obj 25 352 +~;
#X obj 415 305 +~;
#X obj 415 275 *~ 0.25;
#X obj 485 275 *~ 0.25;
#X obj 555 275 *~ 0.2;
#X obj 415 328 *~;
#X obj 684 288 cos~;
#X obj 415 352 +~;
#X obj 415 251 osc~ 220;
#X obj 485 251 osc~ 440;
#X obj 555 251 osc~ 880;
#X obj 684 264 phasor~ 0.5;
#X obj 779 294 +~;
#X obj 779 264 *~ 0.25;
#X obj 849 264 *~ 0.25;
#X obj 919 264 *~ 0.2;
#X obj 779 317 *~;
#X obj 1048 277 cos~;
#X obj 779 341 +~;
#X obj 779 240 osc~ 110;
#X obj 849 240 osc~ 330;
#X obj 919 240 osc~ 55;
#X obj 1048 253 phasor~ 0.25;
#X obj 1152 283 +~;
#X obj 1222 253 *~ 0.25;
#X obj 1292 253 *~ 0.2;
#X obj 1152 306 *~;
#X obj 1421 266 cos~;
#X obj 1152 330 +~;
#X obj 1222 229 osc~ 660;
#X obj 1152 229 osc~ 55;
#X obj 1152 253 *~ 0.5;
#X obj 1292 229 osc~ 1100;
#X obj 1421 242 phasor~ 0.125;
#X obj 294 264 phasor~ 1;
#X obj 95 225 *~ 2;
#X obj 165 224 *~ 4;
#X obj 555 225 *~ 4;
#X obj 485 226 *~ 2;
#X obj 849 213 *~ 3;
#X obj 919 212 *~ 0.25;
#X obj 1222 202 *~ 12;
#X obj 1292 201 *~ 20;
#X obj 93 147 line~;
#X obj 1222 171 *~ 0.5;
#X obj 489 173 *~ 2;
#X obj 849 173 *~ 1;
#X obj 93 173 *~ 1;
#X msg 96 92 \$1 1000;
#X obj 25 376 outlet~;
#X obj 92 64 inlet;
#X connect 0 0 7 0;
#X connect 1 0 2 0;
#X connect 2 0 0 0;
#X connect 3 0 0 1;
#X connect 4 0 3 0;
#X connect 5 0 6 0;
#X connect 6 0 0 1;
#X connect 7 0 9 0;
#X connect 8 0 7 1;
#X connect 9 0 58 0;
#X connect 10 0 14 0;
#X connect 11 0 10 0;
#X connect 12 0 10 1;
#X connect 13 0 10 1;
#X connect 14 0 16 0;
#X connect 15 0 14 1;
#X connect 16 0 9 1;
#X connect 17 0 11 0;
#X connect 18 0 12 0;
#X connect 19 0 13 0;
#X connect 20 0 15 0;
#X connect 21 0 25 0;
#X connect 22 0 21 0;
#X connect 23 0 21 1;
#X connect 24 0 21 1;
#X connect 25 0 27 0;
#X connect 26 0 25 1;
#X connect 27 0 16 1;
#X connect 28 0 22 0;
#X connect 29 0 23 0;
#X connect 30 0 24 0;
#X connect 31 0 26 0;
#X connect 32 0 35 0;
#X connect 33 0 32 1;
#X connect 34 0 32 1;
#X connect 35 0 37 0;
#X connect 36 0 35 1;
#X connect 37 0 27 1;
#X connect 38 0 33 0;
#X connect 39 0 40 0;
#X connect 40 0 32 0;
#X connect 41 0 34 0;
#X connect 42 0 36 0;
#X connect 43 0 8 0;
#X connect 44 0 4 0;
#X connect 45 0 5 0;
#X connect 46 0 19 0;
#X connect 47 0 18 0;
#X connect 48 0 29 0;
#X connect 49 0 30 0;
#X connect 50 0 38 0;
#X connect 51 0 41 0;
#X connect 52 0 56 0;
#X connect 52 0 54 0;
#X connect 52 0 55 0;
#X connect 52 0 53 0;
#X connect 53 0 50 0;
#X connect 53 0 51 0;
#X connect 53 0 39 0;
#X connect 54 0 47 0;
#X connect 54 0 46 0;
#X connect 54 0 17 0;
#X connect 55 0 48 0;
#X connect 55 0 49 0;
#X connect 55 0 28 0;
#X connect 56 0 44 0;
#X connect 56 0 45 0;
#X connect 56 0 1 0;
#X connect 57 0 52 0;
#X connect 59 0 57 0;
