#N canvas 3 145 1122 855 12;
#X obj 321 545 +~;
#X obj 588 359 line~;
#X obj 614 274 select 0 1;
#X obj 239 234 route 0 1;
#X floatatom 179 346 5 0 0 0 - - -;
#X floatatom 244 343 5 0 0 0 - - -;
#X obj 178 311 unpack 0 0;
#X obj 199 397 osc~;
#X obj 199 421 *~;
#X floatatom 309 338 5 0 0 0 - - -;
#X floatatom 377 336 5 0 0 0 - - -;
#X obj 310 311 unpack 0 0;
#X obj 236 397 osc~;
#X obj 236 421 *~;
#X obj 219 451 +~;
#X obj 321 388 osc~;
#X obj 321 412 *~;
#X obj 358 388 osc~;
#X obj 358 412 *~;
#X obj 337 446 +~;
#X obj 204 197 sigmund~ -npeaks 2 peaks -npts 4906 env -maxfreq 20000
;
#X obj 614 248 > 60;
#X obj 321 569 *~;
#X obj 199 125 inlet~;
#X obj 321 605 outlet~;
#X obj 731 328 bng 15 250 50 0 empty empty empty 17 7 0 10 -262144
-1 -1;
#X msg 622 313 1 \, 0 500;
#X obj 236 373 * \$1;
#X obj 358 365 * \$1;
#X connect 0 0 22 0;
#X connect 1 0 22 1;
#X connect 2 1 26 0;
#X connect 2 1 25 0;
#X connect 3 0 6 0;
#X connect 3 1 11 0;
#X connect 4 0 7 0;
#X connect 4 0 27 0;
#X connect 5 0 8 1;
#X connect 5 0 13 1;
#X connect 6 0 4 0;
#X connect 6 1 5 0;
#X connect 7 0 8 0;
#X connect 8 0 14 0;
#X connect 9 0 15 0;
#X connect 9 0 28 0;
#X connect 10 0 16 1;
#X connect 10 0 18 1;
#X connect 11 0 9 0;
#X connect 11 1 10 0;
#X connect 12 0 13 0;
#X connect 13 0 14 1;
#X connect 14 0 0 0;
#X connect 15 0 16 0;
#X connect 16 0 19 0;
#X connect 17 0 18 0;
#X connect 18 0 19 1;
#X connect 19 0 0 1;
#X connect 20 0 3 0;
#X connect 20 1 21 0;
#X connect 21 0 2 0;
#X connect 22 0 24 0;
#X connect 23 0 20 0;
#X connect 26 0 1 0;
#X connect 27 0 12 0;
#X connect 28 0 17 0;
