#N canvas 0 23 1121 578 12;
#X obj 157 208 osc~;
#X obj 157 231 *~;
#X obj 157 184 mtof;
#X obj 70 191 line~;
#X obj 68 15 inlet;
#X obj 157 255 outlet~;
#X obj 155 45 inlet;
#X obj 94 119 pack \$1;
#X obj 115 92 delay \$2;
#X obj 34 66 pack \$2;
#X msg 34 90 1 \$2;
#X msg 90 142 0 \$1;
#X connect 0 0 1 0;
#X connect 1 0 5 0;
#X connect 2 0 0 0;
#X connect 3 0 1 1;
#X connect 4 0 9 0;
#X connect 4 0 8 0;
#X connect 6 0 2 0;
#X connect 7 0 11 0;
#X connect 8 0 7 0;
#X connect 9 0 10 0;
#X connect 10 0 3 0;
#X connect 11 0 3 0;
