#N canvas 0 23 1440 855 12;
#X obj 524 219 i;
#X obj 524 243 + 1;
#X obj 524 267 mod 8;
#X obj 524 292 s $seq_pos;
#X obj 581 103 inlet;
#X obj 626 103 inlet;
#X obj 524 183 metro;
#N canvas -1 23 1440 855 seq_check 0;
#X obj 201 100 tgl 15 0 seq1 empty empty 17 7 0 10 -262144 -1 -1 0
1;
#X obj 217 100 tgl 15 0 seq2 empty empty 17 7 0 10 -262144 -1 -1 0
1;
#X obj 233 100 tgl 15 0 seq3 empty empty 17 7 0 10 -262144 -1 -1 0
1;
#X obj 249 100 tgl 15 0 seq4 empty empty 17 7 0 10 -262144 -1 -1 0
1;
#X obj 265 100 tgl 15 0 seq5 empty empty 17 7 0 10 -262144 -1 -1 0
1;
#X obj 281 100 tgl 15 0 seq6 empty empty 17 7 0 10 -262144 -1 -1 0
1;
#X obj 297 100 tgl 15 0 seq7 empty empty 17 7 0 10 -262144 -1 -1 0
1;
#X obj 313 100 tgl 15 0 seq8 empty empty 17 7 0 10 -262144 -1 -1 0
1;
#X obj 240 226 select 0 1 2 3 4 5 6 7;
#X obj 240 250 spigot;
#X obj 171 525 outlet;
#X obj 250 280 spigot;
#X obj 260 310 spigot;
#X obj 270 340 spigot;
#X obj 280 370 spigot;
#X obj 290 400 spigot;
#X obj 300 430 spigot;
#X obj 310 460 spigot;
#X obj 240 197 inlet;
#X connect 0 0 9 1;
#X connect 1 0 11 1;
#X connect 2 0 12 1;
#X connect 3 0 13 1;
#X connect 4 0 14 1;
#X connect 5 0 15 1;
#X connect 6 0 16 1;
#X connect 7 0 17 1;
#X connect 8 0 9 0;
#X connect 8 1 11 0;
#X connect 8 2 12 0;
#X connect 8 3 13 0;
#X connect 8 4 14 0;
#X connect 8 5 15 0;
#X connect 8 6 16 0;
#X connect 8 7 17 0;
#X connect 9 0 10 0;
#X connect 11 0 10 0;
#X connect 12 0 10 0;
#X connect 13 0 10 0;
#X connect 14 0 10 0;
#X connect 15 0 10 0;
#X connect 16 0 10 0;
#X connect 17 0 10 0;
#X connect 18 0 8 0;
#X coords -1 -1 1 1 128 16 1 200 100;
#X restore 200 60 pd seq_check;
#N canvas -1 23 1440 855 seq_check 0;
#X obj 201 100 tgl 15 0 seq1 empty empty 17 7 0 10 -262144 -1 -1 0
1;
#X obj 217 100 tgl 15 0 seq2 empty empty 17 7 0 10 -262144 -1 -1 1
1;
#X obj 233 100 tgl 15 0 seq3 empty empty 17 7 0 10 -262144 -1 -1 0
1;
#X obj 249 100 tgl 15 0 seq4 empty empty 17 7 0 10 -262144 -1 -1 0
1;
#X obj 265 100 tgl 15 0 seq5 empty empty 17 7 0 10 -262144 -1 -1 0
1;
#X obj 281 100 tgl 15 0 seq6 empty empty 17 7 0 10 -262144 -1 -1 0
1;
#X obj 297 100 tgl 15 0 seq7 empty empty 17 7 0 10 -262144 -1 -1 0
1;
#X obj 313 100 tgl 15 0 seq8 empty empty 17 7 0 10 -262144 -1 -1 0
1;
#X obj 240 226 select 0 1 2 3 4 5 6 7;
#X obj 240 250 spigot;
#X obj 171 525 outlet;
#X obj 250 280 spigot;
#X obj 260 310 spigot;
#X obj 270 340 spigot;
#X obj 280 370 spigot;
#X obj 290 400 spigot;
#X obj 300 430 spigot;
#X obj 310 460 spigot;
#X obj 240 197 inlet;
#X connect 0 0 9 1;
#X connect 1 0 11 1;
#X connect 2 0 12 1;
#X connect 3 0 13 1;
#X connect 4 0 14 1;
#X connect 5 0 15 1;
#X connect 6 0 16 1;
#X connect 7 0 17 1;
#X connect 8 0 9 0;
#X connect 8 1 11 0;
#X connect 8 2 12 0;
#X connect 8 3 13 0;
#X connect 8 4 14 0;
#X connect 8 5 15 0;
#X connect 8 6 16 0;
#X connect 8 7 17 0;
#X connect 9 0 10 0;
#X connect 11 0 10 0;
#X connect 12 0 10 0;
#X connect 13 0 10 0;
#X connect 14 0 10 0;
#X connect 15 0 10 0;
#X connect 16 0 10 0;
#X connect 17 0 10 0;
#X connect 18 0 8 0;
#X coords -1 -1 1 1 128 16 1 200 100;
#X restore 200 79 pd seq_check;
#N canvas -1 23 1440 855 seq_check 0;
#X obj 201 100 tgl 15 0 seq1 empty empty 17 7 0 10 -262144 -1 -1 0
1;
#X obj 217 100 tgl 15 0 seq2 empty empty 17 7 0 10 -262144 -1 -1 0
1;
#X obj 233 100 tgl 15 0 seq3 empty empty 17 7 0 10 -262144 -1 -1 0
1;
#X obj 249 100 tgl 15 0 seq4 empty empty 17 7 0 10 -262144 -1 -1 1
1;
#X obj 265 100 tgl 15 0 seq5 empty empty 17 7 0 10 -262144 -1 -1 0
1;
#X obj 281 100 tgl 15 0 seq6 empty empty 17 7 0 10 -262144 -1 -1 0
1;
#X obj 297 100 tgl 15 0 seq7 empty empty 17 7 0 10 -262144 -1 -1 0
1;
#X obj 313 100 tgl 15 0 seq8 empty empty 17 7 0 10 -262144 -1 -1 0
1;
#X obj 240 226 select 0 1 2 3 4 5 6 7;
#X obj 240 250 spigot;
#X obj 171 525 outlet;
#X obj 250 280 spigot;
#X obj 260 310 spigot;
#X obj 270 340 spigot;
#X obj 280 370 spigot;
#X obj 290 400 spigot;
#X obj 300 430 spigot;
#X obj 310 460 spigot;
#X obj 240 197 inlet;
#X connect 0 0 9 1;
#X connect 1 0 11 1;
#X connect 2 0 12 1;
#X connect 3 0 13 1;
#X connect 4 0 14 1;
#X connect 5 0 15 1;
#X connect 6 0 16 1;
#X connect 7 0 17 1;
#X connect 8 0 9 0;
#X connect 8 1 11 0;
#X connect 8 2 12 0;
#X connect 8 3 13 0;
#X connect 8 4 14 0;
#X connect 8 5 15 0;
#X connect 8 6 16 0;
#X connect 8 7 17 0;
#X connect 9 0 10 0;
#X connect 11 0 10 0;
#X connect 12 0 10 0;
#X connect 13 0 10 0;
#X connect 14 0 10 0;
#X connect 15 0 10 0;
#X connect 16 0 10 0;
#X connect 17 0 10 0;
#X connect 18 0 8 0;
#X coords -1 -1 1 1 128 16 1 200 100;
#X restore 200 98 pd seq_check;
#N canvas -1 23 1440 855 seq_check 0;
#X obj 201 100 tgl 15 0 seq1 empty empty 17 7 0 10 -262144 -1 -1 0
1;
#X obj 217 100 tgl 15 0 seq2 empty empty 17 7 0 10 -262144 -1 -1 1
1;
#X obj 233 100 tgl 15 0 seq3 empty empty 17 7 0 10 -262144 -1 -1 0
1;
#X obj 249 100 tgl 15 0 seq4 empty empty 17 7 0 10 -262144 -1 -1 0
1;
#X obj 265 100 tgl 15 0 seq5 empty empty 17 7 0 10 -262144 -1 -1 0
1;
#X obj 281 100 tgl 15 0 seq6 empty empty 17 7 0 10 -262144 -1 -1 0
1;
#X obj 297 100 tgl 15 0 seq7 empty empty 17 7 0 10 -262144 -1 -1 0
1;
#X obj 313 100 tgl 15 0 seq8 empty empty 17 7 0 10 -262144 -1 -1 0
1;
#X obj 240 226 select 0 1 2 3 4 5 6 7;
#X obj 240 250 spigot;
#X obj 171 525 outlet;
#X obj 250 280 spigot;
#X obj 260 310 spigot;
#X obj 270 340 spigot;
#X obj 280 370 spigot;
#X obj 290 400 spigot;
#X obj 300 430 spigot;
#X obj 310 460 spigot;
#X obj 240 197 inlet;
#X connect 0 0 9 1;
#X connect 1 0 11 1;
#X connect 2 0 12 1;
#X connect 3 0 13 1;
#X connect 4 0 14 1;
#X connect 5 0 15 1;
#X connect 6 0 16 1;
#X connect 7 0 17 1;
#X connect 8 0 9 0;
#X connect 8 1 11 0;
#X connect 8 2 12 0;
#X connect 8 3 13 0;
#X connect 8 4 14 0;
#X connect 8 5 15 0;
#X connect 8 6 16 0;
#X connect 8 7 17 0;
#X connect 9 0 10 0;
#X connect 11 0 10 0;
#X connect 12 0 10 0;
#X connect 13 0 10 0;
#X connect 14 0 10 0;
#X connect 15 0 10 0;
#X connect 16 0 10 0;
#X connect 17 0 10 0;
#X connect 18 0 8 0;
#X coords -1 -1 1 1 128 16 1 200 100;
#X restore 200 117 pd seq_check;
#X obj 389 173 outlet;
#X obj 389 155 outlet;
#X obj 389 137 outlet;
#X obj 389 119 outlet;
#X obj 88 19 r $seq_pos;
#X obj 711 95 bng 15 250 50 0 empty empty empty 17 7 0 10 -262144 -1
-1;
#X obj 192 257 select 0 1 2 3 4 5 6 7;
#X msg 735 145 stop;
#X msg 664 166 tempo 220 msec;
#X msg 476 195 0;
#X obj 204 33 hradio 15 1 0 8 empty empty empty 0 -8 0 10 -262144 -1
-1 0;
#X obj 520 101 inlet;
#X connect 0 0 1 0;
#X connect 0 0 3 0;
#X connect 1 0 2 0;
#X connect 2 0 0 1;
#X connect 4 0 6 1;
#X connect 5 0 20 0;
#X connect 6 0 0 0;
#X connect 7 0 14 0;
#X connect 8 0 13 0;
#X connect 9 0 12 0;
#X connect 10 0 11 0;
#X connect 15 0 7 0;
#X connect 15 0 8 0;
#X connect 15 0 9 0;
#X connect 15 0 10 0;
#X connect 15 0 17 0;
#X connect 15 0 21 0;
#X connect 16 0 6 0;
#X connect 18 0 6 0;
#X connect 19 0 6 0;
#X connect 20 0 0 0;
#X connect 22 0 6 0;
#X coords -1 -1 1 1 150 150 1 190 0;
