#N canvas 0 23 1007 499 12;
#X obj 652 116 *~;
#X obj 712 170 *~;
#X obj 712 194 *~;
#X obj 622 170 *~;
#X obj 622 194 *~ -0.33333;
#X obj 712 218 *~ 0.133333;
#X obj 712 242 +~;
#X obj 622 248 +~;
#X obj 532 256 +~;
#X obj 532 92 inlet~;
#X obj 532 280 outlet~;
#X connect 0 0 1 0;
#X connect 0 0 3 0;
#X connect 0 0 1 1;
#X connect 1 0 2 0;
#X connect 2 0 5 0;
#X connect 3 0 4 0;
#X connect 4 0 7 0;
#X connect 5 0 6 0;
#X connect 6 0 7 1;
#X connect 7 0 8 1;
#X connect 8 0 10 0;
#X connect 9 0 0 0;
#X connect 9 0 3 1;
#X connect 9 0 0 1;
#X connect 9 0 2 1;
#X connect 9 0 8 0;
