#N canvas 829 143 450 300 12;
#X obj 100 191 outlet~;
#X obj 99 86 *~;
#X obj 129 113 env~;
#X obj 129 137 - 100;
#X obj 99 33 r~ \$1_m;
#X obj 117 64 r \$1_a;
#X obj 129 161 s \$1_vu;
#X connect 1 0 2 0;
#X connect 1 0 0 0;
#X connect 2 0 3 0;
#X connect 3 0 6 0;
#X connect 4 0 1 0;
#X connect 5 0 1 1;
