#N canvas 0 23 1440 855 12;
#X obj 279 326 bng 15 250 50 0 empty empty empty 17 7 0 10 -262144
-1 -1;
#X obj 280 387 dac~;
#X floatatom 381 326 5 0 0 0 - - -;
#X floatatom 622 250 5 0 0 0 - - -;
#X floatatom 622 273 5 0 0 0 - - -;
#X floatatom 622 296 5 0 0 0 - - -;
#X floatatom 622 319 5 0 0 0 - - -;
#X obj 319 376 bng 15 250 50 0 empty empty empty 17 7 0 10 -262144
-1 -1;
#X obj 320 437 dac~;
#X floatatom 421 376 5 0 0 0 - - -;
#X obj 359 426 bng 15 250 50 0 empty empty empty 17 7 0 10 -262144
-1 -1;
#X obj 360 487 dac~;
#X floatatom 461 426 5 0 0 0 - - -;
#X obj 399 476 bng 15 250 50 0 empty empty empty 17 7 0 10 -262144
-1 -1;
#X obj 400 537 dac~;
#X floatatom 501 476 5 0 0 0 - - -;
#X floatatom 899 257 5 0 0 0 - - -;
#X obj 969 280 + 4;
#X obj 1039 280 + 7;
#X obj 1109 280 + 11;
#X obj 278 114 tgl 15 0 empty empty empty 17 7 0 10 -262144 -1 -1 0
1;
#X floatatom 894 316 5 0 0 0 - - -;
#X obj 964 339 + 4;
#X obj 1034 339 + 7;
#X obj 1104 339 + 10;
#X floatatom 894 376 5 0 0 0 - - -;
#X obj 1034 399 + 7;
#X obj 1104 399 + 10;
#X obj 964 399 + 3;
#X floatatom 894 446 5 0 0 0 - - -;
#X obj 1104 469 + 10;
#X obj 964 469 + 3;
#X obj 1034 469 + 6;
#X floatatom 894 506 5 0 0 0 - - -;
#X obj 964 529 + 3;
#X obj 1034 529 + 6;
#X obj 1104 529 + 9;
#X text 828 506 full dim;
#X text 828 446 half dim;
#X text 852 254 maj7;
#X text 838 315 dom7;
#X text 826 373 min 7;
#X floatatom 626 128 5 0 0 0 - - -;
#X text 613 101 control note;
#X obj 1221 342 pack \$1 \$2 \$3 \$4;
#X obj 1038 308 bng 15 250 50 0 empty empty empty 17 7 0 10 -262144
-1 -1;
#X obj 1217 399 pack \$1 \$2 \$3 \$4;
#X obj 1037 370 bng 15 250 50 0 empty empty empty 17 7 0 10 -262144
-1 -1;
#X obj 1217 469 pack \$1 \$2 \$3 \$4;
#X obj 1038 442 bng 15 250 50 0 empty empty empty 17 7 0 10 -262144
-1 -1;
#X obj 561 207 unpack i i i i;
#X floatatom 1227 129 5 0 0 0 - - -;
#X text 458 52 color;
#X obj 1221 282 pack \$1 \$2 \$3 \$4;
#X obj 1042 242 bng 15 250 50 0 empty empty empty 17 7 0 10 -262144
-1 -1;
#X obj 1412 281 spigot;
#X obj 560 166 r chord;
#X obj 1411 344 spigot;
#X obj 1408 403 spigot;
#X obj 1407 466 spigot;
#X obj 1385 587 s chord;
#X obj 1217 529 pack \$1 \$2 \$3 \$4;
#X obj 1407 526 spigot;
#X obj 1035 502 bng 15 250 50 0 empty empty empty 17 7 0 10 -262144
-1 -1;
#X obj 1805 219 sdkjfhjkdfh djkhjkfdhj jkdfh;
#X obj 1437 258 == 0;
#X obj 1441 316 == 1;
#X obj 1441 375 == 2;
#X obj 1440 436 == 3;
#X obj 1440 496 == 4;
#X obj 1027 201 bng 15 250 50 0 empty empty empty 17 7 0 10 -262144
-1 -1;
#X obj 1163 73 hradio 15 1 0 5 empty empty empty 0 -8 0 10 -262144
-1 -1 4;
#X obj 706 545 bng 15 250 50 0 empty empty empty 17 7 0 10 -262144
-1 -1;
#X obj 445 654 hsl 128 15 0 127 0 0 empty empty empty -2 -8 0 10 -262144
-1 -1 7900 1;
#X obj 444 700 hsl 128 15 0 127 0 0 empty empty empty -2 -8 0 10 -262144
-1 -1 0 1;
#X floatatom 826 558 5 0 0 0 - - -;
#X floatatom 776 559 5 0 0 0 - - -;
#X obj 826 614 *;
#X obj 843 584 bng 15 250 50 0 empty empty empty 17 7 0 10 -262144
-1 -1;
#X obj 826 662 +;
#X obj 826 686 mod 5;
#X obj 442 674 i;
#X floatatom 826 710 5 0 0 0 - - -;
#X obj 896 596 random 5;
#X obj 896 620 + 2;
#X obj 825 638 mod;
#X obj 826 733 i;
#X obj 657 619 random 10;
#X obj 658 643 + 2;
#X obj 712 758 +;
#X floatatom 662 710 5 0 0 0 - - -;
#X floatatom 776 686 5 0 0 0 - - -;
#X obj 712 686 +;
#X obj 656 769 *;
#X floatatom 656 793 5 0 0 0 - - -;
#X obj 656 816 i;
#X floatatom 712 782 5 0 0 0 - - -;
#X floatatom 595 820 5 0 0 0 - - -;
#X obj 626 734 random 2;
#X obj 584 776 - 1;
#X obj 776 582 +;
#X obj 538 741 random 3;
#X obj 951 744 < 50;
#X obj 866 797 i;
#X obj 927 771 spigot;
#X obj 1063 767 bng 15 250 50 0 empty empty empty 17 7 0 10 -262144
-1 -1;
#X obj 866 773 + 10;
#X obj 360 453 basic-voice 300 200;
#X obj 320 404 basic-voice 300 200;
#X obj 399 504 basic-voice 300 200;
#X obj 280 353 basic-voice 300 200;
#X obj 251 144 metro 1000;
#X obj 712 734 * 2;
#X obj 711 710 mod 4;
#X connect 0 0 110 0;
#X connect 2 0 110 1;
#X connect 3 0 2 0;
#X connect 4 0 9 0;
#X connect 5 0 12 0;
#X connect 6 0 15 0;
#X connect 7 0 108 0;
#X connect 9 0 108 1;
#X connect 10 0 107 0;
#X connect 12 0 107 1;
#X connect 13 0 109 0;
#X connect 15 0 109 1;
#X connect 16 0 17 0;
#X connect 16 0 18 0;
#X connect 16 0 19 0;
#X connect 16 0 53 0;
#X connect 17 0 53 1;
#X connect 17 0 54 0;
#X connect 18 0 53 2;
#X connect 18 0 54 0;
#X connect 19 0 53 3;
#X connect 19 0 54 0;
#X connect 20 0 111 0;
#X connect 21 0 22 0;
#X connect 21 0 23 0;
#X connect 21 0 24 0;
#X connect 21 0 44 0;
#X connect 22 0 44 1;
#X connect 22 0 45 0;
#X connect 23 0 44 2;
#X connect 23 0 45 0;
#X connect 24 0 44 3;
#X connect 24 0 45 0;
#X connect 25 0 26 0;
#X connect 25 0 27 0;
#X connect 25 0 28 0;
#X connect 25 0 46 0;
#X connect 26 0 46 2;
#X connect 26 0 47 0;
#X connect 27 0 46 3;
#X connect 27 0 47 0;
#X connect 28 0 46 1;
#X connect 28 0 47 0;
#X connect 29 0 30 0;
#X connect 29 0 31 0;
#X connect 29 0 32 0;
#X connect 29 0 48 0;
#X connect 30 0 48 3;
#X connect 30 0 49 0;
#X connect 31 0 48 1;
#X connect 31 0 49 0;
#X connect 32 0 48 2;
#X connect 32 0 49 0;
#X connect 33 0 34 0;
#X connect 33 0 35 0;
#X connect 33 0 36 0;
#X connect 33 0 61 0;
#X connect 34 0 63 0;
#X connect 34 0 61 1;
#X connect 35 0 63 0;
#X connect 35 0 61 2;
#X connect 36 0 63 0;
#X connect 36 0 61 3;
#X connect 42 0 16 0;
#X connect 42 0 21 0;
#X connect 42 0 25 0;
#X connect 42 0 29 0;
#X connect 42 0 33 0;
#X connect 42 0 76 0;
#X connect 42 0 106 0;
#X connect 44 0 57 0;
#X connect 45 0 44 0;
#X connect 46 0 58 0;
#X connect 47 0 46 0;
#X connect 48 0 59 0;
#X connect 49 0 48 0;
#X connect 50 0 3 0;
#X connect 50 1 4 0;
#X connect 50 2 5 0;
#X connect 50 3 6 0;
#X connect 51 0 65 0;
#X connect 51 0 66 0;
#X connect 51 0 67 0;
#X connect 51 0 68 0;
#X connect 51 0 69 0;
#X connect 51 0 70 0;
#X connect 51 0 75 0;
#X connect 53 0 55 0;
#X connect 54 0 53 0;
#X connect 55 0 60 0;
#X connect 56 0 50 0;
#X connect 57 0 60 0;
#X connect 58 0 60 0;
#X connect 59 0 60 0;
#X connect 61 0 62 0;
#X connect 62 0 60 0;
#X connect 63 0 61 0;
#X connect 65 0 55 1;
#X connect 66 0 57 1;
#X connect 67 0 58 1;
#X connect 68 0 59 1;
#X connect 69 0 62 1;
#X connect 70 0 16 0;
#X connect 70 0 21 0;
#X connect 70 0 25 0;
#X connect 70 0 29 0;
#X connect 70 0 33 0;
#X connect 71 0 51 0;
#X connect 72 0 86 0;
#X connect 72 0 87 0;
#X connect 72 0 98 0;
#X connect 72 0 95 0;
#X connect 72 0 83 0;
#X connect 72 0 101 0;
#X connect 72 0 104 0;
#X connect 73 0 81 0;
#X connect 75 0 77 0;
#X connect 75 0 78 0;
#X connect 75 0 77 1;
#X connect 76 0 100 1;
#X connect 76 0 102 0;
#X connect 77 0 85 0;
#X connect 78 0 77 0;
#X connect 79 0 80 0;
#X connect 79 0 91 0;
#X connect 79 0 92 0;
#X connect 80 0 82 0;
#X connect 81 0 79 1;
#X connect 82 0 86 1;
#X connect 83 0 84 0;
#X connect 84 0 85 1;
#X connect 85 0 79 0;
#X connect 86 0 71 0;
#X connect 87 0 88 0;
#X connect 88 0 92 0;
#X connect 89 0 93 1;
#X connect 89 0 96 0;
#X connect 92 0 90 0;
#X connect 92 0 113 0;
#X connect 93 0 94 0;
#X connect 94 0 95 1;
#X connect 95 0 100 0;
#X connect 98 0 89 1;
#X connect 99 0 97 0;
#X connect 99 0 93 0;
#X connect 100 0 42 0;
#X connect 101 0 99 0;
#X connect 102 0 104 1;
#X connect 103 0 105 0;
#X connect 103 0 42 0;
#X connect 104 0 103 0;
#X connect 106 0 103 1;
#X connect 107 0 11 0;
#X connect 107 0 11 1;
#X connect 108 0 8 0;
#X connect 108 0 8 1;
#X connect 109 0 14 0;
#X connect 109 0 14 1;
#X connect 110 0 1 0;
#X connect 110 0 1 1;
#X connect 111 0 0 0;
#X connect 111 0 7 0;
#X connect 111 0 10 0;
#X connect 111 0 13 0;
#X connect 111 0 72 0;
#X connect 112 0 89 0;
#X connect 113 0 112 0;
