#N canvas 0 23 1342 571 12;
#X obj 409 171 env~;
#X obj 289 115 inlet~;
#X floatatom 412 244 5 0 0 0 - - -;
#X obj 495 115 inlet;
#X obj 328 321 == 0;
#X obj 381 372 *~;
#X obj 381 396 +~;
#X obj 381 420 outlet~;
#X obj 500 302 - \$1;
#X obj 500 326 / \$2;
#X obj 563 115 inlet;
#X floatatom 500 350 5 0 0 0 - - -;
#X obj 412 302 > \$1;
#X obj 500 373 + \$1;
#X floatatom 500 397 5 0 0 0 - - -;
#X obj 500 420 / 100;
#X obj 412 350 *~;
#X obj 412 326 *;
#X connect 0 0 2 0;
#X connect 1 0 0 0;
#X connect 1 0 5 0;
#X connect 1 0 16 0;
#X connect 2 0 12 0;
#X connect 2 0 8 0;
#X connect 3 0 12 1;
#X connect 3 0 8 0;
#X connect 3 0 13 1;
#X connect 4 0 5 1;
#X connect 5 0 6 0;
#X connect 6 0 7 0;
#X connect 8 0 9 0;
#X connect 9 0 11 0;
#X connect 10 0 9 1;
#X connect 11 0 13 0;
#X connect 12 0 4 0;
#X connect 12 0 17 0;
#X connect 13 0 14 0;
#X connect 14 0 15 0;
#X connect 15 0 17 1;
#X connect 16 0 6 1;
#X connect 17 0 16 1;
