#N canvas 0 23 450 300 12;
#X obj 101 29 inlet;
#X obj 100 63 i;
#X obj 100 111 mod \$1;
#X obj 179 17 inlet;
#X msg 179 41 0;
#X obj 100 86 + 1;
#X obj 100 135 == 0;
#X obj 61 159 spigot;
#X obj 61 183 outlet;
#X connect 0 0 1 0;
#X connect 0 0 7 0;
#X connect 1 0 5 0;
#X connect 2 0 1 1;
#X connect 2 0 6 0;
#X connect 3 0 4 0;
#X connect 4 0 1 0;
#X connect 5 0 2 0;
#X connect 6 0 7 1;
#X connect 7 0 8 0;
