#N canvas 0 23 1440 855 12;
#X obj 325 430 oscope~ 10;
#X obj 390 74 sigmund~ peaks -npeak 1;
#X obj 390 98 route 0;
#X obj 390 122 unpack f f;
#X floatatom 390 146 5 0 0 0 - - -;
#X obj 217 183 fexpr~ ($x1[-1] - $x1[0])*7200/$f2;
#X obj 133 457 dac~;
#X obj 349 17 +~;
#X obj 1111 441 +~;
#X obj 1097 317 osc~ 330;
#X obj 217 207 +~;
#X obj 217 231 expr~ tanh($v1);
#X obj 1171 317 osc~ 550;
#X obj 675 214 oscope~ 40;
#X obj 1067 345 osc~ 990;
#X obj 1016 71 noise~;
#X obj 855 127 *~;
#X obj 855 103 expr~ $v1<0.125;
#X obj 102 369 delwrite~ del40 100;
#X obj 1134 394 osc~ 110;
#X obj 1155 184 samphold~;
#X obj 1156 161 noise~;
#X obj 1155 208 *~ 12;
#X obj 1155 254 mtof~;
#X obj 1155 231 +~ 40;
#X obj 1055 264 *~ 3;
#X obj 1256 264 *~ 5;
#X obj 1155 278 *~ 9;
#X obj 1117 124 phasor~ 1;
#X obj 821 38 phasor~ 8;
#X obj 217 254 lop~ 1400;
#X obj 672 404 oscope~ 40;
#X connect 1 0 2 0;
#X connect 2 0 3 0;
#X connect 3 0 4 0;
#X connect 4 0 5 1;
#X connect 5 0 10 0;
#X connect 7 0 0 0;
#X connect 7 0 1 0;
#X connect 7 0 5 0;
#X connect 8 0 7 0;
#X connect 9 0 8 0;
#X connect 10 0 11 0;
#X connect 11 0 13 0;
#X connect 11 0 30 0;
#X connect 12 0 8 1;
#X connect 14 0 8 0;
#X connect 15 0 16 1;
#X connect 16 0 5 0;
#X connect 17 0 16 0;
#X connect 19 0 8 1;
#X connect 20 0 22 0;
#X connect 21 0 20 0;
#X connect 22 0 24 0;
#X connect 23 0 25 0;
#X connect 23 0 26 0;
#X connect 23 0 27 0;
#X connect 23 0 19 0;
#X connect 24 0 23 0;
#X connect 25 0 9 0;
#X connect 26 0 12 0;
#X connect 27 0 14 0;
#X connect 28 0 20 1;
#X connect 29 0 17 0;
#X connect 30 0 31 0;
#X connect 30 0 18 0;
#X connect 30 0 6 0;
#X connect 30 0 6 1;
