#N canvas 0 23 450 300 12;
#X obj 214 21 inlet~;
#X obj 124 93 delread~ \$0-del \$1;
#X obj 124 65 delwrite~ \$0-del 100;
#X obj 222 147 +~;
#X obj 222 171 outlet~;
#X obj 357 21 inlet~;
#X obj 288 21 inlet~;
#X obj 326 78 *~ \$2;
#X obj 222 123 *~ \$3;
#X connect 0 0 2 0;
#X connect 0 0 7 0;
#X connect 1 0 8 0;
#X connect 3 0 4 0;
#X connect 5 0 7 1;
#X connect 6 0 8 1;
#X connect 7 0 3 1;
#X connect 8 0 3 0;
