#N canvas 0 23 1440 855 12;
#X obj 681 165 noise~;
#X obj 855 262 vsl 15 128 0.001 40 1 0 empty empty empty 0 -9 0 10
-262144 -1 -1 12700 1;
#X obj 516 251 vcf~ 440 20;
#X obj 737 436 delwrite~ del 100;
#X obj 1197 533 mtof~;
#X obj 1222 474 *~ 12;
#X obj 1223 498 +~ 60;
#X obj 1075 619 phasor~;
#X obj 427 175 *~ -1;
#X obj 293 145 delread~ del 5;
#X obj 427 151 delread~ del 7;
#X obj 427 199 +~;
#X obj 1197 581 osc~;
#X obj 1075 595 *~ 5;
#X obj 1197 557 *~ 3;
#X obj 624 354 +~;
#X obj 737 408 expr~ tanh($v1);
#X obj 1258 420 noise~;
#X obj 1258 444 samphold~;
#X obj 1045 471 osc~ 220;
#X obj 1343 425 phasor~ 8;
#X obj 878 192 *~;
#X obj 878 168 expr~ $v1 < 0.5;
#X obj 878 144 phasor~ 4;
#X obj 983 40 bng 15 250 50 0 empty empty empty 17 7 0 10 -262144 -1
-1;
#X obj 1042 163 noise~;
#X obj 1138 517 /~ 2;
#X obj 593 60 +~;
#X obj 391 625 dac~;
#X obj 136 439 unpack 0 0;
#X obj 246 439 unpack 0 0;
#X floatatom 246 463 5 0 0 0 - - -;
#X floatatom 136 463 5 0 0 0 - - -;
#X obj 166 385 route 0 1 2;
#X obj 55 435 unpack 0 0;
#X floatatom 55 459 5 0 0 0 - - -;
#X obj 98 510 sig~;
#X obj 136 486 sig~;
#X obj 268 490 sig~;
#X obj 603 251 vcf~ 440 20;
#X obj 687 244 vcf~ 440 20;
#X obj 593 84 *~;
#X obj 755 32 vsl 15 128 0.1 10 1 0 empty empty empty 0 -9 0 10 -262144
-1 -1 10900 1;
#X obj 594 35 adc~ 2;
#X obj 343 579 oscope~ 20;
#X obj 593 108 expr~ tanh($v1);
#X obj 456 517 +~;
#X obj 445 590 expr~ tanh($v1);
#X obj 543 295 *~ 0.25;
#X obj 630 295 *~ 0.25;
#X obj 714 287 *~ 0.25;
#X obj 456 541 *~;
#X obj 456 565 +~;
#X obj 615 462 vsl 15 128 0.1 2 1 0 empty empty empty 0 -9 0 10 -262144
-1 -1 10100 1;
#X obj 397 107 delread~ del 13;
#X obj 127 578 oscope~ 20;
#X obj 167 361 sigmund~ peaks -npeak 3 -npts 8192 -hop 12000;
#X obj 511 214 +~;
#X obj 681 189 *~ 3;
#X obj 681 213 expr~ tanh($v1);
#X obj 600 405 delwrite~ del2 50;
#X obj 70 146 delread~ del2 10;
#X obj 139 172 delread~ del2 23;
#X obj 108 104 delread~ del2 17;
#X obj 139 196 +~;
#X obj 139 220 clip~ 1 -1;
#X connect 0 0 58 0;
#X connect 1 0 2 2;
#X connect 1 0 39 2;
#X connect 1 0 40 2;
#X connect 2 0 46 0;
#X connect 2 0 48 0;
#X connect 4 0 13 0;
#X connect 4 0 14 0;
#X connect 4 0 26 0;
#X connect 5 0 6 0;
#X connect 6 0 4 0;
#X connect 8 0 11 0;
#X connect 9 0 11 0;
#X connect 10 0 8 0;
#X connect 11 0 57 0;
#X connect 13 0 7 0;
#X connect 14 0 12 0;
#X connect 15 0 16 0;
#X connect 15 0 60 0;
#X connect 16 0 3 0;
#X connect 17 0 18 0;
#X connect 18 0 5 0;
#X connect 20 0 18 1;
#X connect 22 0 21 0;
#X connect 23 0 22 0;
#X connect 24 0 20 1;
#X connect 24 0 23 1;
#X connect 25 0 21 1;
#X connect 26 0 19 0;
#X connect 27 0 41 0;
#X connect 27 0 56 0;
#X connect 29 0 32 0;
#X connect 30 0 31 0;
#X connect 31 0 38 0;
#X connect 32 0 37 0;
#X connect 33 0 34 0;
#X connect 33 1 29 0;
#X connect 33 2 30 0;
#X connect 34 0 35 0;
#X connect 35 0 36 0;
#X connect 36 0 2 1;
#X connect 37 0 39 1;
#X connect 38 0 40 1;
#X connect 39 0 46 0;
#X connect 39 0 49 0;
#X connect 40 0 46 0;
#X connect 40 0 50 0;
#X connect 41 0 44 0;
#X connect 41 0 45 0;
#X connect 41 0 57 0;
#X connect 42 0 41 1;
#X connect 43 0 27 0;
#X connect 45 0 52 1;
#X connect 45 0 16 0;
#X connect 46 0 51 0;
#X connect 47 0 28 1;
#X connect 47 0 28 0;
#X connect 48 0 15 0;
#X connect 49 0 15 1;
#X connect 50 0 15 1;
#X connect 51 0 52 0;
#X connect 51 0 55 0;
#X connect 52 0 47 0;
#X connect 53 0 51 1;
#X connect 54 0 11 0;
#X connect 56 0 33 0;
#X connect 57 0 2 0;
#X connect 57 0 39 0;
#X connect 57 0 40 0;
#X connect 58 0 59 0;
#X connect 59 0 57 1;
#X connect 61 0 64 1;
#X connect 62 0 64 0;
#X connect 63 0 64 1;
#X connect 64 0 65 0;
#X connect 65 0 57 0;
