#N canvas 0 23 1440 855 12;
#X obj 481 173 noise~;
#X obj 431 390 dac~;
#X obj 650 196 vsl 15 128 0.001 40 1 0 empty empty empty 0 -9 0 10
-262144 -1 -1 12700 1;
#X obj 476 238 vcf~ 440 20;
#X obj 553 403 delwrite~ del 100;
#X obj 705 132 mtof~;
#X obj 730 73 *~ 12;
#X obj 731 97 +~ 60;
#X obj 583 218 phasor~;
#X obj 491 263 *~;
#X obj 427 175 *~ -1;
#X obj 293 145 delread~ del 5;
#X obj 427 151 delread~ del 7;
#X obj 427 199 +~;
#X obj 355 232 *~;
#X obj 705 180 osc~;
#X obj 349 258 *~ 0.5;
#X obj 583 194 *~ 5;
#X obj 705 156 *~ 3;
#X obj 491 287 +~;
#X obj 491 311 expr~ tanh($v1);
#X obj 766 19 noise~;
#X obj 766 43 samphold~;
#X obj 553 70 osc~ 220;
#X obj 851 24 phasor~ 8;
#X obj 878 192 *~;
#X obj 878 168 expr~ $v1 < 0.5;
#X obj 878 144 phasor~ 4;
#X obj 983 40 bng 15 250 50 0 empty empty empty 17 7 0 10 -262144 -1
-1;
#X obj 1042 163 noise~;
#X obj 397 107 delread~ del 100;
#X obj 645 116 /~ 4;
#X connect 0 0 13 0;
#X connect 2 0 3 2;
#X connect 3 0 1 0;
#X connect 3 0 1 1;
#X connect 3 0 9 0;
#X connect 5 0 3 1;
#X connect 5 0 17 0;
#X connect 5 0 18 0;
#X connect 5 0 31 0;
#X connect 6 0 7 0;
#X connect 7 0 5 0;
#X connect 8 0 9 1;
#X connect 9 0 19 0;
#X connect 10 0 13 0;
#X connect 11 0 13 0;
#X connect 12 0 10 0;
#X connect 13 0 3 0;
#X connect 13 0 14 0;
#X connect 14 0 16 0;
#X connect 15 0 14 1;
#X connect 16 0 19 1;
#X connect 17 0 8 0;
#X connect 18 0 15 0;
#X connect 19 0 20 0;
#X connect 20 0 4 0;
#X connect 21 0 22 0;
#X connect 22 0 6 0;
#X connect 23 0 3 0;
#X connect 24 0 22 1;
#X connect 25 0 19 1;
#X connect 26 0 25 0;
#X connect 27 0 26 0;
#X connect 28 0 24 1;
#X connect 28 0 27 1;
#X connect 29 0 25 1;
#X connect 30 0 19 0;
#X connect 31 0 23 0;
