#N canvas 0 23 1440 855 12;
#X obj 153 78 sigmund~ -npeak 5 peaks env;
#X obj 79 259 unpack 0 0 0 0;
#X obj 79 371 osc~;
#X obj 79 395 *~;
#X obj 187 259 unpack 0 0 0 0;
#X obj 187 371 osc~;
#X obj 187 395 *~;
#X obj 294 259 unpack 0 0 0 0;
#X obj 294 383 osc~;
#X obj 294 407 *~;
#X obj 402 259 unpack 0 0 0 0;
#X obj 402 383 osc~;
#X obj 402 407 *~;
#X obj 510 259 unpack 0 0 0 0;
#X obj 510 383 osc~;
#X obj 510 407 *~;
#X obj 153 102 route 0 1 2 3 4;
#X obj 187 419 +~;
#X obj 294 431 +~;
#X obj 79 347 +~;
#X obj 187 347 +~;
#X obj 119 383 osc~;
#X obj 119 407 *~;
#X obj 227 383 osc~;
#X obj 227 407 *~;
#X obj 227 431 +~;
#X obj 227 455 +~;
#X obj 294 455 +~;
#X obj 294 479 +~;
#X obj 510 431 *~;
#X obj 402 431 *~;
#X obj 153 54 inlet~;
#X obj 306 566 outlet~;
#X obj 79 323 *~ \$1;
#X obj 187 323 *~ \$1;
#X obj 468 58 inlet;
#X connect 0 0 16 0;
#X connect 1 0 21 0;
#X connect 1 0 29 1;
#X connect 1 0 33 0;
#X connect 1 1 3 1;
#X connect 1 1 22 1;
#X connect 2 0 3 0;
#X connect 3 0 17 0;
#X connect 4 0 23 0;
#X connect 4 0 30 1;
#X connect 4 0 34 0;
#X connect 4 1 6 1;
#X connect 4 1 24 1;
#X connect 5 0 6 0;
#X connect 6 0 17 1;
#X connect 7 0 8 0;
#X connect 7 1 9 1;
#X connect 8 0 9 0;
#X connect 9 0 18 0;
#X connect 10 0 11 0;
#X connect 10 1 12 1;
#X connect 11 0 12 0;
#X connect 12 0 27 1;
#X connect 12 0 30 0;
#X connect 13 0 14 0;
#X connect 13 1 15 1;
#X connect 14 0 15 0;
#X connect 15 0 28 1;
#X connect 15 0 29 0;
#X connect 16 0 1 0;
#X connect 16 1 4 0;
#X connect 16 2 7 0;
#X connect 16 3 10 0;
#X connect 16 4 13 0;
#X connect 17 0 26 1;
#X connect 18 0 27 0;
#X connect 19 0 2 0;
#X connect 20 0 5 0;
#X connect 21 0 22 0;
#X connect 22 0 25 0;
#X connect 23 0 24 0;
#X connect 24 0 25 1;
#X connect 25 0 26 0;
#X connect 26 0 18 1;
#X connect 27 0 28 0;
#X connect 28 0 32 0;
#X connect 29 0 20 1;
#X connect 30 0 19 1;
#X connect 31 0 0 0;
#X connect 33 0 19 0;
#X connect 34 0 20 0;
#X connect 35 0 34 1;
#X connect 35 0 33 1;
#X coords 0 855 1 854 50 200 0;
