#N canvas 0 23 1440 855 12;
#X obj 316 74 adc~;
#X obj 316 98 +~;
#X obj 276 122 env~;
#X obj 276 146 - 100;
#X obj 276 170 vu 15 120 empty empty -1 -8 0 10 -66577 -1 1 0;
#X obj 316 122 s~ mic_in;
#X obj 591 99 r~ mic_in;
#X obj 671 162 tabwrite~ samp1;
#N canvas 0 22 450 278 (subpatch) 0;
#X array samp1 44100 float 2;
#X coords 0 1 44100 -1 200 140 1;
#X restore 1101 109 graph;
#X obj 795 99 metro 1000;
#X obj 751 58 tgl 15 0 empty empty empty 17 7 0 10 -262144 -1 -1 1
1;
#X obj 636 384 tabread~ samp1;
#X obj 630 322 phasor~ 1;
#X obj 526 518 dac~;
#X obj 630 346 *~ 44100;
#X obj 756 384 tabread~ samp1;
#X obj 750 322 phasor~ 1;
#X obj 750 346 *~ 44100;
#X obj 756 448 +~;
#X obj 636 408 +~;
#X obj 532 382 r~ mic_in;
#X obj 532 406 +~;
#X obj 535 437 +~;
#X obj 876 384 tabread~ samp1;
#X obj 870 322 phasor~ 1;
#X obj 870 346 *~ 44100;
#X obj 876 438 +~;
#X obj 893 221 osc~ 0.5;
#X obj 996 434 tabread~ samp1;
#X obj 990 396 *~ 44100;
#X obj 996 487 +~;
#X obj 1013 221 osc~ 0.5;
#X obj 990 321 osc~ 0.5;
#X obj 990 345 +~ 1;
#X obj 990 369 *~ 0.5;
#X obj 996 458 *~;
#X obj 996 511 clip~ -1 1;
#X obj 996 534 +~ 1;
#X obj 996 558 *~ 0.5;
#X obj 1144 447 tabread~ samp1;
#X obj 1144 471 +~;
#X obj 756 408 lop~ 4000;
#X obj 876 408 lop~ 200;
#X obj 1144 534 env~;
#X obj 1144 582 vu 15 120 empty empty -1 -8 0 10 -66577 -1 1 0;
#X obj 1144 558 - 100;
#X obj 636 480 delwrite~ rv 1000;
#X obj 636 432 +~;
#X obj 675 554 c-tanh~;
#X obj 675 578 *~ 1.4;
#X obj 655 530 delread~ rv 100;
#X obj 775 614 c-tanh~;
#X obj 775 554 +~ 1;
#X obj 775 662 -~ 1;
#X obj 775 638 *~ 2;
#X obj 675 602 +~;
#X obj 636 456 *~ 0.35;
#X obj 775 578 *~ -0.5;
#X obj 338 527 writesf~ 2;
#X msg 199 447 start;
#X msg 196 489 stop;
#X obj 775 530 delread~ rv 33;
#X obj 885 614 c-tanh~;
#X obj 885 661 -~ 1;
#X obj 885 578 *~;
#X obj 885 530 delread~ rv 20;
#X obj 775 686 +~;
#X obj 228 609 oscope~;
#X obj 885 638 *~ 2;
#X obj 885 685 *~ 0.1;
#X msg 328 447 open rocks-1.wav;
#X obj 675 626 *~;
#X obj 567 676 vsl 15 128 0 1 0 0 empty empty empty 0 -9 0 10 -262144
-1 -1 7400 1;
#X obj 492 632 *~;
#X obj 519 705 vsl 15 128 0 1 0 0 empty empty empty 0 -9 0 10 -262144
-1 -1 12700 1;
#X obj 806 139 bng 15 250 50 0 empty empty empty 17 7 0 10 -262144
-1 -1;
#X obj 492 608 +~ 0.11;
#X floatatom 567 812 5 0 0 0 - - -;
#X floatatom 548 544 5 0 1 0 - - -;
#X obj 1144 495 *~;
#X obj 1290 478 vsl 15 128 0 1 0 0 empty empty empty 0 -9 0 10 -262144
-1 -1 9100 1;
#X obj 893 269 +~ 30;
#X obj 1013 269 +~ 50;
#X obj 773 245 *~ 1;
#X obj 893 244 *~ 20;
#X obj 1013 245 *~ 40;
#X obj 773 221 osc~ 440;
#X obj 773 269 +~ 2;
#X obj 1144 422 delread~ fb 1000;
#X obj 996 582 delwrite~ fb 1000;
#X connect 0 0 1 0;
#X connect 0 1 1 1;
#X connect 1 0 2 0;
#X connect 1 0 5 0;
#X connect 2 0 3 0;
#X connect 3 0 4 0;
#X connect 6 0 7 0;
#X connect 9 0 7 0;
#X connect 9 0 12 1;
#X connect 9 0 75 0;
#X connect 10 0 9 0;
#X connect 12 0 14 0;
#X connect 14 0 11 0;
#X connect 15 0 41 0;
#X connect 16 0 17 0;
#X connect 17 0 15 0;
#X connect 18 0 19 1;
#X connect 19 0 47 0;
#X connect 20 0 21 0;
#X connect 21 0 22 1;
#X connect 21 0 58 0;
#X connect 22 0 13 0;
#X connect 22 0 13 1;
#X connect 23 0 42 0;
#X connect 24 0 25 0;
#X connect 25 0 23 0;
#X connect 26 0 18 1;
#X connect 27 0 84 0;
#X connect 28 0 35 0;
#X connect 29 0 28 0;
#X connect 30 0 36 0;
#X connect 30 0 26 1;
#X connect 31 0 85 0;
#X connect 32 0 33 0;
#X connect 33 0 34 0;
#X connect 34 0 29 0;
#X connect 35 0 30 0;
#X connect 36 0 37 0;
#X connect 37 0 38 0;
#X connect 38 0 89 0;
#X connect 39 0 40 0;
#X connect 40 0 79 0;
#X connect 41 0 18 0;
#X connect 42 0 26 0;
#X connect 43 0 45 0;
#X connect 45 0 44 0;
#X connect 47 0 56 0;
#X connect 48 0 49 0;
#X connect 49 0 55 0;
#X connect 50 0 48 0;
#X connect 50 0 76 0;
#X connect 51 0 54 0;
#X connect 52 0 57 0;
#X connect 53 0 66 0;
#X connect 54 0 53 0;
#X connect 55 0 71 0;
#X connect 56 0 46 0;
#X connect 57 0 51 0;
#X connect 59 0 58 0;
#X connect 60 0 58 0;
#X connect 61 0 52 0;
#X connect 62 0 68 0;
#X connect 63 0 69 0;
#X connect 64 0 62 0;
#X connect 65 0 64 1;
#X connect 65 0 64 0;
#X connect 66 0 55 1;
#X connect 68 0 63 0;
#X connect 69 0 66 1;
#X connect 70 0 58 0;
#X connect 71 0 47 1;
#X connect 72 0 71 1;
#X connect 72 0 77 0;
#X connect 72 0 78 0;
#X connect 73 0 22 0;
#X connect 73 0 58 1;
#X connect 73 0 67 0;
#X connect 74 0 73 1;
#X connect 76 0 73 0;
#X connect 78 0 76 1;
#X connect 79 0 30 1;
#X connect 79 0 43 0;
#X connect 80 0 79 1;
#X connect 81 0 24 0;
#X connect 82 0 32 0;
#X connect 83 0 87 0;
#X connect 84 0 81 0;
#X connect 85 0 82 0;
#X connect 86 0 83 0;
#X connect 87 0 16 0;
#X connect 88 0 39 0;
