#N canvas 0 23 1440 777 12;
#X obj 51 141 c-tanh~;
#X obj 51 32 inlet~;
#X obj 51 96 +~;
#X obj 107 32 delread~ \$0-del \$1;
#X obj 69 229 c-tanh~;
#X obj 51 321 +~;
#X obj 86 321 delwrite~ \$0-del \$1;
#X obj 51 395 outlet~;
#X obj 51 359 clip~ -1 1;
#X obj 107 56 clip~ -0.7 0.7;
#X obj 51 56 *~ 1;
#X obj 255 33 inlet~;
#X obj 51 185 *~;
#X obj 255 57 *~ -1;
#X obj 69 273 *~;
#X connect 0 0 12 0;
#X connect 1 0 10 0;
#X connect 2 0 0 0;
#X connect 3 0 9 0;
#X connect 4 0 14 0;
#X connect 5 0 8 0;
#X connect 8 0 7 0;
#X connect 9 0 2 1;
#X connect 10 0 2 0;
#X connect 11 0 12 1;
#X connect 11 0 13 0;
#X connect 12 0 4 0;
#X connect 13 0 14 1;
#X connect 14 0 6 0;
#X connect 14 0 5 0;
