#N canvas 0 23 1440 855 12;
#X obj 440 409 dac~;
#X obj 444 366 +~;
#X obj 686 548 delwrite~ del110 100;
#X obj 683 487 delread~ del440 3;
#X obj 716 352 delread~ del220 7;
#X obj 842 245 delwrite~ del220 7;
#X obj 325 288 delread~ del110 50;
#X obj 465 288 delread~ del110 100;
#X obj 552 102 noise~;
#X obj 424 153 *~;
#X obj 424 105 phasor~ 0.25;
#X obj 424 129 expr~ $v1 < 0.125;
#X obj 757 39 noise~;
#X obj 660 141 osc~;
#X obj 757 87 +~ 1760;
#X obj 664 117 samphold~;
#X obj 960 93 noise~;
#X obj 832 144 *~;
#X obj 832 120 expr~ $v1 < 0.125;
#X obj 1165 30 noise~;
#X obj 1068 132 osc~;
#X obj 1072 108 samphold~;
#X obj 1165 78 +~ 880;
#X obj 832 96 phasor~ 0.125;
#X obj 757 63 *~ 400;
#X obj 1165 54 *~ 400;
#X obj 764 176 +~ 440;
#X obj 764 200 osc~;
#X obj 1095 180 +~ 440;
#X obj 1095 204 osc~;
#X obj 764 152 *~ 60;
#X obj 1095 156 *~ 100;
#X obj 148 89 noise~;
#X obj 20 140 *~;
#X obj 353 26 noise~;
#X obj 256 128 osc~;
#X obj 260 104 samphold~;
#X obj 360 163 +~ 440;
#X obj 360 187 osc~;
#X obj 360 139 *~ 200;
#X obj 353 74 +~ 50;
#X obj 353 50 *~ 30;
#X obj 20 92 phasor~ 0.5;
#X obj 20 116 expr~ $v1 < 0.125;
#X obj 846 352 delread~ del220 2;
#X obj 846 376 *~ -1;
#X obj 976 352 delread~ del220 7;
#X obj 1106 376 *~ -0.5;
#X obj 1106 352 delread~ del220 4;
#X obj 718 418 delwrite~ del440 30;
#X obj 823 487 delread~ del440 30;
#X obj 823 511 *~ -1;
#X obj 963 487 delread~ del440 20;
#X obj 963 511 *~ -0.5;
#X connect 1 0 0 0;
#X connect 1 0 0 1;
#X connect 3 0 2 0;
#X connect 4 0 49 0;
#X connect 6 0 1 1;
#X connect 7 0 1 0;
#X connect 8 0 9 1;
#X connect 9 0 49 0;
#X connect 10 0 11 0;
#X connect 10 0 15 1;
#X connect 11 0 9 0;
#X connect 12 0 24 0;
#X connect 13 0 30 0;
#X connect 14 0 15 0;
#X connect 15 0 13 0;
#X connect 16 0 17 1;
#X connect 17 0 5 0;
#X connect 18 0 17 0;
#X connect 19 0 25 0;
#X connect 20 0 31 0;
#X connect 21 0 20 0;
#X connect 22 0 21 0;
#X connect 23 0 18 0;
#X connect 23 0 21 1;
#X connect 24 0 14 0;
#X connect 25 0 22 0;
#X connect 26 0 27 0;
#X connect 27 0 49 0;
#X connect 28 0 29 0;
#X connect 29 0 5 0;
#X connect 30 0 26 0;
#X connect 31 0 28 0;
#X connect 32 0 33 1;
#X connect 33 0 2 0;
#X connect 34 0 41 0;
#X connect 35 0 39 0;
#X connect 36 0 35 0;
#X connect 37 0 38 0;
#X connect 38 0 5 0;
#X connect 39 0 37 0;
#X connect 40 0 36 0;
#X connect 41 0 40 0;
#X connect 42 0 36 1;
#X connect 42 0 43 0;
#X connect 43 0 33 0;
#X connect 44 0 45 0;
#X connect 45 0 49 0;
#X connect 47 0 49 0;
#X connect 48 0 47 0;
#X connect 50 0 51 0;
#X connect 51 0 2 0;
#X connect 52 0 53 0;
#X connect 53 0 2 0;
