#N canvas 1804 321 1209 737 12;
#X obj 132 72 phasor~;
#X obj 133 143 *~;
#X obj 132 30 r grain_sample_freq;
#X obj 151 118 r grain_width_samples;
#X obj 113 278 outlet~;
#X obj 113 192 tabread~ \$1;
#X obj 178 51 inlet;
#X obj 509 114 noise~;
#X obj 510 162 samphold~;
#X obj 113 254 *~;
#X obj 229 192 cos~;
#X obj 230 219 expr~ 1-$v1;
#X obj 610 126 r grain_start_max;
#X obj 510 186 *~;
#X obj 133 167 +~;
#X connect 0 0 8 1;
#X connect 0 0 10 0;
#X connect 0 0 1 0;
#X connect 1 0 14 0;
#X connect 2 0 0 0;
#X connect 3 0 1 1;
#X connect 5 0 9 0;
#X connect 6 0 0 1;
#X connect 7 0 8 0;
#X connect 8 0 13 0;
#X connect 9 0 4 0;
#X connect 10 0 11 0;
#X connect 11 0 9 1;
#X connect 12 0 13 1;
#X connect 13 0 14 1;
#X connect 14 0 5 0;
