#N canvas 0 23 1440 855 12;
#X obj 409 178 +;
#X obj 409 202 mtof;
#X obj 449 250 osc~;
#X obj 383 317 osc~;
#X obj 449 226 *~ 8;
#X obj 449 298 +~;
#X obj 449 274 *~;
#X obj 342 317 osc~;
#X obj 340 235 / 2;
#X obj 342 341 *~;
#X obj 274 240 / 4;
#X obj 435 540 +~;
#X obj 649 278 +;
#X obj 649 302 mtof;
#X obj 582 417 osc~;
#X obj 624 335 / 2;
#X obj 582 441 *~;
#X obj 348 796 dac~;
#X msg 541 204 55 63;
#X msg 591 203 59 80;
#X obj 541 228 unpack f f;
#X obj 541 163 sel 0 32;
#X obj 676 95 i;
#X obj 676 119 + 1;
#X obj 676 143 mod 64;
#X floatatom 626 119 5 0 0 0 - - -;
#X obj 615 22 bng 15 250 50 0 empty empty empty 17 7 0 10 -262144 -1
-1;
#X obj 800 297 osc~;
#X obj 801 260 mtof;
#X obj 847 263 t b;
#X obj 841 230 +;
#X obj 847 311 vline~;
#X obj 800 321 *~;
#X obj 808 408 +~;
#X msg 847 287 1 10 \, 0 800 200;
#X msg 816 194 70;
#X obj 796 170 sel 16 46 48;
#X msg 896 194 72;
#X msg 856 194 70;
#X obj 539 255 t b;
#X obj 496 496 *~;
#X msg 621 444 1 100 \, 0.5 400 400;
#X obj 621 468 vline~;
#X obj 409 246 / 16;
#X obj 978 294 osc~;
#X obj 980 257 mtof;
#X obj 1215 260 t b;
#X obj 1215 308 vline~;
#X obj 978 368 *~;
#X obj 978 451 +~;
#X obj 1026 321 osc~;
#X obj 1092 284 osc~;
#X obj 1092 332 +~;
#X msg 1215 284 1 100 \, 0 1800 200;
#X obj 1056 260 / 4;
#X obj 1056 284 / 16;
#X obj 1092 308 *~;
#X obj 1092 260 * 2;
#X obj 1018 225 + 0;
#X msg 1177 191 80;
#X msg 1057 191 68;
#X obj 978 393 *~ 0.5;
#X msg 1090 194 70;
#X obj 974 167 sel 10 12 40 56;
#X msg 974 191 64;
#X obj 116 446 osc~;
#X msg 17 344 50;
#X obj 45 414 mtof;
#X msg 56 345 63;
#X obj 17 320 sel 0 32 56;
#X msg 96 345 68;
#X obj 381 136 mtof;
#X obj 279 372 osc~;
#X obj 401 87 sel 4 38 54;
#X msg 401 111 80;
#X obj 347 185 vline~;
#X obj 279 417 *~;
#X obj 421 139 t b;
#X msg 347 161 0.75 400 \, 0 8000 400;
#X msg 440 112 75;
#X msg 480 112 84;
#X obj 676 71 metro 175;
#X msg 703 20 stop;
#X obj 615 42 t b b;
#X obj 215 298 * 2;
#X obj 215 346 *~ 0.05;
#X obj 215 322 phasor~;
#X obj 145 322 phasor~;
#X obj 145 298 * 3;
#X obj 274 264 phasor~;
#X obj 145 346 *~ -0.05;
#X obj 558 364 osc~;
#X obj 557 341 / 4;
#X obj 582 465 +~;
#X obj 660 365 phasor~;
#X obj 649 326 * 1;
#X obj 692 328 * 4;
#X obj 719 365 osc~;
#X obj 720 389 *~ 0.05;
#X msg 426 337 \$1 2;
#X obj 392 369 bp~ 0 2, f 10;
#X msg 615 66 32;
#X obj 660 389 *~ -0.05;
#X obj 472 698 +~;
#X obj 435 564 verb~;
#X obj 840 542 verb~;
#X obj 1040 521 delwrite~ del-chords 100;
#X obj 102 628 +~ 0.5;
#X obj 102 652 wrap~;
#X obj 32 745 delread4~ del-chords;
#X obj 182 755 delread4~ del-chords;
#X obj 32 769 +~;
#X obj 182 701 *~ -50;
#X obj 182 725 +~ 100;
#X obj 32 705 +~ 50;
#X obj 32 681 *~ -50;
#X obj 103 604 phasor~ 10;
#X obj 32 793 lop~ 110;
#X obj 572 519 hip~ 440;
#X obj 825 604 *~ 0.25;
#X obj 343 389 *~;
#X obj 343 365 *~;
#X obj 435 617 *~ 0.45;
#X obj 32 817 *~ 0.25;
#X obj 800 345 *~;
#X obj 865 354 tgl 15 0 empty empty empty 17 7 0 10 -262144 -1 -1 1
1;
#X obj 978 417 *~;
#X obj 1042 426 tgl 15 0 empty empty empty 17 7 0 10 -262144 -1 -1
1 1;
#X obj 116 470 *~;
#X obj 179 459 tgl 15 0 empty empty empty 17 7 0 10 -262144 -1 -1 1
1;
#X obj 343 413 *~;
#X obj 279 441 *~;
#X obj 450 420 tgl 15 0 empty empty empty 17 7 0 10 -262144 -1 -1 1
1;
#X connect 0 0 1 0;
#X connect 1 0 4 0;
#X connect 1 0 8 0;
#X connect 1 0 10 0;
#X connect 1 0 43 0;
#X connect 1 0 99 0;
#X connect 1 0 5 1;
#X connect 2 0 6 0;
#X connect 3 0 121 1;
#X connect 4 0 2 0;
#X connect 5 0 3 0;
#X connect 6 0 5 0;
#X connect 7 0 9 0;
#X connect 8 0 7 0;
#X connect 9 0 121 0;
#X connect 10 0 89 0;
#X connect 11 0 104 0;
#X connect 12 0 13 0;
#X connect 13 0 15 0;
#X connect 13 0 92 0;
#X connect 13 0 95 0;
#X connect 13 0 96 0;
#X connect 14 0 16 0;
#X connect 15 0 14 0;
#X connect 16 0 93 0;
#X connect 18 0 20 0;
#X connect 19 0 20 0;
#X connect 20 0 0 1;
#X connect 20 0 39 0;
#X connect 20 1 12 0;
#X connect 21 0 18 0;
#X connect 21 1 19 0;
#X connect 22 0 23 0;
#X connect 22 0 25 0;
#X connect 23 0 24 0;
#X connect 24 0 22 1;
#X connect 25 0 21 0;
#X connect 25 0 36 0;
#X connect 25 0 63 0;
#X connect 25 0 69 0;
#X connect 25 0 73 0;
#X connect 26 0 83 0;
#X connect 27 0 32 0;
#X connect 28 0 27 0;
#X connect 29 0 34 0;
#X connect 30 0 28 0;
#X connect 30 0 29 0;
#X connect 31 0 32 1;
#X connect 32 0 124 0;
#X connect 33 0 105 0;
#X connect 33 0 106 0;
#X connect 34 0 31 0;
#X connect 35 0 30 0;
#X connect 36 0 35 0;
#X connect 36 1 38 0;
#X connect 36 2 37 0;
#X connect 37 0 30 0;
#X connect 38 0 30 0;
#X connect 39 0 41 0;
#X connect 40 0 11 0;
#X connect 41 0 42 0;
#X connect 42 0 40 1;
#X connect 43 0 6 1;
#X connect 44 0 48 0;
#X connect 45 0 44 0;
#X connect 45 0 54 0;
#X connect 45 0 57 0;
#X connect 46 0 53 0;
#X connect 47 0 48 1;
#X connect 48 0 61 0;
#X connect 49 0 105 0;
#X connect 49 0 106 0;
#X connect 50 0 48 0;
#X connect 51 0 56 0;
#X connect 52 0 50 0;
#X connect 53 0 47 0;
#X connect 54 0 52 1;
#X connect 54 0 55 0;
#X connect 55 0 56 1;
#X connect 56 0 52 0;
#X connect 57 0 51 0;
#X connect 58 0 45 0;
#X connect 58 0 46 0;
#X connect 59 0 58 0;
#X connect 60 0 58 0;
#X connect 61 0 126 0;
#X connect 62 0 58 0;
#X connect 63 0 64 0;
#X connect 63 1 60 0;
#X connect 63 2 62 0;
#X connect 63 3 59 0;
#X connect 64 0 58 0;
#X connect 65 0 128 0;
#X connect 66 0 67 0;
#X connect 67 0 65 0;
#X connect 68 0 67 0;
#X connect 69 0 66 0;
#X connect 69 1 68 0;
#X connect 69 2 70 0;
#X connect 70 0 67 0;
#X connect 71 0 72 0;
#X connect 71 0 77 0;
#X connect 71 0 84 0;
#X connect 71 0 88 0;
#X connect 72 0 76 0;
#X connect 73 0 74 0;
#X connect 73 1 79 0;
#X connect 73 2 80 0;
#X connect 74 0 71 0;
#X connect 75 0 76 1;
#X connect 76 0 131 0;
#X connect 77 0 78 0;
#X connect 78 0 75 0;
#X connect 79 0 71 0;
#X connect 80 0 71 0;
#X connect 81 0 22 0;
#X connect 82 0 81 0;
#X connect 83 0 101 0;
#X connect 83 1 81 0;
#X connect 84 0 86 0;
#X connect 85 0 76 0;
#X connect 86 0 85 0;
#X connect 87 0 90 0;
#X connect 88 0 87 0;
#X connect 89 0 9 1;
#X connect 90 0 76 0;
#X connect 91 0 16 1;
#X connect 92 0 91 0;
#X connect 93 0 118 0;
#X connect 94 0 102 0;
#X connect 95 0 94 0;
#X connect 96 0 97 0;
#X connect 97 0 98 0;
#X connect 98 0 93 1;
#X connect 99 0 100 1;
#X connect 100 0 120 1;
#X connect 101 0 22 0;
#X connect 102 0 93 1;
#X connect 103 0 17 1;
#X connect 103 0 17 0;
#X connect 104 0 122 0;
#X connect 105 0 119 0;
#X connect 107 0 108 0;
#X connect 108 0 112 0;
#X connect 109 0 111 0;
#X connect 110 0 111 1;
#X connect 111 0 117 0;
#X connect 112 0 113 0;
#X connect 113 0 110 0;
#X connect 114 0 109 0;
#X connect 115 0 114 0;
#X connect 116 0 107 0;
#X connect 116 0 115 0;
#X connect 117 0 123 0;
#X connect 118 0 11 1;
#X connect 119 0 103 1;
#X connect 120 0 130 0;
#X connect 121 0 100 0;
#X connect 121 0 120 0;
#X connect 122 0 103 0;
#X connect 123 0 103 0;
#X connect 124 0 33 0;
#X connect 125 0 124 1;
#X connect 126 0 49 0;
#X connect 127 0 126 1;
#X connect 128 0 11 0;
#X connect 129 0 128 1;
#X connect 130 0 40 0;
#X connect 131 0 11 0;
#X connect 132 0 130 1;
#X connect 132 0 131 1;
