#N canvas 0 23 816 855 12;
#X obj 481 294 f;
#X obj 569 292 f;
#X text 603 295 y;
#X text 512 294 x;
#X obj 481 351 s x_n;
#X obj 499 241 r x_n_1;
#X obj 587 241 r y_n_1;
#X obj 569 350 s y_n;
#X obj 801 299 -;
#X floatatom 746 277 5 0 0 0 - - -;
#X msg 728 247 0.4;
#X obj 801 256 bng 15 250 50 0 empty empty empty 17 7 0 10 -262144
-1 -1;
#X text 788 373 t_n = 0.4 - 6/(1+x_n^2+y_n^2);
#X obj 844 217 /;
#X floatatom 777 166 5 0 0 0 - - -;
#X msg 777 142 6;
#X obj 853 195 bng 15 250 50 0 empty empty empty 17 7 0 10 -262144
-1 -1;
#X obj 907 142 +;
#X obj 894 173 + 1;
#X obj 881 24 r x_n;
#X obj 948 24 r y_n;
#X obj 917 113 bng 15 250 50 0 empty empty empty 17 7 0 10 -262144
-1 -1;
#X floatatom 481 318 5 0 0 0 - - -;
#X floatatom 569 316 5 0 0 0 - - -;
#X obj 412 234 bng 15 250 50 0 empty empty empty 17 7 0 10 -262144
-1 -1;
#X floatatom 801 323 5 0 0 0 - - -;
#X obj 801 346 s t_n;
#X obj 883 71 pow 2;
#X floatatom 883 95 5 0 0 0 - - -;
#X obj 948 48 pow 2;
#X floatatom 948 72 5 0 0 0 - - -;
#X obj 102 99 hsl 128 15 0 1 0 0 u empty Parameter:_U -2 -8 0 10 -262144
-1 -1 11100 1;
#X obj 750 530 r u;
#X obj 760 605 *;
#X obj 916 421 r t_n;
#X obj 882 452 sin;
#X obj 946 452 cos;
#X obj 817 453 r x_n;
#X obj 1002 454 r y_n;
#X obj 1014 537 *;
#X obj 947 478 bng 15 250 50 0 empty empty empty 17 7 0 10 -262144
-1 -1;
#X obj 882 481 bng 15 250 50 0 empty empty empty 17 7 0 10 -262144
-1 -1;
#X obj 796 537 *;
#X obj 843 537 *;
#X obj 975 538 *;
#X obj 996 624 *;
#X obj 760 570 -;
#X obj 902 550 bng 15 250 50 0 empty empty empty 17 7 0 10 -262144
-1 -1;
#X obj 996 589 +;
#X obj 986 564 bng 15 250 50 0 empty empty empty 17 7 0 10 -262144
-1 -1;
#X obj 760 629 + 1;
#X obj 760 681 s x_n_1;
#X obj 996 682 s y_n_1;
#X floatatom 760 653 5 0 0 0 - - -;
#X floatatom 996 648 5 0 0 0 - - -;
#X msg 556 93 0.25;
#X obj 239 475 mtof;
#X obj 239 543 osc~;
#X obj 240 656 *~;
#X obj 413 503 vsl 15 128 0 1 0 0 empty empty empty 0 -9 0 10 -262144
-1 -1 0 1;
#X obj 329 411 mtof;
#X obj 328 442 osc~;
#X obj 240 506 +~;
#X obj 227 743 dac~;
#X obj 237 303 r x_n;
#X obj 237 382 + 32;
#X obj 329 299 r y_n;
#X obj 329 377 + 32;
#X obj 237 327 + 1;
#X obj 329 323 + 1;
#X obj 237 358 * 32;
#X obj 329 353 * 32;
#X floatatom 110 132 5 0 0 0 - - -;
#X obj 328 466 *~ 220;
#X obj 335 177 metro;
#X obj 336 90 bng 15 250 50 0 empty empty empty 17 7 0 10 -262144 -1
-1;
#X msg 274 109 stop;
#X obj 96 283 r x_n;
#X obj 96 307 * 13;
#X obj 96 331 i;
#X obj 96 379 * 12;
#X obj 96 403 +;
#X obj 96 448 mtof;
#X obj 96 472 osc~;
#X obj 198 656 *~;
#X obj 107 258 hsl 128 15 -12 12 0 0 empty empty empty -2 -8 0 10 -262144
-1 -1 8000 1;
#X obj 96 355 / 1;
#X obj 45 283 r x_n;
#X obj 45 331 i;
#X obj 45 379 * 12;
#X obj 45 403 +;
#X obj 45 448 mtof;
#X obj 45 472 osc~;
#X obj 160 656 *~;
#X obj 45 355 / 1;
#X obj 55 216 hsl 128 15 -12 12 0 0 empty empty empty -2 -8 0 10 -262144
-1 -1 5600 1;
#X obj 45 307 * 19;
#X obj 240 429 i;
#X obj 45 426 i;
#X obj 96 425 i;
#X obj 38 552 vline~;
#X obj 245 598 *~;
#X msg 37 514 1 250 \, 0 1000 750;
#X obj 377 396 hsl 128 15 0 440 0 0 empty empty empty -2 -8 0 10 -262144
-1 -1 8600 1;
#X obj 643 403 ikeda-sampler;
#X obj 389 271 s tick;
#X obj 592 153 s start-x;
#X obj 592 180 s start-y;
#X floatatom 643 485 5 0 0 0 - - -;
#X obj 644 336 r u;
#X obj 611 657 dac~;
#X obj 599 484 r x_n;
#X obj 599 508 + 2;
#X obj 599 532 * 32;
#X obj 599 556 mtof;
#X obj 599 580 osc~;
#X obj 643 508 + 2;
#X obj 643 532 * 32;
#X obj 643 556 mtof;
#X obj 643 580 osc~;
#X obj 549 509 + 2;
#X obj 549 533 * 32;
#X obj 549 557 mtof;
#X obj 549 581 osc~;
#X obj 549 485 r y_n;
#X floatatom 689 487 5 0 0 0 - - -;
#X obj 689 510 + 2;
#X obj 689 534 * 32;
#X obj 689 558 mtof;
#X obj 689 582 osc~;
#X obj 645 370 + 0.01;
#X msg 368 129 tempo 250 msec;
#X connect 0 0 22 0;
#X connect 1 0 23 0;
#X connect 5 0 0 1;
#X connect 6 0 1 1;
#X connect 8 0 25 0;
#X connect 9 0 8 0;
#X connect 10 0 9 0;
#X connect 11 0 8 0;
#X connect 13 0 11 0;
#X connect 13 0 8 1;
#X connect 14 0 13 0;
#X connect 15 0 14 0;
#X connect 16 0 13 0;
#X connect 17 0 18 0;
#X connect 18 0 13 1;
#X connect 18 0 16 0;
#X connect 19 0 27 0;
#X connect 20 0 29 0;
#X connect 21 0 17 0;
#X connect 22 0 4 0;
#X connect 23 0 7 0;
#X connect 24 0 0 0;
#X connect 24 0 1 0;
#X connect 24 0 105 0;
#X connect 25 0 26 0;
#X connect 27 0 28 0;
#X connect 28 0 17 0;
#X connect 29 0 30 0;
#X connect 30 0 21 0;
#X connect 30 0 17 1;
#X connect 31 0 72 0;
#X connect 32 0 33 1;
#X connect 32 0 45 1;
#X connect 33 0 50 0;
#X connect 34 0 35 0;
#X connect 34 0 36 0;
#X connect 35 0 41 0;
#X connect 35 0 42 1;
#X connect 35 0 44 1;
#X connect 36 0 40 0;
#X connect 36 0 43 1;
#X connect 36 0 39 1;
#X connect 37 0 42 0;
#X connect 37 0 43 0;
#X connect 38 0 39 0;
#X connect 38 0 44 0;
#X connect 39 0 48 1;
#X connect 39 0 49 0;
#X connect 40 0 39 0;
#X connect 40 0 43 0;
#X connect 41 0 42 0;
#X connect 41 0 44 0;
#X connect 42 0 48 0;
#X connect 43 0 46 0;
#X connect 44 0 46 1;
#X connect 44 0 47 0;
#X connect 45 0 54 0;
#X connect 46 0 33 0;
#X connect 47 0 46 0;
#X connect 48 0 45 0;
#X connect 49 0 48 0;
#X connect 50 0 53 0;
#X connect 53 0 51 0;
#X connect 54 0 52 0;
#X connect 55 0 0 0;
#X connect 55 0 1 0;
#X connect 55 0 106 0;
#X connect 55 0 107 0;
#X connect 56 0 62 0;
#X connect 57 0 101 0;
#X connect 58 0 63 0;
#X connect 58 0 63 1;
#X connect 59 0 58 1;
#X connect 59 0 84 1;
#X connect 59 0 93 1;
#X connect 60 0 61 0;
#X connect 61 0 73 0;
#X connect 62 0 57 0;
#X connect 64 0 68 0;
#X connect 64 0 102 0;
#X connect 65 0 81 1;
#X connect 65 0 90 1;
#X connect 65 0 97 0;
#X connect 66 0 69 0;
#X connect 67 0 60 0;
#X connect 68 0 70 0;
#X connect 69 0 71 0;
#X connect 70 0 65 0;
#X connect 71 0 67 0;
#X connect 73 0 62 1;
#X connect 74 0 24 0;
#X connect 75 0 74 0;
#X connect 75 0 131 0;
#X connect 76 0 74 0;
#X connect 77 0 78 0;
#X connect 78 0 79 0;
#X connect 79 0 86 0;
#X connect 80 0 81 0;
#X connect 81 0 99 0;
#X connect 82 0 83 0;
#X connect 83 0 84 0;
#X connect 84 0 63 0;
#X connect 84 0 63 1;
#X connect 85 0 80 1;
#X connect 86 0 80 0;
#X connect 87 0 96 0;
#X connect 88 0 94 0;
#X connect 89 0 90 0;
#X connect 91 0 92 0;
#X connect 92 0 93 0;
#X connect 93 0 63 0;
#X connect 93 0 63 1;
#X connect 94 0 89 0;
#X connect 95 0 89 1;
#X connect 96 0 88 0;
#X connect 97 0 56 0;
#X connect 98 0 91 0;
#X connect 99 0 82 0;
#X connect 100 0 101 1;
#X connect 101 0 58 0;
#X connect 102 0 100 0;
#X connect 103 0 73 1;
#X connect 104 0 108 0;
#X connect 104 1 125 0;
#X connect 108 0 116 0;
#X connect 109 0 130 0;
#X connect 111 0 112 0;
#X connect 112 0 113 0;
#X connect 113 0 114 0;
#X connect 114 0 115 0;
#X connect 115 0 110 0;
#X connect 116 0 117 0;
#X connect 117 0 118 0;
#X connect 118 0 119 0;
#X connect 119 0 110 1;
#X connect 120 0 121 0;
#X connect 121 0 122 0;
#X connect 122 0 123 0;
#X connect 123 0 110 1;
#X connect 124 0 120 0;
#X connect 125 0 126 0;
#X connect 126 0 127 0;
#X connect 127 0 128 0;
#X connect 128 0 129 0;
#X connect 129 0 110 0;
#X connect 130 0 104 0;
#X connect 131 0 74 0;
