#N canvas 817 23 616 855 12;
#X obj 481 294 f;
#X obj 569 292 f;
#X text 603 295 y;
#X text 512 294 x;
#X obj 801 299 -;
#X floatatom 746 277 5 0 0 0 - - -;
#X msg 728 247 0.4;
#X obj 801 256 bng 15 250 50 0 empty empty empty 17 7 0 10 -262144
-1 -1;
#X text 788 373 t_n = 0.4 - 6/(1+x_n^2+y_n^2);
#X obj 844 217 /;
#X floatatom 777 166 5 0 0 0 - - -;
#X msg 777 142 6;
#X obj 853 195 bng 15 250 50 0 empty empty empty 17 7 0 10 -262144
-1 -1;
#X obj 907 142 +;
#X obj 894 173 + 1;
#X obj 917 113 bng 15 250 50 0 empty empty empty 17 7 0 10 -262144
-1 -1;
#X floatatom 481 319 5 0 0 0 - - -;
#X floatatom 569 316 5 0 0 0 - - -;
#X floatatom 801 323 5 0 0 0 - - -;
#X obj 883 71 pow 2;
#X floatatom 883 95 5 0 0 0 - - -;
#X obj 948 48 pow 2;
#X floatatom 948 72 5 0 0 0 - - -;
#X obj 760 605 *;
#X obj 882 452 sin;
#X obj 946 452 cos;
#X obj 1014 537 *;
#X obj 947 478 bng 15 250 50 0 empty empty empty 17 7 0 10 -262144
-1 -1;
#X obj 882 481 bng 15 250 50 0 empty empty empty 17 7 0 10 -262144
-1 -1;
#X obj 796 537 *;
#X obj 843 537 *;
#X obj 975 538 *;
#X obj 996 624 *;
#X obj 760 570 -;
#X obj 902 550 bng 15 250 50 0 empty empty empty 17 7 0 10 -262144
-1 -1;
#X obj 996 589 +;
#X obj 986 564 bng 15 250 50 0 empty empty empty 17 7 0 10 -262144
-1 -1;
#X obj 760 629 + 1;
#X floatatom 760 653 5 0 0 0 - - -;
#X floatatom 996 648 5 0 0 0 - - -;
#X obj 481 351 s \$0-x_n;
#X obj 620 353 s \$0-y_n;
#X obj 499 241 r \$0-x_n_1;
#X obj 587 241 r \$0-y_n_1;
#X obj 369 175 r tick;
#X obj 429 352 outlet;
#X obj 560 354 outlet;
#X obj 881 24 r \$0-x_n;
#X obj 948 23 r \$0-y_n;
#X obj 801 346 s \$0-t_n;
#X obj 817 453 r \$0-x_n;
#X obj 916 421 r \$0-t_n;
#X obj 1002 454 r \$0-y_n;
#X obj 660 445 inlet;
#X obj 760 681 s \$0-x_n_1;
#X obj 996 682 s \$0-y_n_1;
#X obj 484 120 r start-x;
#X obj 582 129 r start-y;
#X obj 739 98 loadbang;
#X connect 0 0 16 0;
#X connect 1 0 17 0;
#X connect 4 0 18 0;
#X connect 5 0 4 0;
#X connect 6 0 5 0;
#X connect 7 0 4 0;
#X connect 9 0 7 0;
#X connect 9 0 4 1;
#X connect 10 0 9 0;
#X connect 11 0 10 0;
#X connect 12 0 9 0;
#X connect 13 0 14 0;
#X connect 14 0 9 1;
#X connect 14 0 12 0;
#X connect 15 0 13 0;
#X connect 16 0 40 0;
#X connect 16 0 45 0;
#X connect 17 0 41 0;
#X connect 17 0 46 0;
#X connect 18 0 49 0;
#X connect 19 0 20 0;
#X connect 20 0 13 0;
#X connect 21 0 22 0;
#X connect 22 0 15 0;
#X connect 22 0 13 1;
#X connect 23 0 37 0;
#X connect 24 0 28 0;
#X connect 24 0 29 1;
#X connect 24 0 31 1;
#X connect 25 0 27 0;
#X connect 25 0 30 1;
#X connect 25 0 26 1;
#X connect 26 0 35 1;
#X connect 26 0 36 0;
#X connect 27 0 26 0;
#X connect 27 0 30 0;
#X connect 28 0 29 0;
#X connect 28 0 31 0;
#X connect 29 0 35 0;
#X connect 30 0 33 0;
#X connect 31 0 33 1;
#X connect 31 0 34 0;
#X connect 32 0 39 0;
#X connect 33 0 23 0;
#X connect 34 0 33 0;
#X connect 35 0 32 0;
#X connect 36 0 35 0;
#X connect 37 0 38 0;
#X connect 38 0 54 0;
#X connect 39 0 55 0;
#X connect 42 0 0 1;
#X connect 43 0 1 1;
#X connect 44 0 0 0;
#X connect 44 0 1 0;
#X connect 47 0 19 0;
#X connect 48 0 21 0;
#X connect 50 0 29 0;
#X connect 50 0 30 0;
#X connect 51 0 24 0;
#X connect 51 0 25 0;
#X connect 52 0 26 0;
#X connect 52 0 31 0;
#X connect 53 0 23 1;
#X connect 53 0 32 1;
#X connect 56 0 0 0;
#X connect 57 0 1 0;
#X connect 58 0 11 0;
#X connect 58 0 6 0;
