#N canvas 0 23 1440 855 12;
#X obj 170 50 adc~ 1;
#X obj 160 454 dac~;
#X obj 627 65 vsl 15 128 0 1 0 0 dry_a empty Dry_amp 0 -9 0 10 -262144
-1 -1 7900 1;
#X obj 170 74 s~ dry_m;
#X obj 168 273 +~;
#X obj 650 73 vu 15 120 dry_vu empty -1 -8 0 10 -66577 -1 1 0;
#X msg 233 340 open redhook-jonah-patch-01.wav;
#X msg 235 365 start;
#X msg 287 366 stop;
#X obj 237 460 writesf~ 8, f 60;
#X obj 298 273 +~;
#X obj 167 217 channel-strip dry;
#X obj 298 217 channel-strip fx1;
#X obj 429 273 +~;
#X obj 559 273 +~;
#X obj 428 217 channel-strip fx2;
#X obj 559 217 channel-strip fx3;
#X obj 295 404 r~ dry;
#X obj 355 404 r~ fx1;
#X obj 415 404 r~ fx2;
#X obj 475 404 r~ fx3;
#X obj 535 404 r~ fx4;
#X obj 595 404 r~ fx5;
#X obj 655 404 r~ fx6;
#X obj 690 273 +~;
#X obj 820 273 +~;
#X obj 951 273 +~;
#X obj 950 217 channel-strip fx6;
#X obj 820 217 channel-strip fx5;
#X obj 689 217 channel-strip fx4;
#X obj 697 65 vsl 15 128 0 1 0 0 fx1_a empty FX1_amp 0 -9 0 10 -262144
-1 -1 0 1;
#X obj 720 73 vu 15 120 fx1_vu empty -1 -8 0 10 -66577 -1 1 0;
#X obj 767 65 vsl 15 128 0 1 0 0 fx2_a empty FX2_Amp 0 -9 0 10 -262144
-1 -1 0 1;
#X obj 790 73 vu 15 120 fx2_vu empty -1 -8 0 10 -66577 -1 1 0;
#X obj 837 65 vsl 15 128 0 1 0 0 fx3_a empty FX3_amp 0 -9 0 10 -262144
-1 -1 0 1;
#X obj 860 73 vu 15 120 fx3_vu empty -1 -8 0 10 -66577 -1 1 0;
#X obj 907 65 vsl 15 128 0 1 0 0 fx4_a empty FX4_amp 0 -9 0 10 -262144
-1 -1 0 1;
#X obj 930 73 vu 15 120 fx4_vu empty -1 -8 0 10 -66577 -1 1 0;
#X obj 977 65 vsl 15 128 0 1 0 0 fx5_a empty FX5_amp 0 -9 0 10 -262144
-1 -1 0 1;
#X obj 1000 73 vu 15 120 fx5_vu empty -1 -8 0 10 -66577 -1 1 0;
#X obj 1047 65 vsl 15 128 0 1 0 0 fx6_a empty FX6_amp 0 -9 0 10 -262144
-1 -1 0 1;
#X obj 1070 73 vu 15 120 fx6_vu empty -1 -8 0 10 -66577 -1 1 0;
#X connect 0 0 3 0;
#X connect 4 0 1 1;
#X connect 4 0 1 0;
#X connect 4 0 9 0;
#X connect 6 0 9 0;
#X connect 7 0 9 0;
#X connect 8 0 9 0;
#X connect 10 0 4 1;
#X connect 11 0 4 0;
#X connect 12 0 10 0;
#X connect 13 0 10 1;
#X connect 14 0 13 1;
#X connect 15 0 13 0;
#X connect 16 0 14 0;
#X connect 17 0 9 1;
#X connect 18 0 9 2;
#X connect 19 0 9 3;
#X connect 20 0 9 4;
#X connect 21 0 9 5;
#X connect 22 0 9 6;
#X connect 23 0 9 7;
#X connect 24 0 14 1;
#X connect 25 0 24 1;
#X connect 26 0 25 1;
#X connect 27 0 26 0;
#X connect 28 0 25 0;
#X connect 29 0 24 0;
