#N canvas 166 23 1191 558 12;
#X obj 316 567 dac~;
#X obj 313 389 osc~ 0;
#X obj 313 363 mtof;
#X msg 79 81 stop, f 6;
#X msg 319 163 tempo 250 msec;
#X obj 163 202 metro;
#X msg 163 233 bang;
#X msg 169 129 bang, f 9;
#X msg 175 173 tempo 4 sec;
#X text 211 202 sequencer reset clock;
#X obj 299 142 hsl 128 15 0 1 0 0 empty empty Sequence_start -2 -8
0 10 -261234 -1 -1 1700 1;
#X obj 440 142 hsl 128 15 0 1 0 0 empty empty Sequence_start -2 -8
0 10 -261682 -1 -1 7200 1;
#X obj 454 389 osc~ 0;
#X obj 454 363 mtof;
#X obj 454 333 * 128;
#X msg 460 163 tempo 125 msec;
#X obj 583 390 osc~ 0;
#X obj 583 364 mtof;
#X obj 437 301 logsamp;
#X obj 566 302 logsamp;
#X obj 296 301 logsamp;
#X obj 582 142 hsl 128 15 0 1 0 0 empty empty Sequence_start -2 -8
0 10 -203904 -1 -1 1000 1;
#X msg 589 164 tempo 500 msec;
#X obj 583 334 * 64;
#X obj 313 333 * 128;
#X obj 727 390 osc~ 0;
#X obj 727 364 mtof;
#X obj 710 302 logsamp;
#X obj 726 143 hsl 128 15 0 1 0 0 empty empty Sequence_start -2 -8
0 10 -257985 -1 -1 7100 1;
#X obj 727 334 * 128;
#X obj 727 416 *~ 0.05;
#X obj 454 415 *~ 0;
#X obj 584 416 *~ 0;
#X obj 313 415 *~ 0;
#X msg 733 164 tempo 62.5 msec;
#X obj 60 402 vsl 15 128 0 1 0 0 empty empty empty 0 -9 0 10 -261234
-1 -1 12400 1;
#X obj 86 403 vsl 15 128 0 1 0 0 empty empty empty 0 -9 0 10 -261682
-1 -1 6500 1;
#X obj 110 401 vsl 15 128 0 1 0 0 empty empty empty 0 -9 0 10 -203904
-1 -1 10500 1;
#X obj 134 402 vsl 15 128 0 1 0 0 empty empty empty 0 -9 0 10 -257985
-1 -1 8500 1;
#X connect 1 0 33 0;
#X connect 2 0 1 0;
#X connect 3 0 5 0;
#X connect 3 0 18 2;
#X connect 3 0 20 2;
#X connect 3 0 19 2;
#X connect 3 0 27 2;
#X connect 4 0 20 2;
#X connect 5 0 6 0;
#X connect 6 0 4 0;
#X connect 6 0 15 0;
#X connect 6 0 22 0;
#X connect 6 0 34 0;
#X connect 6 0 18 1;
#X connect 6 0 20 1;
#X connect 6 0 19 1;
#X connect 6 0 27 1;
#X connect 7 0 8 0;
#X connect 7 0 5 0;
#X connect 8 0 5 0;
#X connect 10 0 20 0;
#X connect 11 0 18 0;
#X connect 12 0 31 0;
#X connect 13 0 12 0;
#X connect 14 0 13 0;
#X connect 15 0 18 2;
#X connect 16 0 32 0;
#X connect 17 0 16 0;
#X connect 18 0 14 0;
#X connect 19 0 23 0;
#X connect 20 0 24 0;
#X connect 21 0 19 0;
#X connect 22 0 19 2;
#X connect 23 0 17 0;
#X connect 24 0 2 0;
#X connect 25 0 30 0;
#X connect 26 0 25 0;
#X connect 27 0 29 0;
#X connect 28 0 27 0;
#X connect 29 0 26 0;
#X connect 30 0 0 0;
#X connect 30 0 0 1;
#X connect 31 0 0 0;
#X connect 31 0 0 1;
#X connect 32 0 0 0;
#X connect 32 0 0 1;
#X connect 33 0 0 0;
#X connect 33 0 0 1;
#X connect 34 0 27 2;
#X connect 35 0 33 1;
#X connect 36 0 31 1;
#X connect 37 0 32 1;
#X connect 38 0 30 1;
