#N canvas 785 224 712 616 12;
#X obj 186 249 f;
#X floatatom 150 293 5 0 0 0 - - -;
#X obj 259 280 * -1;
#X obj 259 309 + 1;
#X obj 262 502 *;
#X floatatom 256 344 5 0 0 0 - - -;
#X obj 357 277 * 3.6;
#X floatatom 338 347 5 0 0 0 - - -;
#X msg 283 411 bang;
#X obj 326 202 metro;
#X obj 115 350 outlet;
#X obj 324 87 inlet;
#X obj 194 87 inlet;
#X obj 200 192 f;
#X text 375 74 direct to metro \; eg. tempo;
#X text 168 63 start position;
#X obj 234 126 r seq_reset;
#X obj 346 162 r all_stop;
#X connect 0 0 2 0;
#X connect 0 0 1 0;
#X connect 0 0 6 0;
#X connect 1 0 10 0;
#X connect 2 0 3 0;
#X connect 3 0 5 0;
#X connect 4 0 0 1;
#X connect 5 0 4 0;
#X connect 6 0 7 0;
#X connect 7 0 4 1;
#X connect 7 0 8 0;
#X connect 8 0 4 0;
#X connect 9 0 0 0;
#X connect 11 0 9 0;
#X connect 12 0 13 1;
#X connect 13 0 0 0;
#X connect 16 0 13 0;
#X connect 16 0 9 0;
#X connect 17 0 9 0;
