#N canvas 0 23 856 634 12;
#X obj 190 88 adc~ 2;
#X obj 240 186 delwrite~ del1 200;
#X obj 238 157 +~;
#X obj 285 113 delread~ del1 20;
#X obj 285 136 *~ -0.2;
#X obj 16 103 delread~ del1 200;
#X obj 189 231 sigverb~;
#X obj 241 208 osc~ 0.125;
#X obj 427 66 osc~ 0.125;
#X obj 405 137 *~;
#X obj 285 160 +~;
#X obj 427 90 *~ 0.25;
#X obj 405 113 delread~ del1 30;
#X obj 189 254 *~ 0.5;
#X obj 279 231 sigverb~;
#X obj 279 254 *~ 0.5;
#X obj 331 208 osc~ 0.5;
#X obj 120 341 amp-fund~ 0.5;
#X obj 120 365 *~;
#X obj 330 324 vsl 15 128 0 2 0 0 empty empty empty 0 -9 0 10 -262144
-1 -1 12700 1;
#X obj 220 365 *~;
#X obj 220 341 amp-fund~ 0.25;
#X obj 190 112 hip~ 440;
#X obj 522 358 *~;
#X obj 585 260 tgl 15 0 empty empty empty 17 7 0 10 -262144 -1 -1 1
1;
#X obj 522 382 dac~;
#X obj 592 298 * -1;
#X obj 592 322 + 1;
#X obj 592 346 *~;
#X obj 592 370 *~ 3;
#X connect 0 0 2 0;
#X connect 0 0 6 0;
#X connect 0 0 22 0;
#X connect 0 0 23 0;
#X connect 0 0 28 0;
#X connect 2 0 1 0;
#X connect 2 0 14 0;
#X connect 2 0 17 0;
#X connect 3 0 4 0;
#X connect 4 0 10 0;
#X connect 5 0 23 0;
#X connect 6 0 13 0;
#X connect 7 0 6 1;
#X connect 8 0 11 0;
#X connect 9 0 10 1;
#X connect 10 0 2 1;
#X connect 11 0 9 1;
#X connect 12 0 9 0;
#X connect 13 0 23 0;
#X connect 14 0 15 0;
#X connect 15 0 23 0;
#X connect 16 0 14 1;
#X connect 17 0 18 0;
#X connect 18 0 23 0;
#X connect 19 0 18 1;
#X connect 19 0 20 1;
#X connect 20 0 23 0;
#X connect 21 0 20 0;
#X connect 22 0 23 0;
#X connect 23 0 25 0;
#X connect 24 0 23 1;
#X connect 24 0 26 0;
#X connect 26 0 27 0;
#X connect 27 0 28 1;
#X connect 28 0 29 0;
#X connect 29 0 25 0;
