#N canvas 0 23 688 518 12;
#X obj 156 364 delwrite~ \$0-buf0 \$1;
#X obj 159 189 delread~ \$0-buf0 \$1;
#X obj 310 189 delread~ \$0-buf1 \$2;
#X obj 307 364 delwrite~ \$0-buf1 \$2;
#X obj 165 44 inlet~;
#X obj 364 43 inlet~;
#X obj 279 43 inlet~;
#X text 164 23 signal;
#X text 281 21 f;
#X text 365 22 q;
#X obj 365 89 +~;
#X obj 330 89 /~;
#X obj 279 67 *~ -1;
#X obj 279 91 +~ 1;
#X text 393 91 fb;
#X obj 159 333 +~;
#X obj 237 225 -~;
#X obj 237 249 *~;
#X obj 199 250 -~;
#X obj 199 274 +~;
#X obj 199 298 *~;
#X obj 297 249 *~;
#X obj 297 273 +~;
#X obj 211 409 outlet~;
#X connect 1 0 15 0;
#X connect 1 0 16 0;
#X connect 1 0 18 1;
#X connect 2 0 16 1;
#X connect 2 0 22 1;
#X connect 4 0 18 0;
#X connect 5 0 10 0;
#X connect 5 0 11 0;
#X connect 6 0 12 0;
#X connect 6 0 20 1;
#X connect 6 0 21 1;
#X connect 10 0 17 1;
#X connect 11 0 10 1;
#X connect 12 0 13 0;
#X connect 13 0 11 1;
#X connect 15 0 0 0;
#X connect 16 0 17 0;
#X connect 16 0 21 0;
#X connect 17 0 19 1;
#X connect 18 0 19 0;
#X connect 19 0 20 0;
#X connect 20 0 15 1;
#X connect 21 0 22 0;
#X connect 22 0 3 0;
#X connect 22 0 23 0;
