#N canvas 0 23 1440 855 12;
#X obj 458 139 notein;
#X obj 300 453 mtof;
#X obj 300 476 osc~;
#X obj 307 608 dac~;
#X obj 394 466 / 128;
#X obj 301 563 +~;
#X obj 300 500 *~;
#X obj 174 155 vsl 15 128 1e-05 4 1 0 empty empty empty 0 -9 0 10 -262144
-1 -1 9700 1;
#X obj 300 524 *~;
#X msg 394 490 \$1 100;
#X obj 395 517 vline~;
#X obj 365 39 tgl 50 0 empty empty empty 17 7 0 10 -262144 -1 -1 0
1;
#X obj 336 222 &&;
#X obj 416 254 &&;
#X obj 434 231 == 0;
#X msg 416 302 0;
#X obj 609 231 t b;
#X obj 609 207 i;
#X floatatom 652 208 5 0 0 0 - - -;
#X obj 416 278 select 1;
#X msg 609 255 1;
#X obj 570 167 spigot;
#X obj 479 181 > 0;
#X obj 278 193 ==;
#X obj 240 223 spigot;
#X connect 0 0 21 0;
#X connect 0 0 23 0;
#X connect 0 1 14 0;
#X connect 0 1 22 0;
#X connect 0 1 24 0;
#X connect 1 0 2 0;
#X connect 2 0 6 0;
#X connect 4 0 9 0;
#X connect 5 0 3 0;
#X connect 5 0 3 1;
#X connect 6 0 8 0;
#X connect 7 0 8 1;
#X connect 8 0 5 0;
#X connect 9 0 10 0;
#X connect 10 0 6 1;
#X connect 11 0 12 1;
#X connect 12 0 13 0;
#X connect 13 0 19 0;
#X connect 14 0 13 1;
#X connect 15 0 11 0;
#X connect 16 0 20 0;
#X connect 17 0 16 0;
#X connect 17 0 18 0;
#X connect 17 0 23 1;
#X connect 18 0 1 0;
#X connect 19 0 15 0;
#X connect 20 0 11 0;
#X connect 21 0 17 0;
#X connect 22 0 21 1;
#X connect 23 0 12 0;
#X connect 23 0 24 1;
#X connect 24 0 4 0;
