#N canvas 0 23 1440 855 12;
#X obj 125 505 verbf~;
#X obj 125 790 dac~;
#X obj 125 704 expr~ tanh($v1);
#X floatatom 196 135 5 0 0 0 - - -;
#X obj 196 107 mtof;
#X obj 275 590 osc~ 0.01;
#X obj 125 680 *~;
#X obj 275 614 *~ 0.1;
#X obj 275 638 +~ 0.15;
#X obj 55 59 bng 15 250 50 0 empty empty empty 17 7 0 10 -262144 -1
-1;
#X floatatom 168 39 5 0 0 0 - - -;
#X obj 47 114 bng 15 250 50 0 empty empty empty 17 7 0 10 -262144 -1
-1;
#X obj 28 312 noise~;
#X obj 34 266 phasor~ 0.2;
#X obj 27 336 *~;
#X obj 27 360 *~ 0.02;
#X obj 21 508 vsl 15 128 0 1 0 0 empty empty empty 0 -9 0 10 -262144
-1 -1 1800 1;
#X obj 125 442 *~;
#X obj 875 117 mtof;
#X floatatom 847 49 5 0 0 0 - - -;
#X obj 887 25 random 10;
#X obj 887 49 select 0 1 2 3 4 5 6 7 8 9, f 58;
#X msg 1048 83 55;
#X msg 1088 83 57;
#X msg 1128 83 58;
#X msg 1169 83 59;
#X msg 1209 83 60;
#X msg 1249 83 64;
#X msg 887 83 48;
#X msg 927 83 50;
#X msg 967 83 52;
#X msg 1007 83 53;
#X obj 208 15 random 5;
#X obj 208 39 select 0 1 2 3 4, f 29;
#X msg 208 73 50;
#X msg 248 73 55;
#X msg 288 73 57;
#X obj 157 274 additive-voice~;
#X obj 287 274 additive-voice~;
#X obj 119 136 random 2;
#X obj 518 246 route;
#X obj 196 158 t b;
#X obj 119 184 route 0 1;
#X floatatom 282 206 5 0 0 0 - - -;
#X floatatom 282 229 5 0 0 0 - - -;
#X obj 119 160 pack i f;
#X msg 328 73 55;
#X msg 368 73 67;
#X obj 38 27 metro 2000;
#X text 266 108 TODO: make notes into pairs of numbers and use unpack
for chords!;
#X obj 80 9 bng 15 250 50 0 empty empty empty 17 7 0 10 -262144 -1
-1;
#X connect 0 0 6 0;
#X connect 2 0 1 0;
#X connect 2 0 1 1;
#X connect 3 0 41 0;
#X connect 3 0 45 1;
#X connect 4 0 3 0;
#X connect 5 0 7 0;
#X connect 6 0 2 0;
#X connect 7 0 8 0;
#X connect 8 0 6 1;
#X connect 9 0 32 0;
#X connect 11 0 48 0;
#X connect 12 0 14 0;
#X connect 13 0 14 1;
#X connect 14 0 15 0;
#X connect 16 0 17 1;
#X connect 17 0 0 0;
#X connect 20 0 19 0;
#X connect 20 0 21 0;
#X connect 21 0 28 0;
#X connect 21 1 29 0;
#X connect 21 2 30 0;
#X connect 21 3 31 0;
#X connect 21 4 22 0;
#X connect 21 5 23 0;
#X connect 21 6 24 0;
#X connect 21 7 25 0;
#X connect 21 8 26 0;
#X connect 21 9 27 0;
#X connect 22 0 18 0;
#X connect 23 0 18 0;
#X connect 24 0 18 0;
#X connect 25 0 18 0;
#X connect 26 0 18 0;
#X connect 27 0 18 0;
#X connect 28 0 18 0;
#X connect 29 0 18 0;
#X connect 30 0 18 0;
#X connect 31 0 18 0;
#X connect 32 0 10 0;
#X connect 32 0 33 0;
#X connect 33 0 34 0;
#X connect 33 1 35 0;
#X connect 33 2 36 0;
#X connect 33 3 46 0;
#X connect 33 4 47 0;
#X connect 34 0 4 0;
#X connect 35 0 4 0;
#X connect 36 0 4 0;
#X connect 37 0 17 0;
#X connect 38 0 17 0;
#X connect 39 0 45 0;
#X connect 41 0 39 0;
#X connect 42 0 37 0;
#X connect 42 0 44 0;
#X connect 42 1 38 0;
#X connect 42 1 43 0;
#X connect 45 0 42 0;
#X connect 46 0 4 0;
#X connect 47 0 4 0;
#X connect 48 0 9 0;
#X connect 48 0 13 1;
#X connect 50 0 48 0;
