#N canvas 1440 23 1920 1035 12;
#X obj 74 42 hsl 128 15 -2 2 0 0 empty empty empty -2 -8 0 10 -262144
-1 -1 2300 1;
#X obj 71 62 sig~;
#X obj 214 42 hsl 128 15 -2 2 0 0 empty empty empty -2 -8 0 10 -262144
-1 -1 10100 1;
#X obj 211 62 sig~;
#X obj 68 144 neuron~ 1;
#X obj 200 118 delread~ 1-potential;
#X obj 125 95 delread~ 2-potential;
#X obj 140 144 neuron~ 2;
#X obj 98 511 dac~;
#X obj 637 114 delread~ 1-potential;
#X obj 577 141 neuron~ 3;
#X obj 734 141 neuron~ 4;
#X obj 797 114 delread~ 2-potential;
#X obj 580 45 hsl 128 15 -2 2 0 0 empty empty empty -2 -8 0 10 -262144
-1 -1 9800 1;
#X obj 577 65 sig~;
#X obj 736 45 hsl 128 15 -2 2 0 0 empty empty empty -2 -8 0 10 -262144
-1 -1 8700 1;
#X obj 733 65 sig~;
#X obj 414 314 oscope~ 40;
#X obj 1027 113 delread~ 1-potential;
#X obj 1187 113 delread~ 2-potential;
#X obj 970 44 hsl 128 15 -2 2 0 0 empty empty empty -2 -8 0 10 -262144
-1 -1 10800 1;
#X obj 967 64 sig~;
#X obj 1126 44 hsl 128 15 -2 2 0 0 empty empty empty -2 -8 0 10 -262144
-1 -1 9200 1;
#X obj 1123 64 sig~;
#X obj 968 140 neuron~ 5;
#X obj 1124 140 neuron~ 6;
#X obj 1124 164 *~ -1;
#X obj 968 164 *~ -1;
#X obj 737 317 oscope~ 40;
#X obj 1168 314 delread~ 2-potential;
#X obj 1101 261 hsl 128 15 -2 2 0 0 empty empty empty -2 -8 0 10 -262144
-1 -1 10900 1;
#X obj 1098 281 sig~;
#X obj 1099 357 neuron~ 7;
#X obj 1099 381 *~ -1;
#X obj 1275 283 *~ 0.25;
#X obj 1477 267 vsl 15 128 0 1 0 0 empty empty empty 0 -9 0 10 -262144
-1 -1 9600 1;
#X obj 245 317 +~;
#X obj 1380 215 delread~ fb 10;
#X obj 1490 215 delread~ fb 20;
#X obj 1600 214 delread~ fb 35;
#X obj 245 341 delwrite~ fb 2000;
#X obj 1710 214 delread~ fb 2000;
#X obj 1448 153 *~ 20;
#X obj 1168 338 delread~ 1-potential;
#X obj 1448 129 osc~ 220;
#X obj 1518 129 osc~ 440;
#X obj 1588 129 osc~ 660;
#X obj 1658 129 osc~ 1100;
#X obj 1710 238 *~ 10;
#X obj 1738 129 osc~ 1100;
#X connect 0 0 1 0;
#X connect 1 0 4 0;
#X connect 2 0 3 0;
#X connect 3 0 7 0;
#X connect 4 0 8 0;
#X connect 4 0 17 0;
#X connect 4 0 36 0;
#X connect 5 0 7 1;
#X connect 6 0 4 1;
#X connect 7 0 8 1;
#X connect 7 0 28 0;
#X connect 7 0 36 1;
#X connect 9 0 10 1;
#X connect 10 0 4 1;
#X connect 10 0 7 1;
#X connect 11 0 7 1;
#X connect 11 0 4 1;
#X connect 12 0 11 1;
#X connect 13 0 14 0;
#X connect 14 0 10 0;
#X connect 15 0 16 0;
#X connect 16 0 11 0;
#X connect 18 0 24 1;
#X connect 19 0 25 1;
#X connect 20 0 21 0;
#X connect 21 0 24 0;
#X connect 22 0 23 0;
#X connect 23 0 25 0;
#X connect 24 0 11 1;
#X connect 24 0 27 0;
#X connect 25 0 10 1;
#X connect 25 0 26 0;
#X connect 26 0 11 1;
#X connect 27 0 10 1;
#X connect 29 0 32 1;
#X connect 29 0 43 0;
#X connect 30 0 31 0;
#X connect 31 0 32 0;
#X connect 32 0 33 0;
#X connect 32 0 7 0;
#X connect 33 0 4 0;
#X connect 34 0 32 1;
#X connect 35 0 34 1;
#X connect 36 0 40 0;
#X connect 37 0 34 0;
#X connect 38 0 34 0;
#X connect 39 0 34 0;
#X connect 41 0 48 0;
#X connect 42 0 34 0;
#X connect 43 0 32 1;
#X connect 44 0 42 0;
#X connect 45 0 42 0;
#X connect 46 0 42 0;
#X connect 47 0 42 0;
#X connect 48 0 34 0;
#X connect 49 0 42 0;
