#N canvas 1440 23 1920 1035 12;
#X obj 579 151 *~;
#X obj 597 119 inlet~;
#X text 651 118 feedback;
#X obj 597 175 inlet~;
#X text 650 175 input;
#X obj 579 205 +~;
#X obj 579 229 c-tanh~;
#X obj 579 297 outlet~;
#X obj 639 297 delwrite~ \$1-potential;
#X obj 437 119 delread~ \$1-potential;
#X obj 520 441 wrap~;
#X obj 579 253 clip~ -1 1;
#X connect 0 0 5 0;
#X connect 1 0 0 1;
#X connect 3 0 5 1;
#X connect 5 0 6 0;
#X connect 6 0 11 0;
#X connect 9 0 0 0;
#X connect 11 0 7 0;
#X connect 11 0 8 0;
