#N canvas 0 23 1440 855 12;
#X obj 232 56 adc~;
#X obj 232 110 s~ dryL;
#X obj 257 80 s~ dryR;
#X obj 936 383 r~ dryL;
#X obj 1036 461 dac~;
#X obj 1136 383 r~ dryR;
#X obj 936 407 *~;
#X obj 1136 407 *~;
#X obj 707 185 vsl 15 128 0 1 0 0 dryA empty empty 0 -9 0 10 -262144
-1 -1 10700 1;
#X obj 1027 383 r dryA;
#X obj 986 431 +~;
#X obj 1096 431 +~;
#X obj 259 436 r~ dryL;
#X obj 259 460 delwrite~ delDryL 500;
#X obj 419 436 r~ dryR;
#X obj 419 460 delwrite~ delDryR 500;
#X obj 346 580 delread~ delDryL 500;
#X obj 494 580 delread~ delDryR 500;
#X obj 346 604 s~ delL;
#X obj 494 604 s~ delR;
#X obj 727 185 vsl 15 128 0 1 0 0 delA empty empty 0 -9 0 10 -262144
-1 -1 900 1;
#X obj 936 327 *~;
#X obj 1136 327 *~;
#X obj 986 351 +~;
#X obj 1096 351 +~;
#X obj 1027 303 r delA;
#X obj 1136 303 r~ delR;
#X obj 936 303 r~ delL;
#X obj 739 507 r~ dryL;
#X obj 789 611 *~;
#X obj 739 531 +~;
#X obj 671 478 noise~;
#X obj 671 502 *~;
#X obj 671 526 *~;
#X obj 809 531 +~;
#X obj 747 185 vsl 15 128 0 1 0 0 prodA empty empty 0 -9 0 10 -262144
-1 -1 1100 1;
#X obj 936 247 *~;
#X obj 1136 247 *~;
#X obj 986 271 +~;
#X obj 1096 271 +~;
#X obj 1027 223 r prodA;
#X obj 789 635 s~ prodL;
#X obj 936 223 r~ prodL;
#X obj 809 507 r~ delL;
#X obj 999 611 *~;
#X obj 949 531 +~;
#X obj 881 478 noise~;
#X obj 881 502 *~;
#X obj 881 526 *~;
#X obj 1019 531 +~;
#X obj 949 507 r~ dryR;
#X obj 1019 507 r~ delR;
#X obj 999 635 s~ prodR;
#X obj 1136 223 r~ prodR;
#X obj 767 185 vsl 15 128 0 1 0 0 ambA empty empty 0 -9 0 10 -262144
-1 -1 1000 1;
#X obj 1268 576 +~;
#X obj 1268 626 +~;
#X obj 1268 676 +~;
#X obj 1268 700 *~;
#X obj 1268 724 -~ 1;
#X obj 908 782 +~;
#X obj 738 782 +~;
#X obj 603 653 +~;
#X obj 603 703 +~;
#X obj 603 753 +~;
#X obj 603 777 *~;
#X obj 603 801 -~ 1;
#X obj 936 167 *~;
#X obj 1136 167 *~;
#X obj 986 191 +~;
#X obj 1096 191 +~;
#X obj 1027 143 r ambA;
#X obj 936 143 r~ ambL;
#X obj 1136 143 r~ ambR;
#X obj 1268 773 s~ ambR;
#X obj 603 849 s~ ambL;
#X obj 671 550 *~ 0.07;
#X obj 881 550 *~ 0.07;
#X obj 675 360 hsl 128 15 0 0.7 0 0 ambFB empty empty -2 -8 0 10 -262144
-1 -1 7900 1;
#X obj 603 826 *~;
#X obj 499 774 r ambFB;
#X obj 1330 721 r ambFB;
#X obj 1268 749 *~;
#X obj 738 862 delwrite~ ambL 150;
#X obj 908 862 delwrite~ ambR 150;
#X obj 603 729 delread~ ambR 70;
#X obj 1268 652 delread~ ambL 70;
#X obj 675 380 hsl 128 15 0 4 0 0 ambIn empty empty -2 -8 0 10 -262144
-1 -1 7300 1;
#X obj 908 722 *~;
#X obj 738 722 *~;
#X obj 824 692 r ambIn;
#X obj 738 698 r~ dryL;
#X obj 908 698 r~ dryR;
#X obj 913 823 hip~ 50;
#X obj 813 730 noise~;
#X obj 738 746 +~;
#X obj 908 746 +~;
#X obj 813 754 *~ 0.2;
#X obj 738 829 hip~ 240;
#X obj 737 806 lop~ 240;
#X obj 913 800 lop~ 880;
#X obj 603 629 delread~ ambR 150;
#X obj 603 679 delread~ ambR 125;
#X obj 1268 602 delread~ ambL 125;
#X obj 1268 552 delread~ ambL 150;
#X obj 211 254 r~ dryL;
#X obj 211 278 +~;
#X obj 271 254 r~ dryR;
#X obj 936 87 *~;
#X obj 1136 87 *~;
#X obj 986 111 +~;
#X obj 1096 111 +~;
#X obj 211 333 s~ sigtrapL;
#X obj 936 63 r~ sigtrapL;
#X obj 1136 63 r~ sigtrapR;
#N canvas 283 287 772 454 sigtrap1 0;
#X obj 25 37 inlet~;
#X obj 227 160 route 0 1 2;
#X obj 227 184 unpack 0 0;
#X obj 227 302 *~;
#X obj 160 327 outlet~;
#X obj 227 111 +~;
#X obj 25 105 route 0;
#X obj 25 129 unpack 0 0;
#X obj 227 326 delwrite~ \$0-buff 50;
#X obj 92 37 delread~ \$0-buff 50;
#X floatatom 325 291 5 0 0 0 - - -;
#X obj 227 136 sigmund~ peaks -npeak 3;
#X obj 25 81 sigmund~ peaks -npeak 1;
#X obj 227 208 osc~ 20;
#X obj 158 295 *~;
#X obj 34 171 + 0.25;
#X obj 165 164 + 0.01;
#X connect 0 0 12 0;
#X connect 0 0 5 0;
#X connect 1 0 2 0;
#X connect 2 0 13 0;
#X connect 2 0 10 0;
#X connect 3 0 8 0;
#X connect 5 0 11 0;
#X connect 6 0 7 0;
#X connect 7 1 15 0;
#X connect 7 1 16 0;
#X connect 9 0 5 1;
#X connect 11 0 1 0;
#X connect 12 0 6 0;
#X connect 13 0 14 0;
#X connect 13 0 3 0;
#X connect 14 0 4 0;
#X connect 15 0 14 1;
#X connect 15 0 3 1;
#X connect 16 0 3 1;
#X restore 211 309 pd sigtrap1;
#X obj 331 254 r~ dryL;
#X obj 331 278 +~;
#X obj 391 254 r~ dryR;
#N canvas 283 287 772 454 sigtrap2 0;
#X obj 25 37 inlet~;
#X obj 227 160 route 0 1 2;
#X obj 227 184 unpack 0 0;
#X obj 227 302 *~;
#X obj 160 327 outlet~;
#X obj 227 111 +~;
#X obj 25 105 route 0;
#X obj 25 129 unpack 0 0;
#X floatatom 325 291 5 0 0 0 - - -;
#X obj 227 136 sigmund~ peaks -npeak 3;
#X obj 25 81 sigmund~ peaks -npeak 1;
#X obj 227 208 osc~ 20;
#X obj 158 295 *~;
#X obj 34 171 + 0.25;
#X obj 165 164 + 0.01;
#X obj 92 37 delread~ \$0-buff 125;
#X obj 227 326 delwrite~ \$0-buff 125;
#X connect 0 0 10 0;
#X connect 0 0 5 0;
#X connect 1 0 2 0;
#X connect 2 0 11 0;
#X connect 2 0 8 0;
#X connect 3 0 16 0;
#X connect 5 0 9 0;
#X connect 6 0 7 0;
#X connect 7 1 13 0;
#X connect 7 1 14 0;
#X connect 9 0 1 0;
#X connect 10 0 6 0;
#X connect 11 0 12 0;
#X connect 11 0 3 0;
#X connect 12 0 4 0;
#X connect 13 0 12 1;
#X connect 13 0 3 1;
#X connect 14 0 3 1;
#X connect 15 0 5 1;
#X restore 331 308 pd sigtrap2;
#X obj 331 332 s~ sigtrapR;
#X obj 787 185 vsl 15 128 0 1 0 0 sigfunA empty empty 0 -9 0 10 -262144
-1 -1 1500 1;
#X obj 1027 63 r sigfunA;
#N canvas 283 287 772 454 sigtrap2 0;
#X obj 25 37 inlet~;
#X obj 227 160 route 0 1 2;
#X obj 227 184 unpack 0 0;
#X obj 227 302 *~;
#X obj 160 327 outlet~;
#X obj 227 111 +~;
#X obj 25 105 route 0;
#X obj 25 129 unpack 0 0;
#X floatatom 325 291 5 0 0 0 - - -;
#X obj 227 136 sigmund~ peaks -npeak 3;
#X obj 25 81 sigmund~ peaks -npeak 1;
#X obj 227 208 osc~ 20;
#X obj 158 295 *~;
#X obj 34 171 + 0.25;
#X obj 165 164 + 0.01;
#X obj 92 37 delread~ \$0-buff 125;
#X obj 227 326 delwrite~ \$0-buff 125;
#X connect 0 0 10 0;
#X connect 0 0 5 0;
#X connect 1 0 2 0;
#X connect 2 0 11 0;
#X connect 2 0 8 0;
#X connect 3 0 16 0;
#X connect 5 0 9 0;
#X connect 6 0 7 0;
#X connect 7 1 13 0;
#X connect 7 1 14 0;
#X connect 9 0 1 0;
#X connect 10 0 6 0;
#X connect 11 0 12 0;
#X connect 11 0 3 0;
#X connect 12 0 4 0;
#X connect 13 0 12 1;
#X connect 13 0 3 1;
#X connect 14 0 3 1;
#X connect 15 0 5 1;
#X restore 1062 708 pd sigtrap2;
#N canvas 283 287 772 454 sigtrap2 0;
#X obj 25 37 inlet~;
#X obj 227 160 route 0 1 2;
#X obj 227 184 unpack 0 0;
#X obj 227 302 *~;
#X obj 160 327 outlet~;
#X obj 227 111 +~;
#X obj 25 105 route 0;
#X obj 25 129 unpack 0 0;
#X floatatom 325 291 5 0 0 0 - - -;
#X obj 227 136 sigmund~ peaks -npeak 3;
#X obj 25 81 sigmund~ peaks -npeak 1;
#X obj 227 208 osc~ 20;
#X obj 158 295 *~;
#X obj 34 171 + 0.25;
#X obj 165 164 + 0.01;
#X obj 92 37 delread~ \$0-buff 125;
#X obj 227 326 delwrite~ \$0-buff 125;
#X connect 0 0 10 0;
#X connect 0 0 5 0;
#X connect 1 0 2 0;
#X connect 2 0 11 0;
#X connect 2 0 8 0;
#X connect 3 0 16 0;
#X connect 5 0 9 0;
#X connect 6 0 7 0;
#X connect 7 1 13 0;
#X connect 7 1 14 0;
#X connect 9 0 1 0;
#X connect 10 0 6 0;
#X connect 11 0 12 0;
#X connect 11 0 3 0;
#X connect 12 0 4 0;
#X connect 13 0 12 1;
#X connect 13 0 3 1;
#X connect 14 0 3 1;
#X connect 15 0 5 1;
#X restore 513 727 pd sigtrap2;
#X obj 1201 456 writesf~ 2;
#X msg 1256 369 open recording.wav;
#X msg 1256 393 start;
#X msg 1256 417 stop;
#X connect 0 0 1 0;
#X connect 0 1 2 0;
#X connect 3 0 6 0;
#X connect 5 0 7 0;
#X connect 6 0 10 0;
#X connect 7 0 11 0;
#X connect 9 0 6 1;
#X connect 9 0 7 1;
#X connect 10 0 4 0;
#X connect 10 0 125 0;
#X connect 11 0 4 1;
#X connect 11 0 125 1;
#X connect 12 0 13 0;
#X connect 14 0 15 0;
#X connect 16 0 18 0;
#X connect 17 0 19 0;
#X connect 21 0 23 0;
#X connect 22 0 24 0;
#X connect 23 0 10 1;
#X connect 24 0 11 1;
#X connect 25 0 21 1;
#X connect 25 0 22 1;
#X connect 26 0 22 0;
#X connect 27 0 21 0;
#X connect 28 0 30 0;
#X connect 29 0 41 0;
#X connect 30 0 29 0;
#X connect 31 0 32 0;
#X connect 31 0 32 1;
#X connect 31 0 33 1;
#X connect 32 0 33 0;
#X connect 33 0 76 0;
#X connect 34 0 29 1;
#X connect 36 0 38 0;
#X connect 37 0 39 0;
#X connect 38 0 23 1;
#X connect 39 0 24 1;
#X connect 40 0 36 1;
#X connect 40 0 37 1;
#X connect 42 0 36 0;
#X connect 43 0 34 0;
#X connect 44 0 52 0;
#X connect 45 0 44 0;
#X connect 46 0 47 0;
#X connect 46 0 47 1;
#X connect 46 0 48 1;
#X connect 47 0 48 0;
#X connect 48 0 77 0;
#X connect 49 0 44 1;
#X connect 50 0 45 0;
#X connect 51 0 49 0;
#X connect 53 0 37 0;
#X connect 55 0 56 1;
#X connect 56 0 57 1;
#X connect 57 0 58 0;
#X connect 57 0 58 1;
#X connect 58 0 59 0;
#X connect 59 0 82 0;
#X connect 60 0 100 0;
#X connect 61 0 99 0;
#X connect 62 0 63 1;
#X connect 63 0 64 1;
#X connect 64 0 65 0;
#X connect 64 0 65 1;
#X connect 65 0 66 0;
#X connect 66 0 79 0;
#X connect 67 0 69 0;
#X connect 68 0 70 0;
#X connect 69 0 38 1;
#X connect 70 0 39 1;
#X connect 71 0 67 1;
#X connect 71 0 68 1;
#X connect 72 0 67 0;
#X connect 73 0 68 0;
#X connect 76 0 30 1;
#X connect 76 0 34 1;
#X connect 77 0 45 1;
#X connect 77 0 49 1;
#X connect 79 0 75 0;
#X connect 79 0 124 0;
#X connect 80 0 79 1;
#X connect 81 0 82 1;
#X connect 82 0 74 0;
#X connect 82 0 123 0;
#X connect 85 0 64 0;
#X connect 86 0 57 0;
#X connect 88 0 96 0;
#X connect 89 0 95 0;
#X connect 90 0 88 1;
#X connect 90 0 89 1;
#X connect 91 0 89 0;
#X connect 92 0 88 0;
#X connect 93 0 84 0;
#X connect 94 0 97 0;
#X connect 95 0 61 0;
#X connect 96 0 60 0;
#X connect 97 0 95 1;
#X connect 97 0 96 1;
#X connect 98 0 83 0;
#X connect 99 0 98 0;
#X connect 100 0 93 0;
#X connect 101 0 62 0;
#X connect 102 0 63 0;
#X connect 103 0 56 0;
#X connect 104 0 55 0;
#X connect 105 0 106 0;
#X connect 106 0 115 0;
#X connect 107 0 106 1;
#X connect 108 0 110 0;
#X connect 109 0 111 0;
#X connect 110 0 69 1;
#X connect 111 0 70 1;
#X connect 113 0 108 0;
#X connect 114 0 109 0;
#X connect 115 0 112 0;
#X connect 116 0 117 0;
#X connect 117 0 119 0;
#X connect 118 0 117 1;
#X connect 119 0 120 0;
#X connect 122 0 108 1;
#X connect 122 0 109 1;
#X connect 123 0 60 1;
#X connect 124 0 61 1;
#X connect 126 0 125 0;
#X connect 127 0 125 0;
#X connect 128 0 125 0;
