#N canvas 0 23 457 398 12;
#X obj 64 57 inlet~;
#X obj 64 81 tabwrite~ \$0-oscope;
#N canvas 0 22 450 278 (subpatch) 0;
#X array \$0-oscope 250 float 4;
#X coords 0 1 249 -1 200 140 1;
#X restore 80 120 graph;
#X msg 80 296 resize \$1;
#X obj 80 320 s \$0-oscope;
#X obj 83 267 hsl 128 15 44 4400 1 0 empty empty empty -2 -8 0 10 -262144
-1 -1 0 1;
#X obj 249 8 loadbang;
#X obj 275 51 metro \$1;
#X connect 0 0 1 0;
#X connect 3 0 4 0;
#X connect 5 0 3 0;
#X connect 6 0 7 0;
#X connect 7 0 1 0;
#X coords 0 -1 1 1 220 180 1 70 110;
