#N canvas 0 23 450 300 12;
#X obj 96 37 inlet~;
#X obj 156 37 inlet~;
#X obj 97 212 outlet~;
#X obj 173 214 outlet~;
#X obj 97 184 *~;
#X obj 173 184 *~;
#X obj 224 121 sqrt;
#X obj 325 122 sqrt;
#X obj 280 37 inlet;
#X obj 325 62 + 1;
#X obj 325 86 / 2;
#X obj 265 62 - 1;
#X obj 265 86 / -2;
#X text 219 15 control comes in [-1 \, 1];
#X connect 0 0 4 0;
#X connect 1 0 5 0;
#X connect 4 0 2 0;
#X connect 5 0 3 0;
#X connect 6 0 4 1;
#X connect 7 0 5 1;
#X connect 8 0 9 0;
#X connect 8 0 11 0;
#X connect 9 0 10 0;
#X connect 10 0 7 0;
#X connect 11 0 12 0;
#X connect 12 0 6 0;
