#N canvas 0 23 1440 855 12;
#X obj 518 253 dac~;
#X obj 17 25 vsl 15 128 0 1 0 0 dry_a empty Dry_amp 0 -9 0 10 -262144
-1 -1 9600 1;
#X obj 541 678 s~ dry_m;
#X obj 526 72 +~;
#X obj 40 33 vu 15 120 dry_vu empty -1 -8 0 10 -66577 -1 1 0;
#X msg 593 164 start;
#X msg 645 165 stop;
#X obj 595 259 writesf~ 8, f 60;
#X obj 656 72 +~;
#X obj 525 16 channel-strip dry;
#X obj 656 16 channel-strip fx1;
#X obj 787 72 +~;
#X obj 917 72 +~;
#X obj 786 16 channel-strip fx2;
#X obj 917 16 channel-strip fx3;
#X obj 1048 72 +~;
#X obj 1178 72 +~;
#X obj 1309 72 +~;
#X obj 1308 16 channel-strip fx6;
#X obj 1178 16 channel-strip fx5;
#X obj 1047 16 channel-strip fx4;
#X obj 87 25 vsl 15 128 0 1 0 0 fx1_a empty FX1_amp 0 -9 0 10 -262144
-1 -1 2900 1;
#X obj 110 33 vu 15 120 fx1_vu empty -1 -8 0 10 -66577 -1 1 0;
#X obj 157 25 vsl 15 128 0 1 0 0 fx2_a empty FX2_Amp 0 -9 0 10 -262144
-1 -1 800 1;
#X obj 180 33 vu 15 120 fx2_vu empty -1 -8 0 10 -66577 -1 1 0;
#X obj 227 25 vsl 15 128 0 1 0 0 fx3_a empty FX3_amp 0 -9 0 10 -262144
-1 -1 0 1;
#X obj 250 33 vu 15 120 fx3_vu empty -1 -8 0 10 -66577 -1 1 0;
#X obj 297 25 vsl 15 128 0 1 0 0 fx4_a empty FX4_amp 0 -9 0 10 -262144
-1 -1 500 1;
#X obj 320 33 vu 15 120 fx4_vu empty -1 -8 0 10 -66577 -1 1 0;
#X obj 367 25 vsl 15 128 0 1 0 0 fx5_a empty FX5_amp 0 -9 0 10 -262144
-1 -1 7000 1;
#X obj 390 33 vu 15 120 fx5_vu empty -1 -8 0 10 -66577 -1 1 0;
#X obj 437 25 vsl 15 128 0 1 0 0 fx6_a empty FX6_amp 0 -9 0 10 -262144
-1 -1 600 1;
#X obj 460 33 vu 15 120 fx6_vu empty -1 -8 0 10 -66577 -1 1 0;
#X obj 153 470 r~ dry_m;
#X obj 153 493 sigverb~ 200;
#X obj 153 577 s~ fx1_m;
#X obj 153 517 *~ 5;
#X obj 263 563 sigverb~ 200;
#X obj 263 677 s~ fx2_m;
#X obj 263 587 +~;
#X obj 363 587 +~;
#X obj 463 587 +~;
#X obj 563 587 +~;
#X obj 663 587 +~;
#X obj 363 563 sigverb~ 250;
#X obj 463 563 sigverb~ 300;
#X obj 563 563 sigverb~ 450;
#X obj 663 563 sigverb~ 1000;
#X obj 263 611 sigverb~ 10;
#X obj 263 651 *~ 10;
#X obj 263 706 r~ dry_m;
#X obj 263 730 delwrite~ mtd 1000;
#X obj 264 770 delread~ mtd 10;
#X obj 264 794 +~;
#X obj 384 794 +~;
#X obj 384 770 delread~ mtd 20;
#X obj 504 794 +~;
#X obj 504 770 delread~ mtd 30;
#X obj 624 794 +~;
#X obj 754 794 +~;
#X obj 754 770 delread~ mtd 1000;
#X obj 264 818 s~ fx3_m;
#X obj 624 770 delread~ mtd 500;
#X obj 263 470 +~;
#X obj 264 409 r~ dry_m;
#X obj 264 433 *~;
#X obj 342 369 hsl 128 15 0 1 0 0 empty empty empty -2 -8 0 10 -262144
-1 -1 12700 1;
#X obj 338 390 - 1;
#X obj 338 414 * -1;
#X obj 394 433 *~;
#X obj 394 409 r~ fx3_m;
#X obj 514 448 osc~ 2;
#X obj 574 448 osc~ 0.125;
#X obj 823 367 sigtrap~ 20;
#X obj 823 391 +~;
#X obj 823 439 delwrite~ st_del 1000;
#X obj 1130 349 delread~ st_del 20;
#X obj 1269 349 delread~ st_del 40;
#X obj 913 391 +~;
#X obj 912 368 sigtrap~ 80;
#X obj 823 343 +~;
#X obj 822 313 r~ dry_m;
#X obj 1130 372 +~;
#X obj 1130 421 s~ fx4_m;
#X obj 1269 373 +~;
#X obj 1410 373 +~;
#X obj 1549 373 +~;
#X obj 1410 349 delread~ st_del 60;
#X obj 1549 349 delread~ st_del 80;
#X obj 653 203 r~ dry_m;
#X obj 713 203 r~ fx1_m;
#X obj 773 203 r~ fx2_m;
#X obj 833 203 r~ fx3_m;
#X obj 893 203 r~ fx4_m;
#X obj 953 203 r~ fx5_m;
#X obj 1013 203 r~ fx6_m;
#X obj 1003 391 +~;
#X obj 1003 367 sigtrap~ 10;
#X obj 823 415 +~;
#X obj 736 345 vsl 15 128 0 1 0 0 empty empty empty 0 -9 0 10 -262144
-1 -1 3000 1;
#X obj 782 396 *~;
#X obj 1130 397 *~ 0.25;
#X obj 1115 588 +~;
#X obj 1115 622 s~ fx5_m;
#X obj 904 315 *~ 0.0125;
#X obj 1215 564 amp-fund~ 0.5;
#X obj 1115 564 amp-fund~ 4;
#X obj 1115 531 r~ dry_m;
#X obj 1347 531 comb~ 20;
#X obj 1218 498 phasor~ 2;
#X obj 1347 556 comb~ 40;
#X obj 1347 580 s~ fx6_m;
#X obj 1218 474 phasor~ 0.05;
#X obj 1348 507 r~ fx4_m;
#X obj 541 654 adc~ 2;
#X msg 591 139 open cole-ozone-04.wav;
#X connect 3 0 0 1;
#X connect 3 0 0 0;
#X connect 3 0 7 0;
#X connect 5 0 7 0;
#X connect 6 0 7 0;
#X connect 8 0 3 1;
#X connect 9 0 3 0;
#X connect 10 0 8 0;
#X connect 11 0 8 1;
#X connect 12 0 11 1;
#X connect 13 0 11 0;
#X connect 14 0 12 0;
#X connect 15 0 12 1;
#X connect 16 0 15 1;
#X connect 17 0 16 1;
#X connect 18 0 17 0;
#X connect 19 0 16 0;
#X connect 20 0 15 0;
#X connect 33 0 34 0;
#X connect 34 0 36 0;
#X connect 36 0 35 0;
#X connect 37 0 39 0;
#X connect 39 0 48 0;
#X connect 40 0 39 1;
#X connect 41 0 40 1;
#X connect 42 0 41 1;
#X connect 43 0 42 1;
#X connect 44 0 40 0;
#X connect 45 0 41 0;
#X connect 46 0 42 0;
#X connect 47 0 43 0;
#X connect 48 0 49 0;
#X connect 49 0 38 0;
#X connect 50 0 51 0;
#X connect 52 0 53 0;
#X connect 53 0 61 0;
#X connect 54 0 53 1;
#X connect 55 0 54 0;
#X connect 56 0 54 1;
#X connect 57 0 56 0;
#X connect 58 0 56 1;
#X connect 59 0 58 1;
#X connect 60 0 59 0;
#X connect 62 0 58 0;
#X connect 63 0 37 0;
#X connect 63 0 44 0;
#X connect 63 0 45 0;
#X connect 63 0 46 0;
#X connect 63 0 47 0;
#X connect 64 0 65 0;
#X connect 65 0 63 0;
#X connect 66 0 65 1;
#X connect 66 0 67 0;
#X connect 67 0 68 0;
#X connect 68 0 69 1;
#X connect 69 0 63 1;
#X connect 70 0 69 0;
#X connect 71 0 44 1;
#X connect 71 0 37 1;
#X connect 72 0 47 1;
#X connect 72 0 46 1;
#X connect 72 0 45 1;
#X connect 73 0 74 0;
#X connect 74 0 98 0;
#X connect 76 0 82 0;
#X connect 77 0 84 0;
#X connect 78 0 74 1;
#X connect 79 0 78 0;
#X connect 80 0 73 0;
#X connect 80 0 79 0;
#X connect 80 0 97 0;
#X connect 81 0 80 0;
#X connect 81 0 100 0;
#X connect 82 0 101 0;
#X connect 82 0 104 0;
#X connect 84 0 82 1;
#X connect 85 0 84 1;
#X connect 86 0 85 1;
#X connect 87 0 85 0;
#X connect 88 0 86 0;
#X connect 89 0 7 1;
#X connect 90 0 7 2;
#X connect 91 0 7 3;
#X connect 92 0 7 4;
#X connect 93 0 7 5;
#X connect 94 0 7 6;
#X connect 95 0 7 7;
#X connect 96 0 78 1;
#X connect 97 0 96 0;
#X connect 98 0 75 0;
#X connect 99 0 100 1;
#X connect 100 0 98 1;
#X connect 101 0 83 0;
#X connect 102 0 103 0;
#X connect 104 0 80 1;
#X connect 105 0 102 1;
#X connect 106 0 102 0;
#X connect 107 0 105 0;
#X connect 107 0 106 0;
#X connect 108 0 110 0;
#X connect 109 0 108 2;
#X connect 109 0 110 1;
#X connect 110 0 111 0;
#X connect 112 0 108 1;
#X connect 112 0 109 0;
#X connect 112 0 110 2;
#X connect 113 0 108 0;
#X connect 114 0 2 0;
#X connect 115 0 7 0;
