#N canvas 0 23 1184 701 12;
#X obj 42 116 delread4~ \$0-del;
#X obj 696 437 oscope~ 20;
#X obj 92 217 unpack f f;
#X obj 92 169 sigmund~ peaks;
#X obj 85 520 dac~;
#X obj 484 175 delwrite~ \$0-del 250;
#X floatatom 92 241 5 0 0 0 - - -;
#X obj 92 264 ftom;
#X floatatom 92 288 5 0 0 0 - - -;
#X obj 92 67 +~ 0.5;
#X obj 92 91 wrap~;
#X obj 190 124 delread4~ \$0-del;
#X msg 228 6 57;
#X obj 523 37 mtof;
#X msg 523 13 52;
#X obj 67 349 +~;
#X msg 578 19 59;
#X obj 92 44 phasor~ 2;
#X msg 71 14 2;
#X msg 118 14 4;
#X msg 27 18 1;
#X msg 16 46 0;
#X obj 67 372 /~ 2;
#X msg 159 15 5;
#X msg 182 44 10;
#X obj 319 457 oscope~ 20;
#X obj 67 457 +~;
#X obj 67 481 expr~ tanh($v1);
#X msg 168 80 0.125;
#X obj 489 96 +~;
#X obj 561 135 expr~ tanh($v1);
#X obj 688 41 readsf~;
#X obj 844 65 oscope~ 20;
#X obj 688 65 *~ 1;
#X obj 489 120 *~ 0.125;
#X msg 693 11 open samples/chords.wav \, 1;
#X obj 92 192 route 0;
#X obj 422 44 osc~ 220;
#X obj 190 100 *~ 250;
#X obj 30 75 *~ 250;
#X obj 372 97 *~ 0.25;
#X obj 66 433 +~;
#X obj 595 276 *~;
#X obj 734 266 noise~;
#X obj 460 309 vsl 15 128 0.005 4 1 0 empty empty empty 0 -9 0 10 -262144
-1 -1 9400 1;
#X obj 594 252 expr~ $v1 > 0.5;
#X obj 292 70 osc~ 55;
#X connect 0 0 3 0;
#X connect 0 0 15 0;
#X connect 2 0 6 0;
#X connect 3 0 36 0;
#X connect 6 0 7 0;
#X connect 7 0 8 0;
#X connect 8 0 13 0;
#X connect 9 0 10 0;
#X connect 10 0 38 0;
#X connect 11 0 3 0;
#X connect 11 0 15 1;
#X connect 12 0 13 0;
#X connect 13 0 37 0;
#X connect 14 0 13 0;
#X connect 15 0 22 0;
#X connect 16 0 13 0;
#X connect 17 0 9 0;
#X connect 17 0 39 0;
#X connect 17 0 45 0;
#X connect 18 0 17 0;
#X connect 19 0 17 0;
#X connect 20 0 17 0;
#X connect 21 0 17 0;
#X connect 22 0 26 1;
#X connect 22 0 34 0;
#X connect 22 0 41 0;
#X connect 23 0 17 0;
#X connect 24 0 17 0;
#X connect 26 0 27 0;
#X connect 27 0 4 0;
#X connect 27 0 4 1;
#X connect 27 0 29 1;
#X connect 27 0 25 0;
#X connect 28 0 17 0;
#X connect 29 0 34 0;
#X connect 30 0 5 0;
#X connect 30 0 4 1;
#X connect 30 0 4 0;
#X connect 31 0 32 0;
#X connect 31 0 33 0;
#X connect 33 0 30 0;
#X connect 34 0 30 0;
#X connect 35 0 31 0;
#X connect 36 0 2 0;
#X connect 37 0 40 0;
#X connect 38 0 11 0;
#X connect 39 0 0 0;
#X connect 40 0 1 0;
#X connect 40 0 29 0;
#X connect 40 0 41 1;
#X connect 41 0 4 0;
#X connect 41 0 4 1;
#X connect 41 0 26 0;
#X connect 42 0 26 1;
#X connect 43 0 42 1;
#X connect 44 0 34 1;
#X connect 45 0 42 0;
#X connect 46 0 29 0;
