#N canvas 0 23 1440 855 12;
#X obj 450 671 +~;
#X obj 430 764 dac~;
#X obj 615 658 delwrite~ del3 1000;
#X obj 143 595 *~ 0.25;
#X obj 273 595 *~ 0.25;
#X obj 199 637 +~;
#X obj 200 715 expr~ tanh($v1);
#X obj 804 215 noise~;
#X obj 804 239 *~;
#X obj 880 249 expr~ $v1 < 0.125;
#X obj 880 225 phasor~ 18;
#X obj 450 695 expr~ tanh($v1);
#X obj 659 77 readsf~ 2;
#X obj 136 439 unpack 0 0;
#X obj 246 439 unpack 0 0;
#X floatatom 246 463 5 0 0 0 - - -;
#X floatatom 136 463 5 0 0 0 - - -;
#X obj 273 570 *~ 1;
#X obj 143 570 *~ 1;
#X obj 301 506 +~;
#X obj 552 33 bng 15 250 50 0 empty empty empty 17 7 0 10 -262144 -1
-1;
#X obj 73 595 *~ 0.25;
#X obj 73 570 *~ 1;
#X obj 166 385 route 0 1 2;
#X obj 55 435 unpack 0 0;
#X floatatom 55 459 5 0 0 0 - - -;
#X obj 86 178 vsl 15 128 0.0001 4 1 0 empty empty empty 0 -9 0 10 -262144
-1 -1 9200 1;
#X obj 116 178 vsl 15 128 0.0001 4 1 0 empty empty empty 0 -9 0 10
-262144 -1 -1 5900 1;
#X obj 615 190 +~;
#X obj 639 602 *~ 0.25;
#X obj 273 546 bp~ 0 20;
#X obj 143 546 bp~ 0 20;
#X obj 73 546 bp~ 0 20;
#X obj 146 178 vsl 15 128 0.0001 4 1 0 empty empty empty 0 -9 0 10
-262144 -1 -1 2800 1;
#X obj 199 661 lop~ 440;
#X obj 241 228 hsl 128 15 0.1 40 1 0 empty empty empty -2 -8 0 10 -262144
-1 -1 12700 1;
#X obj 615 214 sigverb~ 40;
#X obj 696 169 sig~;
#X msg 696 142 0.5;
#X obj 688 429 vsl 15 128 0.0001 4 1 0 empty empty empty 0 -9 0 10
-262144 -1 -1 0 1;
#X msg 646 36 open samples/morin_khuur.wav \, 1;
#X obj 200 739 env~;
#X obj 200 763 - 100;
#X obj 913 639 vu 15 120 empty empty -1 -8 0 10 -66577 -1 1 0;
#X obj 199 691 *~ 30;
#X obj 545 214 hip~ 880;
#X obj 804 263 *~ 1;
#X obj 828 376 tgl 15 0 empty empty empty 17 7 0 10 -262144 -1 -1 0
1;
#X obj 640 783 writesf~ 1;
#X msg 727 704 start;
#X msg 795 696 stop;
#X obj 167 361 sigmund~ peaks -npeak 3 -npts 4096 -hop 12000;
#X obj 426 527 expr~ tanh($v1);
#X obj 496 358 delread~ del3 50;
#X obj 489 438 delread~ del3 113;
#X obj 426 551 *~ 0.625;
#X obj 984 386 oscope~ 20;
#X obj 804 287 *~ 1;
#X obj 496 397 delread~ del3 230;
#X obj 496 378 delread~ del3 320;
#X obj 496 416 delread~ del3 590;
#X obj 610 83 adc~ 2;
#X obj 430 91 vsl 15 128 0.02 4 1 0 empty empty empty 0 -9 0 10 -262144
-1 -1 7900 1;
#X obj 430 227 *~;
#X msg 649 736 open recordings/resynth-cole-1.wav;
#X connect 0 0 11 0;
#X connect 3 0 5 0;
#X connect 4 0 5 0;
#X connect 5 0 34 0;
#X connect 6 0 0 0;
#X connect 6 0 41 0;
#X connect 7 0 8 0;
#X connect 8 0 46 0;
#X connect 9 0 8 1;
#X connect 10 0 9 0;
#X connect 11 0 1 1;
#X connect 11 0 1 0;
#X connect 11 0 48 0;
#X connect 11 0 56 0;
#X connect 12 0 28 0;
#X connect 12 1 28 1;
#X connect 12 2 50 0;
#X connect 13 0 16 0;
#X connect 13 0 31 1;
#X connect 14 0 15 0;
#X connect 14 0 30 1;
#X connect 17 0 4 0;
#X connect 18 0 3 0;
#X connect 19 0 30 0;
#X connect 19 0 31 0;
#X connect 19 0 32 0;
#X connect 19 0 52 0;
#X connect 20 0 40 0;
#X connect 20 0 49 0;
#X connect 21 0 5 0;
#X connect 22 0 21 0;
#X connect 23 0 24 0;
#X connect 23 1 13 0;
#X connect 23 2 14 0;
#X connect 24 0 25 0;
#X connect 25 0 32 1;
#X connect 26 0 21 1;
#X connect 27 0 3 1;
#X connect 28 0 36 0;
#X connect 28 0 2 0;
#X connect 28 0 45 0;
#X connect 28 0 63 0;
#X connect 29 0 2 0;
#X connect 29 0 45 0;
#X connect 30 0 17 0;
#X connect 31 0 18 0;
#X connect 32 0 22 0;
#X connect 33 0 4 1;
#X connect 34 0 44 0;
#X connect 35 0 32 2;
#X connect 35 0 31 2;
#X connect 35 0 30 2;
#X connect 36 0 0 1;
#X connect 37 0 36 1;
#X connect 38 0 37 0;
#X connect 39 0 29 1;
#X connect 40 0 12 0;
#X connect 41 0 42 0;
#X connect 42 0 43 0;
#X connect 44 0 6 0;
#X connect 44 0 0 1;
#X connect 45 0 51 0;
#X connect 46 0 57 0;
#X connect 47 0 46 1;
#X connect 49 0 48 0;
#X connect 50 0 48 0;
#X connect 51 0 23 0;
#X connect 52 0 55 0;
#X connect 53 0 19 1;
#X connect 54 0 19 1;
#X connect 55 0 29 0;
#X connect 57 0 19 1;
#X connect 58 0 19 0;
#X connect 59 0 19 0;
#X connect 60 0 19 1;
#X connect 61 0 28 0;
#X connect 61 0 28 1;
#X connect 62 0 63 1;
#X connect 63 0 0 0;
#X connect 64 0 48 0;
