#N canvas 1440 23 1920 1035 12;
#X obj 64 719 dac~;
#X obj 247 64 hsl 128 15 0 1 0 0 empty empty empty -2 -8 0 10 -262144
-1 -1 6300 1;
#X msg 244 84 1 \$1;
#X obj 75 117 *~;
#X obj 177 117 +~;
#X obj 177 325 +~;
#X obj 177 539 *~;
#X obj 165 563 env~;
#X obj 165 587 - 100;
#X obj 165 611 vu 15 120 empty empty -1 -8 0 10 -66577 -1 1 0;
#X obj 177 195 +~;
#X obj 244 108 -;
#X obj 628 592 oscope~ 40;
#X obj 378 592 oscope~ 40;
#X obj 104 534 +~;
#X obj 288 298 sapf~ 5 0.65;
#X obj 276 171 sapf~ 5 0.25;
#X obj 78 61 readsf~;
#X msg 46 13 open sample_for_noise.wav \, 1;
#X obj 177 171 sapf~ 20 0.35;
#X obj 177 298 sapf~ 10 0.2;
#X obj 367 171 sapf~ 15 0.55;
#X obj 466 171 sapf~ 25 0.03;
#X obj 498 298 sapf~ 15 0.65;
#X obj 387 298 sapf~ 12 0.25;
#X obj 176 219 expr~ tanh($v1);
#X obj 609 117 +~;
#X obj 610 195 +~;
#X obj 709 171 sapf~ 5 0.25;
#X obj 610 171 sapf~ 20 0.35;
#X obj 800 171 sapf~ 15 0.55;
#X obj 899 171 sapf~ 25 0.03;
#X obj 610 218 expr~ tanh($v1);
#X obj 1006 115 +~;
#X obj 1007 193 +~;
#X obj 1106 169 sapf~ 5 0.25;
#X obj 1007 169 sapf~ 20 0.35;
#X obj 1007 217 expr~ tanh($v1);
#X obj 177 273 +~;
#X obj 177 509 expr~ tanh($v1);
#X obj 1287 22 vsl 15 128 0.0001 10 1 0 empty empty empty 0 -9 0 10
-262144 -1 -1 9400 1;
#X obj 177 141 *~;
#X obj 609 141 *~;
#X obj 1006 139 *~;
#X obj 1049 334 c-tanh~;
#X obj 177 485 +~;
#X obj 288 458 sapf~ 5 0.65;
#X obj 177 458 sapf~ 10 0.2;
#X obj 498 458 sapf~ 15 0.65;
#X obj 387 458 sapf~ 12 0.25;
#X obj 177 393 +~;
#X obj 177 349 amp-fund~ 2;
#X obj 267 349 amp-fund~ 0.5;
#X obj 367 349 amp-fund~ 3;
#X obj 457 349 amp-fund~ 5;
#X obj 177 417 *~;
#X connect 1 0 2 0;
#X connect 1 0 3 1;
#X connect 2 0 11 0;
#X connect 3 0 14 0;
#X connect 4 0 41 0;
#X connect 5 0 51 0;
#X connect 5 0 52 0;
#X connect 5 0 53 0;
#X connect 5 0 54 0;
#X connect 5 0 50 0;
#X connect 6 0 14 1;
#X connect 7 0 8 0;
#X connect 8 0 9 0;
#X connect 10 0 25 0;
#X connect 11 0 6 1;
#X connect 14 0 0 0;
#X connect 14 0 0 1;
#X connect 15 0 5 1;
#X connect 16 0 10 1;
#X connect 17 0 3 0;
#X connect 17 0 4 0;
#X connect 17 0 13 0;
#X connect 17 1 18 0;
#X connect 18 0 17 0;
#X connect 19 0 10 0;
#X connect 20 0 5 0;
#X connect 21 0 10 1;
#X connect 22 0 10 1;
#X connect 23 0 5 1;
#X connect 24 0 5 0;
#X connect 25 0 38 0;
#X connect 25 0 26 1;
#X connect 26 0 42 0;
#X connect 27 0 32 0;
#X connect 28 0 27 1;
#X connect 29 0 27 0;
#X connect 30 0 27 1;
#X connect 31 0 27 1;
#X connect 32 0 33 1;
#X connect 32 0 38 1;
#X connect 33 0 43 0;
#X connect 34 0 37 0;
#X connect 35 0 34 1;
#X connect 36 0 34 0;
#X connect 37 0 38 1;
#X connect 38 0 20 0;
#X connect 38 0 15 0;
#X connect 38 0 24 0;
#X connect 38 0 23 0;
#X connect 39 0 6 0;
#X connect 39 0 12 0;
#X connect 40 0 43 1;
#X connect 40 0 42 1;
#X connect 40 0 41 1;
#X connect 40 0 55 1;
#X connect 41 0 19 0;
#X connect 41 0 26 0;
#X connect 42 0 33 0;
#X connect 42 0 29 0;
#X connect 43 0 36 0;
#X connect 45 0 39 0;
#X connect 46 0 45 1;
#X connect 47 0 45 0;
#X connect 48 0 45 1;
#X connect 49 0 45 0;
#X connect 50 0 55 0;
#X connect 51 0 50 1;
#X connect 52 0 50 1;
#X connect 53 0 50 1;
#X connect 54 0 50 1;
#X connect 55 0 47 0;
#X connect 55 0 46 0;
#X connect 55 0 49 0;
#X connect 55 0 48 0;
