#N canvas 0 23 1440 855 12;
#X obj 275 232 +~;
#X obj 275 466 rewav-gui;
#X obj 384 260 snapshot~;
#X obj 469 229 metro 10;
#X obj 470 202 loadbang;
#X obj 275 256 +~;
#X obj 122 285 clip~ -1 1;
#X obj 122 309 c-tanh~;
#X obj 277 368 sigtrap~ 40;
#X obj 277 422 +~;
#X obj 367 368 sigtrap~ 50;
#X obj 277 392 +~;
#X obj 275 304 +~;
#X obj 375 304 +~;
#X obj 457 370 sigverb~ 10;
#X obj 548 370 sigverb~ 10;
#X obj 367 392 +~;
#X obj 457 394 +~;
#X obj 547 394 +~;
#X obj 345 206 *~ -0.15;
#X obj 345 237 +~ 0.16;
#X obj 274 208 inlet~;
#X obj 275 646 outlet~;
#X obj 122 333 *~ 0.07;
#X obj 122 235 *~ 2.15;
#X obj 345 646 delwrite~ \$0-del 100;
#X obj 122 210 delread~ \$0-del 100;
#X obj 275 280 amp-fund~ \$1;
#X obj 375 280 amp-fund~ \$2;
#X obj 421 134 inlet;
#X obj 345 182 phasor~ 0.25;
#X connect 0 0 5 0;
#X connect 1 0 22 0;
#X connect 1 0 25 0;
#X connect 2 0 1 2;
#X connect 3 0 2 0;
#X connect 4 0 3 0;
#X connect 5 0 8 0;
#X connect 5 0 27 0;
#X connect 6 0 7 0;
#X connect 7 0 23 0;
#X connect 8 0 11 0;
#X connect 9 0 1 0;
#X connect 10 0 16 0;
#X connect 11 0 9 0;
#X connect 12 0 9 1;
#X connect 12 0 15 0;
#X connect 12 0 10 0;
#X connect 12 0 14 0;
#X connect 13 0 12 1;
#X connect 14 0 17 0;
#X connect 15 0 18 0;
#X connect 16 0 11 1;
#X connect 17 0 16 1;
#X connect 18 0 17 1;
#X connect 19 0 20 0;
#X connect 20 0 2 0;
#X connect 21 0 0 0;
#X connect 23 0 5 1;
#X connect 24 0 6 0;
#X connect 26 0 24 0;
#X connect 27 0 12 0;
#X connect 28 0 13 0;
#X connect 29 0 30 1;
#X connect 30 0 19 0;
