#N canvas 706 281 689 597 12;
#X obj 21 130 rewav~;
#X obj 207 116 vsl 15 128 0 1 0 0 empty empty Window -20 -9 0 10 -262144
-1 -1 479 1;
#X obj 156 119 vu 15 120 empty empty -1 -8 0 10 -66577 -1 1 0;
#X obj 126 116 vsl 15 128 0 2 0 0 empty empty Pre-gain 0 -9 0 10 -262144
-1 -1 5600 1;
#X obj 20 47 *~;
#X obj 70 71 env~;
#X obj 70 95 - 100;
#X obj 20 13 inlet~;
#X obj 21 154 *~;
#X obj 235 116 vsl 15 128 0 3 0 0 empty empty Makeup 0 -9 0 10 -262144
-1 -1 9200 1;
#X obj 31 178 env~;
#X obj 31 202 - 100;
#X obj 262 119 vu 15 120 empty empty -1 -8 0 10 -66577 -1 1 0;
#X obj 21 228 outlet~;
#X obj 120 14 inlet;
#X obj 178 14 inlet;
#X obj 257 21 inlet;
#X connect 0 0 8 0;
#X connect 1 0 0 1;
#X connect 3 0 4 1;
#X connect 4 0 0 0;
#X connect 4 0 5 0;
#X connect 5 0 6 0;
#X connect 6 0 2 1;
#X connect 7 0 4 0;
#X connect 8 0 10 0;
#X connect 8 0 13 0;
#X connect 9 0 8 1;
#X connect 10 0 11 0;
#X connect 11 0 12 1;
#X connect 14 0 3 0;
#X connect 15 0 1 0;
#X connect 16 0 9 0;
#X coords 0 -1 1 1 200 175 1 120 75;
