#N canvas 149 150 1440 855 12;
#N canvas 0 23 450 300 tanh_activ 0;
#X obj 108 56 inlet~;
#X text 158 95 b(-a*tanh(x) + x);
#X obj 48 80 c-tanh~;
#X obj 48 104 *~ -7.4;
#X obj 90 128 +~;
#X obj 90 152 /~ 3;
#X obj 90 176 outlet~;
#X connect 0 0 2 0;
#X connect 0 0 4 1;
#X connect 2 0 3 0;
#X connect 3 0 4 0;
#X connect 4 0 5 0;
#X connect 5 0 6 0;
#X restore 332 164 pd tanh_activ;
#X obj 332 125 inlet~;
#N canvas 0 23 450 300 tanh_activ 0;
#X obj 108 56 inlet~;
#X text 158 95 b(-a*tanh(x) + x);
#X obj 48 80 c-tanh~;
#X obj 48 104 *~ -7.4;
#X obj 90 128 +~;
#X obj 90 152 /~ 3;
#X obj 90 176 outlet~;
#X connect 0 0 2 0;
#X connect 0 0 4 1;
#X connect 2 0 3 0;
#X connect 3 0 4 0;
#X connect 4 0 5 0;
#X connect 5 0 6 0;
#X restore 332 194 pd tanh_activ;
#N canvas 0 23 450 300 tanh_activ 0;
#X obj 108 56 inlet~;
#X text 158 95 b(-a*tanh(x) + x);
#X obj 48 80 c-tanh~;
#X obj 48 104 *~ -7.4;
#X obj 90 128 +~;
#X obj 90 152 /~ 3;
#X obj 90 176 outlet~;
#X connect 0 0 2 0;
#X connect 0 0 4 1;
#X connect 2 0 3 0;
#X connect 3 0 4 0;
#X connect 4 0 5 0;
#X connect 5 0 6 0;
#X restore 332 224 pd tanh_activ;
#X obj 332 346 outlet~;
#X obj 497 125 inlet;
#X obj 332 248 /~ -7.4;
#X obj 332 292 clip~;
#X obj 332 316 /~;
#X obj 497 149 * -1;
#X connect 0 0 2 0;
#X connect 1 0 0 0;
#X connect 2 0 3 0;
#X connect 3 0 6 0;
#X connect 5 0 7 2;
#X connect 5 0 8 1;
#X connect 5 0 9 0;
#X connect 6 0 7 0;
#X connect 7 0 8 0;
#X connect 8 0 4 0;
#X connect 9 0 7 1;
