#N canvas 0 23 1440 855 12;
#X obj 10 29 +~;
#X obj 10 53 s~ mic_m;
#N canvas 0 22 450 278 (subpatch) 0;
#X array sample1 89600 float 2;
#X coords 0 1 89600 -1 200 40 1 0 0;
#X restore 790 321 graph;
#X obj 822 528 tabread~ sample1;
#X obj 305 793 dac~;
#X obj 821 473 phasor~ 0.5;
#X obj 744 577 +~;
#X obj 771 315 bng 15 250 50 0 empty empty empty 17 7 0 10 -262144
-1 -1;
#X obj 329 575 r~ mic_m;
#X obj 793 365 hsl 395 16 0 1 0 0 empty time_monitor empty -2 -8 0
10 -262144 -1 -1 23443 1;
#N canvas 0 22 450 278 (subpatch) 0;
#X array sample2 89600 float 2;
#X coords 0 1 89600 -1 200 40 1 0 0;
#X restore 790 261 graph;
#X obj 413 377 line;
#X obj 169 290 tgl 15 0 empty empty empty 17 7 0 10 -262144 -1 -1 1
1;
#X obj 771 332 tgl 15 0 sample1_record_t sample1_record_b empty 17
7 0 10 -262144 -258113 -1 0 1;
#X obj 388 196 spigot;
#X obj 770 255 bng 15 250 50 0 empty empty empty 17 7 0 10 -262144
-1 -1;
#X obj 770 272 tgl 15 0 sample2_record_t sample2_record_b empty 17
7 0 10 -262144 -258113 -1 0 1;
#X obj 961 473 phasor~ 0.5;
#X obj 822 602 +~;
#X obj 962 602 +~;
#X obj 962 528 tabread~ sample2;
#X msg 1059 445 0;
#X obj 790 384 hradio 25 1 0 16 empty beat empty 0 -8 0 10 -262144
-1 -1 9;
#X obj 223 397 metro 250;
#X obj 297 424 i;
#X obj 297 448 + 1;
#X msg 298 397 0;
#X floatatom 237 448 5 0 0 0 - - -;
#X obj 265 532 vline~;
#X obj 247 582 *~;
#X obj 308 753 +~;
#X obj 133 477 vline~;
#X obj 30 559 *~;
#X obj 247 606 +~;
#X obj 30 535 osc~ 220;
#X obj 247 630 *~;
#X obj 297 472 mod 16;
#X obj 65 344 metro 4000;
#X msg 413 351 0 \, 1 4000;
#N canvas 0 23 450 278 (subpatch) 0;
#X array sample3 179200 float 2;
#X coords 0 1 179200 -1 400 40 1 0 0;
#X restore 790 201 graph;
#X obj 771 195 bng 15 250 50 0 empty empty empty 17 7 0 10 -262144
-1 -1;
#X obj 771 212 tgl 15 0 sample3_record_t sample3_record_b empty 17
7 0 10 -262144 -258113 -1 0 1;
#X obj 1102 602 +~;
#X obj 1101 473 phasor~ 0.25;
#X obj 1102 528 tabread~ sample3;
#X obj 455 455 sigtrap~ 500;
#X obj 455 479 sigtrap~ 200;
#X obj 455 504 sigtrap~ 100;
#X obj 722 666 sigtrap~ 100;
#N canvas 0 23 1285 736 verb~ 0;
#X obj 106 170 +~;
#X obj 226 170 +~;
#X obj 346 170 +~;
#X obj 466 170 +~;
#X obj 346 146 ffc~ 30 0.5 0.5;
#X obj 226 146 ffc~ 40 0.5 0.5;
#X obj 106 146 ffc~ 20 0.5 0.5;
#X obj 466 146 ffc~ 25 0.5 0.5;
#X obj 106 194 sap~ 25 0.25 -0.25;
#X obj 106 218 sap~ 30 0.25 -0.25;
#X obj 142 55 inlet~;
#X obj 106 242 outlet~;
#X connect 0 0 8 0;
#X connect 1 0 0 1;
#X connect 2 0 1 1;
#X connect 3 0 2 1;
#X connect 4 0 2 0;
#X connect 5 0 1 0;
#X connect 6 0 0 0;
#X connect 7 0 3 0;
#X connect 8 0 9 0;
#X connect 9 0 11 0;
#X connect 10 0 6 0;
#X connect 10 0 5 0;
#X connect 10 0 4 0;
#X connect 10 0 7 0;
#X restore 722 691 pd verb~;
#X obj 832 635 +~;
#X obj 822 666 sigtrap~ 100;
#N canvas 0 23 1285 736 verb~ 0;
#X obj 106 170 +~;
#X obj 226 170 +~;
#X obj 346 170 +~;
#X obj 466 170 +~;
#X obj 346 146 ffc~ 30 0.5 0.5;
#X obj 226 146 ffc~ 40 0.5 0.5;
#X obj 106 146 ffc~ 20 0.5 0.5;
#X obj 466 146 ffc~ 25 0.5 0.5;
#X obj 106 194 sap~ 25 0.25 -0.25;
#X obj 106 218 sap~ 30 0.25 -0.25;
#X obj 142 55 inlet~;
#X obj 106 242 outlet~;
#X connect 0 0 8 0;
#X connect 1 0 0 1;
#X connect 2 0 1 1;
#X connect 3 0 2 1;
#X connect 4 0 2 0;
#X connect 5 0 1 0;
#X connect 6 0 0 0;
#X connect 7 0 3 0;
#X connect 8 0 9 0;
#X connect 9 0 11 0;
#X connect 10 0 6 0;
#X connect 10 0 5 0;
#X connect 10 0 4 0;
#X connect 10 0 7 0;
#X restore 822 691 pd verb~;
#X obj 822 715 +~;
#X obj 922 666 sigtrap~ 100;
#N canvas 0 23 1285 736 verb~ 0;
#X obj 106 170 +~;
#X obj 226 170 +~;
#X obj 346 170 +~;
#X obj 466 170 +~;
#X obj 346 146 ffc~ 30 0.5 0.5;
#X obj 226 146 ffc~ 40 0.5 0.5;
#X obj 106 146 ffc~ 20 0.5 0.5;
#X obj 466 146 ffc~ 25 0.5 0.5;
#X obj 106 194 sap~ 25 0.25 -0.25;
#X obj 106 218 sap~ 30 0.25 -0.25;
#X obj 142 55 inlet~;
#X obj 106 242 outlet~;
#X connect 0 0 8 0;
#X connect 1 0 0 1;
#X connect 2 0 1 1;
#X connect 3 0 2 1;
#X connect 4 0 2 0;
#X connect 5 0 1 0;
#X connect 6 0 0 0;
#X connect 7 0 3 0;
#X connect 8 0 9 0;
#X connect 9 0 11 0;
#X connect 10 0 6 0;
#X connect 10 0 5 0;
#X connect 10 0 4 0;
#X connect 10 0 7 0;
#X restore 922 691 pd verb~;
#X obj 922 715 +~;
#X obj 1022 666 sigtrap~ 100;
#N canvas 0 23 1285 736 verb~ 0;
#X obj 106 170 +~;
#X obj 226 170 +~;
#X obj 346 170 +~;
#X obj 466 170 +~;
#X obj 346 146 ffc~ 30 0.5 0.5;
#X obj 226 146 ffc~ 40 0.5 0.5;
#X obj 106 146 ffc~ 20 0.5 0.5;
#X obj 466 146 ffc~ 25 0.5 0.5;
#X obj 106 194 sap~ 25 0.25 -0.25;
#X obj 106 218 sap~ 30 0.25 -0.25;
#X obj 142 55 inlet~;
#X obj 106 242 outlet~;
#X connect 0 0 8 0;
#X connect 1 0 0 1;
#X connect 2 0 1 1;
#X connect 3 0 2 1;
#X connect 4 0 2 0;
#X connect 5 0 1 0;
#X connect 6 0 0 0;
#X connect 7 0 3 0;
#X connect 8 0 9 0;
#X connect 9 0 11 0;
#X connect 10 0 6 0;
#X connect 10 0 5 0;
#X connect 10 0 4 0;
#X connect 10 0 7 0;
#X restore 1022 691 pd verb~;
#X obj 1022 715 +~;
#X obj 722 739 *~ 0.01;
#X obj 1231 33 vsl 12 128 0 4 0 0 mic_a empty empty 0 -9 0 10 -262144
-1 -1 1100 1;
#X obj 329 623 *~;
#X obj 329 647 +~;
#X obj 1247 41 vu 15 120 mic_vu empty -1 -8 0 10 -66577 -1 0 0;
#X obj 329 671 env~;
#X obj 329 695 - 100;
#X obj 1281 33 vsl 12 128 0 1 0 0 tab_a empty empty 0 -9 0 10 -262144
-1 -1 2800 1;
#X obj 409 623 *~;
#X obj 409 647 +~;
#X obj 1297 41 vu 15 120 tab_vu empty -1 -8 0 10 -66577 -1 0 0;
#X obj 409 671 env~;
#X obj 409 695 - 100;
#X obj 1331 33 vsl 12 128 0 1 0 0 sig_chirp_a empty empty 0 -9 0 10
-262144 -1 -1 300 1;
#X obj 489 623 *~;
#X obj 489 647 +~;
#X obj 1347 41 vu 15 120 sig_chirp_vu empty -1 -8 0 10 -66577 -1 0
0;
#X obj 489 671 env~;
#X obj 489 695 - 100;
#X obj 1381 33 vsl 12 128 0 0.25 0 0 sig_chain_a empty empty 0 -9 0
10 -262144 -1 -1 1600 1;
#X obj 609 623 *~;
#X obj 609 647 +~;
#X obj 1397 41 vu 15 120 sig_chain_vu empty -1 -8 0 10 -66577 -1 0
0;
#X obj 609 671 env~;
#X obj 609 695 - 100;
#X obj 397 809 writesf~ 2;
#X msg 463 777 start;
#X msg 530 782 stop;
#X obj 62 592 tgl 15 0 empty empty empty 17 7 0 10 -262144 -1 -1 1
1;
#X obj 247 558 osc~ 800;
#N canvas 0 22 450 278 (subpatch) 0;
#X array sample4 179200 float 2;
#X coords 0 1 179200 -1 400 40 1 0 0;
#X restore 790 141 graph;
#X obj 260 43 r~ mic_m;
#X obj 771 135 bng 15 250 50 0 empty empty empty 17 7 0 10 -262144
-1 -1;
#X obj 771 152 tgl 15 0 sample4_record_t sample4_record_b empty 17
7 0 10 -262144 -258113 -1 0 1;
#X obj 1242 602 +~;
#X obj 1241 473 phasor~ 0.25;
#X obj 1242 528 tabread~ sample4;
#X obj 771 350 bng 15 250 50 0 sample1_clear_b empty empty 17 7 0 10
-262144 -1 -1;
#X obj 770 290 bng 15 250 50 0 sample2_clear_b empty empty 17 7 0 10
-262144 -1 -1;
#X obj 771 230 bng 15 250 50 0 sample3_clear_b empty empty 17 7 0 10
-262144 -1 -1;
#X obj 771 170 bng 15 250 50 0 sample4_clear_b empty empty 17 7 0 10
-262144 -1 -1;
#X obj 347 597 r mic_a;
#X obj 329 719 s mic_vu;
#X obj 409 719 s tab_vu;
#X obj 427 598 r tab_a;
#X obj 455 528 s~ sig_chirp_m;
#X obj 489 577 r~ sig_chirp_m;
#X obj 507 600 r sig_chirp_a;
#X obj 489 719 s sig_chirp_vu;
#X obj 722 763 s~ sig_chain_m;
#X obj 744 601 s~ tab_m;
#X obj 455 432 r~ tab_m;
#X obj 609 576 r~ sig_chain_m;
#X obj 627 599 r sig_chain_a;
#X obj 609 719 s sig_chain_vu;
#X obj 409 573 r~ tab_m;
#X obj 822 578 *~;
#X obj 962 578 *~;
#X obj 1102 578 *~;
#X obj 1242 578 *~;
#X obj 1260 553 r sample4_toggle;
#X obj 1120 553 r sample3_toggle;
#X obj 980 553 r sample2_toggle;
#X obj 840 553 r sample1_toggle;
#X obj 722 639 r~ mic_m;
#X obj 237 471 s beat;
#X obj 413 401 s time_monitor;
#X obj 65 368 s measure_b;
#X obj 412 326 r measure_b;
#X obj 89 425 r measure_b;
#X obj 1059 419 r measure_b;
#X text 1146 419 maintain phase;
#X obj 388 147 r measure_b;
#X obj 208 196 spigot;
#X obj 208 147 r measure_b;
#X obj 247 172 r sample2_record_t;
#X obj 218 220 r sample2_clear_b;
#X msg 208 245 \; sample2 const 0;
#X obj 208 290 s sample2_record_b;
#X obj 14 89 r sample1_record_b;
#X obj 154 89 r sample2_record_b;
#X obj 294 89 r sample3_record_b;
#X obj 434 89 r sample4_record_b;
#X obj 434 114 tabwrite~ sample4;
#X obj 294 114 tabwrite~ sample3;
#X obj 154 114 tabwrite~ sample2;
#X obj 14 114 tabwrite~ sample1;
#X obj 28 196 spigot;
#X obj 67 172 r sample1_record_t;
#X obj 28 290 s sample1_record_b;
#X obj 38 220 r sample1_clear_b;
#X obj 28 147 r measure_b;
#X msg 28 245 \; sample1 const 0;
#X msg 388 245 \; sample3 const 0;
#X obj 398 220 r sample3_clear_b;
#X obj 427 172 r sample3_record_t;
#X obj 388 290 s sample3_record_b;
#X obj 568 196 spigot;
#X obj 568 147 r measure_b;
#X msg 568 245 \; sample4 const 0;
#X obj 578 220 r sample4_clear_b;
#X obj 607 172 r sample4_record_t;
#X obj 568 290 s sample4_record_b;
#X obj 10 6 adc~;
#X msg 89 448 0 \, 1 10 \, 0 10 100;
#X msg 220 503 0 \, 1 3 \, 0 3 3;
#X obj 821 497 *~ 88200;
#X obj 1242 497 *~ 176400;
#X obj 1005 424 bng 15 250 50 0 empty empty empty 17 7 0 10 -262144
-1 -1;
#N canvas 0 22 450 278 (subpatch) 0;
#X array sample5 179200 float 2;
#X coords 0 1 179200 -1 400 40 1 0 0;
#X restore 790 81 graph;
#X obj 771 75 bng 15 250 50 0 empty empty empty 17 7 0 10 -262144 -1
-1;
#X obj 771 92 tgl 15 0 sample5_record_t sample5_record_b empty 17 7
0 10 -262144 -258113 -1 0 1;
#X obj 771 110 bng 15 250 50 0 sample5_clear_b empty empty 17 7 0 10
-262144 -1 -1;
#X obj 1382 602 +~;
#X obj 1381 473 phasor~ 0.25;
#X obj 1382 578 *~;
#X obj 1382 497 *~ 176400;
#X obj 1382 528 tabread~ sample5;
#X obj 1400 553 r sample5_toggle;
#X obj 574 89 r sample5_record_b;
#X obj 574 114 tabwrite~ sample5;
#X obj 568 376 spigot;
#X obj 568 327 r measure_b;
#X obj 607 352 r sample5_record_t;
#X obj 578 400 r sample5_clear_b;
#X msg 568 425 \; sample5 const 0;
#X obj 568 470 s sample5_record_b;
#X obj 1281 231 tgl 15 1 s5_m1_t reset_seq_t empty 17 7 0 10 -262144
-1 -1 1 1;
#X obj 1281 251 tgl 15 0 s4_m1_t reset_seq_t empty 17 7 0 10 -262144
-1 -1 1 1;
#X obj 1281 271 tgl 15 0 s3_m1_t reset_seq_t empty 17 7 0 10 -262144
-1 -1 1 1;
#X obj 1281 291 tgl 15 0 s2_m1_t reset_seq_t empty 17 7 0 10 -262144
-1 -1 1 1;
#X obj 1281 311 tgl 15 0 s1_m1_t reset_seq_t empty 17 7 0 10 -262144
-1 -1 1 1;
#X obj 1301 231 tgl 15 0 s5_m2_t reset_seq_t empty 17 7 0 10 -262144
-1 -1 1 1;
#X obj 1301 251 tgl 15 0 s4_m2_t reset_seq_t empty 17 7 0 10 -262144
-1 -1 1 1;
#X obj 1301 271 tgl 15 0 s3_m2_t reset_seq_t empty 17 7 0 10 -262144
-1 -1 1 1;
#X obj 1301 291 tgl 15 0 s2_m2_t reset_seq_t empty 17 7 0 10 -262144
-1 -1 1 1;
#X obj 1301 311 tgl 15 0 s1_m2_t reset_seq_t empty 17 7 0 10 -262144
-1 -1 1 1;
#X obj 1321 231 tgl 15 0 s5_m3_t reset_seq_t empty 17 7 0 10 -262144
-1 -1 1 1;
#X obj 1321 251 tgl 15 0 s4_m3_t reset_seq_t empty 17 7 0 10 -262144
-1 -1 1 1;
#X obj 1321 271 tgl 15 0 s3_m3_t reset_seq_t empty 17 7 0 10 -262144
-1 -1 1 1;
#X obj 1321 291 tgl 15 0 s2_m3_t reset_seq_t empty 17 7 0 10 -262144
-1 -1 1 1;
#X obj 1321 311 tgl 15 0 s1_m3_t reset_seq_t empty 17 7 0 10 -262144
-1 -1 1 1;
#X obj 1341 231 tgl 15 0 s5_m4_t reset_seq_t empty 17 7 0 10 -262144
-1 -1 1 1;
#X obj 1341 251 tgl 15 0 s4_m4_t reset_seq_t empty 17 7 0 10 -262144
-1 -1 1 1;
#X obj 1341 271 tgl 15 0 s3_m4_t reset_seq_t empty 17 7 0 10 -262144
-1 -1 1 1;
#X obj 1341 291 tgl 15 0 s2_m4_t reset_seq_t empty 17 7 0 10 -262144
-1 -1 1 1;
#X obj 1341 311 tgl 15 0 s1_m4_t reset_seq_t empty 17 7 0 10 -262144
-1 -1 1 1;
#X obj 165 349 spigot;
#X obj 165 373 s reset_b;
#X obj 1723 89 i;
#X obj 1723 113 + 1;
#X msg 1724 62 0;
#X floatatom 1636 114 5 0 0 0 - - -;
#X obj 1724 39 r reset_b;
#X obj 298 374 r reset_b;
#X obj 1723 137 mod 4;
#X obj 1760 62 r measure_b;
#X obj 1636 137 s measure_i;
#X obj 1284 211 hsl 70 15 1 4 0 0 empty measure_i empty -2 -8 0 10
-262144 -1 -1 0 1;
#X obj 2197 266 r measure_i;
#X obj 1270 420 i;
#X obj 1340 420 i;
#X obj 1410 420 i;
#X obj 1480 420 i;
#X obj 2229 322 select 1 2 3 4;
#X obj 1560 420 i;
#X obj 1630 420 i;
#X obj 1700 420 i;
#X obj 1770 420 i;
#X obj 1850 420 i;
#X obj 1920 420 i;
#X obj 1990 420 i;
#X obj 2060 420 i;
#X obj 2280 420 i;
#X obj 2210 420 i;
#X obj 2280 420 i;
#X obj 2350 420 i;
#X obj 2448 394 r s5_m1_t;
#X obj 2430 420 i;
#X obj 2500 420 i;
#X obj 2570 420 i;
#X obj 2430 444 s sample5_toggle;
#X obj 2518 394 r s5_m2_t;
#X obj 2588 394 r s5_m3_t;
#X obj 2640 420 i;
#X obj 2658 394 r s5_m4_t;
#X obj 1270 444 s sample1_toggle;
#X obj 1288 394 r s1_m1_t;
#X obj 1358 394 r s1_m2_t;
#X obj 1428 394 r s1_m3_t;
#X obj 1498 394 r s1_m4_t;
#X obj 1788 394 r s2_m4_t;
#X obj 1718 394 r s2_m3_t;
#X obj 1648 394 r s2_m2_t;
#X obj 1578 394 r s2_m1_t;
#X obj 1560 444 s sample2_toggle;
#X obj 1850 444 s sample3_toggle;
#X obj 1868 394 r s3_m1_t;
#X obj 1938 394 r s3_m2_t;
#X obj 2008 394 r s3_m3_t;
#X obj 2078 394 r s3_m4_t;
#X obj 2140 454 s sample4_toggle;
#X obj 2158 394 r s4_m1_t;
#X obj 2228 394 r s4_m2_t;
#X obj 2368 394 r s4_m4_t;
#X obj 2140 420 i;
#X msg 1379 188 0;
#X obj 165 323 t b a;
#X obj 1379 212 s reset_seq_t;
#X obj 962 497 *~ 88200;
#X obj 1102 497 *~ 176400;
#X obj 2298 394 r s4_m3_t;
#X floatatom 2277 462 5 0 0 0 - - -;
#X obj 105 667 vsl 15 128 0 3 0 0 empty empty empty 0 -9 0 10 -262144
-1 -1 0 1;
#X obj 247 654 *~;
#X msg 445 755 open sampler-rack-2021-07-11-02.wav;
#X connect 0 0 1 0;
#X connect 3 0 116 0;
#X connect 5 0 166 0;
#X connect 6 0 110 0;
#X connect 7 0 13 0;
#X connect 8 0 62 0;
#X connect 11 0 126 0;
#X connect 12 0 23 0;
#X connect 12 0 37 0;
#X connect 12 0 267 0;
#X connect 14 0 153 0;
#X connect 14 0 156 0;
#X connect 15 0 16 0;
#X connect 17 0 269 0;
#X connect 18 0 6 0;
#X connect 19 0 18 1;
#X connect 20 0 117 0;
#X connect 21 0 5 1;
#X connect 21 0 17 1;
#X connect 21 0 43 1;
#X connect 21 0 95 1;
#X connect 21 0 174 1;
#X connect 23 0 24 0;
#X connect 23 0 165 0;
#X connect 24 0 25 0;
#X connect 24 0 27 0;
#X connect 25 0 36 0;
#X connect 26 0 24 0;
#X connect 27 0 125 0;
#X connect 28 0 29 1;
#X connect 29 0 33 0;
#X connect 30 0 4 0;
#X connect 30 0 4 1;
#X connect 30 0 85 0;
#X connect 30 0 85 1;
#X connect 31 0 32 1;
#X connect 32 0 33 1;
#X connect 33 0 35 0;
#X connect 34 0 32 0;
#X connect 35 0 274 0;
#X connect 36 0 24 1;
#X connect 37 0 127 0;
#X connect 38 0 11 0;
#X connect 40 0 41 0;
#X connect 42 0 19 1;
#X connect 43 0 270 0;
#X connect 44 0 118 0;
#X connect 45 0 46 0;
#X connect 46 0 47 0;
#X connect 47 0 105 0;
#X connect 48 0 49 0;
#X connect 49 0 50 0;
#X connect 49 0 51 0;
#X connect 50 0 60 0;
#X connect 51 0 52 0;
#X connect 52 0 53 0;
#X connect 52 0 54 0;
#X connect 53 0 50 1;
#X connect 54 0 55 0;
#X connect 55 0 56 0;
#X connect 55 0 57 0;
#X connect 56 0 53 1;
#X connect 57 0 58 0;
#X connect 58 0 59 0;
#X connect 59 0 56 1;
#X connect 60 0 109 0;
#X connect 62 0 63 0;
#X connect 62 0 65 0;
#X connect 63 0 30 0;
#X connect 63 0 30 1;
#X connect 65 0 66 0;
#X connect 66 0 102 0;
#X connect 68 0 69 0;
#X connect 68 0 71 0;
#X connect 69 0 63 1;
#X connect 71 0 72 0;
#X connect 72 0 103 0;
#X connect 74 0 75 0;
#X connect 74 0 77 0;
#X connect 75 0 69 1;
#X connect 77 0 78 0;
#X connect 78 0 108 0;
#X connect 80 0 81 0;
#X connect 80 0 83 0;
#X connect 81 0 75 1;
#X connect 83 0 84 0;
#X connect 84 0 114 0;
#X connect 86 0 85 0;
#X connect 87 0 85 0;
#X connect 88 0 35 1;
#X connect 89 0 29 0;
#X connect 91 0 143 0;
#X connect 91 0 144 0;
#X connect 91 0 145 0;
#X connect 91 0 146 0;
#X connect 91 0 180 0;
#X connect 92 0 93 0;
#X connect 94 0 42 1;
#X connect 95 0 167 0;
#X connect 96 0 119 0;
#X connect 101 0 62 1;
#X connect 104 0 68 1;
#X connect 106 0 74 0;
#X connect 107 0 74 1;
#X connect 111 0 45 0;
#X connect 112 0 80 0;
#X connect 113 0 80 1;
#X connect 115 0 68 0;
#X connect 116 0 18 0;
#X connect 117 0 19 0;
#X connect 118 0 42 0;
#X connect 119 0 94 0;
#X connect 120 0 119 1;
#X connect 121 0 118 1;
#X connect 122 0 117 1;
#X connect 123 0 116 1;
#X connect 124 0 48 0;
#X connect 128 0 38 0;
#X connect 129 0 164 0;
#X connect 130 0 21 0;
#X connect 130 0 168 0;
#X connect 132 0 14 0;
#X connect 133 0 137 0;
#X connect 133 0 138 0;
#X connect 134 0 133 0;
#X connect 135 0 133 1;
#X connect 136 0 137 0;
#X connect 139 0 146 0;
#X connect 140 0 145 0;
#X connect 141 0 144 0;
#X connect 142 0 143 0;
#X connect 147 0 152 0;
#X connect 147 0 149 0;
#X connect 148 0 147 1;
#X connect 150 0 152 0;
#X connect 151 0 147 0;
#X connect 154 0 153 0;
#X connect 155 0 14 1;
#X connect 157 0 159 0;
#X connect 157 0 162 0;
#X connect 158 0 157 0;
#X connect 160 0 159 0;
#X connect 161 0 157 1;
#X connect 163 0 0 0;
#X connect 163 1 0 1;
#X connect 164 0 31 0;
#X connect 165 0 28 0;
#X connect 166 0 3 0;
#X connect 167 0 96 0;
#X connect 170 0 171 0;
#X connect 173 0 94 1;
#X connect 174 0 176 0;
#X connect 175 0 173 0;
#X connect 176 0 177 0;
#X connect 177 0 175 0;
#X connect 178 0 175 1;
#X connect 179 0 180 0;
#X connect 181 0 185 0;
#X connect 181 0 186 0;
#X connect 182 0 181 0;
#X connect 183 0 181 1;
#X connect 184 0 185 0;
#X connect 207 0 208 0;
#X connect 209 0 210 0;
#X connect 210 0 215 0;
#X connect 210 0 212 0;
#X connect 211 0 209 0;
#X connect 212 0 217 0;
#X connect 213 0 211 0;
#X connect 214 0 26 0;
#X connect 215 0 209 1;
#X connect 216 0 209 0;
#X connect 219 0 224 0;
#X connect 220 0 246 0;
#X connect 221 0 246 0;
#X connect 222 0 246 0;
#X connect 223 0 246 0;
#X connect 224 0 220 0;
#X connect 224 0 225 0;
#X connect 224 0 229 0;
#X connect 224 0 265 0;
#X connect 224 0 238 0;
#X connect 224 1 221 0;
#X connect 224 1 226 0;
#X connect 224 1 230 0;
#X connect 224 1 234 0;
#X connect 224 1 239 0;
#X connect 224 2 222 0;
#X connect 224 2 227 0;
#X connect 224 2 231 0;
#X connect 224 2 233 0;
#X connect 224 2 240 0;
#X connect 224 3 223 0;
#X connect 224 3 228 0;
#X connect 224 3 232 0;
#X connect 224 3 236 0;
#X connect 224 3 244 0;
#X connect 225 0 255 0;
#X connect 226 0 255 0;
#X connect 227 0 255 0;
#X connect 228 0 255 0;
#X connect 229 0 256 0;
#X connect 230 0 256 0;
#X connect 231 0 256 0;
#X connect 232 0 256 0;
#X connect 233 0 261 0;
#X connect 233 0 272 0;
#X connect 234 0 261 0;
#X connect 235 0 261 0;
#X connect 236 0 261 0;
#X connect 237 0 238 1;
#X connect 238 0 241 0;
#X connect 239 0 241 0;
#X connect 240 0 241 0;
#X connect 242 0 239 1;
#X connect 243 0 240 1;
#X connect 244 0 241 0;
#X connect 245 0 244 1;
#X connect 247 0 220 1;
#X connect 248 0 221 1;
#X connect 249 0 222 1;
#X connect 250 0 223 1;
#X connect 251 0 228 1;
#X connect 252 0 227 1;
#X connect 253 0 226 1;
#X connect 254 0 225 1;
#X connect 257 0 229 1;
#X connect 258 0 230 1;
#X connect 259 0 231 1;
#X connect 260 0 232 1;
#X connect 262 0 265 1;
#X connect 263 0 234 1;
#X connect 264 0 236 1;
#X connect 265 0 261 0;
#X connect 266 0 268 0;
#X connect 267 0 207 0;
#X connect 267 1 207 1;
#X connect 269 0 20 0;
#X connect 270 0 44 0;
#X connect 271 0 235 1;
#X connect 273 0 274 1;
#X connect 274 0 4 0;
#X connect 275 0 85 0;
