#N canvas 392 220 1048 569 12;
#X obj 24 32 inlet~;
#X text 28 13 mic;
#X obj 37 84 r \$1_record_b;
#X obj 24 106 tabwrite~ \$1;
#X obj 24 181 spigot;
#X obj 24 132 r measure_b;
#X obj 63 157 r \$1_record_t;
#X obj 74 181 r \$1_clear_b;
#X obj 24 254 s \$1_record_b;
#X msg 54 206 const 0;
#X obj 54 230 s \$1;
#X msg 254 61 0;
#X obj 254 35 r measure_b;
#X text 341 35 maintain phase;
#X obj 174 192 *~;
#X obj 173 87 phasor~ \$2;
#X obj 174 111 *~ \$3;
#X obj 174 142 tabread~ \$1;
#X obj 192 167 r \$1_toggle;
#X obj 174 216 outlet~;
#X obj 447 103 r measure_i;
#X obj 314 287 i;
#X obj 414 287 i;
#X obj 544 287 i;
#X obj 644 287 i;
#X obj 448 143 select 1 2 3 4;
#X obj 314 311 s \$1_toggle;
#X obj 332 261 r \$4_m1_t;
#X obj 432 261 r \$4_m2_t;
#X obj 562 261 r \$4_m3_t;
#X obj 662 261 r \$4_m4_t;
#X connect 0 0 3 0;
#X connect 2 0 3 0;
#X connect 4 0 8 0;
#X connect 4 0 9 0;
#X connect 5 0 4 0;
#X connect 6 0 4 1;
#X connect 7 0 9 0;
#X connect 9 0 10 0;
#X connect 11 0 15 1;
#X connect 12 0 11 0;
#X connect 14 0 19 0;
#X connect 15 0 16 0;
#X connect 16 0 17 0;
#X connect 17 0 14 0;
#X connect 18 0 14 1;
#X connect 20 0 25 0;
#X connect 21 0 26 0;
#X connect 22 0 26 0;
#X connect 23 0 26 0;
#X connect 24 0 26 0;
#X connect 25 0 21 0;
#X connect 25 1 22 0;
#X connect 25 2 23 0;
#X connect 25 3 24 0;
#X connect 27 0 21 1;
#X connect 28 0 22 1;
#X connect 29 0 23 1;
#X connect 30 0 24 1;
