#N canvas 1440 23 1920 1035 12;
#X obj 10 619 +~;
#X obj 10 643 s~ mic_m;
#X obj 305 1383 dac~;
#X obj 329 1165 r~ mic_m;
#X obj 413 967 line;
#X obj 115 615 tgl 15 0 empty main_t empty 17 7 0 10 -262144 -1 -1
0 1;
#X obj 338 934 i;
#X obj 338 958 + 1;
#X floatatom 278 958 5 0 0 0 - - -;
#X obj 265 1122 vline~;
#X obj 247 1172 *~;
#X obj 308 1343 +~;
#X obj 48 1070 vline~;
#X obj 30 1149 *~;
#X obj 247 1196 +~;
#X obj 30 1125 osc~ 220;
#X obj 247 1220 *~;
#X obj 11 669 metro 4000;
#X msg 413 941 0 \, 1 4000;
#X obj 655 995 sigtrap~ 500;
#X obj 655 1019 sigtrap~ 200;
#X obj 655 1044 sigtrap~ 100;
#X obj 863 792 sigtrap~ 100;
#N canvas 0 23 1285 736 verb~ 0;
#X obj 106 170 +~;
#X obj 226 170 +~;
#X obj 346 170 +~;
#X obj 466 170 +~;
#X obj 346 146 ffc~ 30 0.5 0.5;
#X obj 226 146 ffc~ 40 0.5 0.5;
#X obj 106 146 ffc~ 20 0.5 0.5;
#X obj 466 146 ffc~ 25 0.5 0.5;
#X obj 106 194 sap~ 25 0.25 -0.25;
#X obj 106 218 sap~ 30 0.25 -0.25;
#X obj 142 55 inlet~;
#X obj 106 242 outlet~;
#X connect 0 0 8 0;
#X connect 1 0 0 1;
#X connect 2 0 1 1;
#X connect 3 0 2 1;
#X connect 4 0 2 0;
#X connect 5 0 1 0;
#X connect 6 0 0 0;
#X connect 7 0 3 0;
#X connect 8 0 9 0;
#X connect 9 0 11 0;
#X connect 10 0 6 0;
#X connect 10 0 5 0;
#X connect 10 0 4 0;
#X connect 10 0 7 0;
#X restore 863 817 pd verb~;
#X obj 863 841 +~;
#X obj 963 792 sigtrap~ 100;
#N canvas 0 23 1285 736 verb~ 0;
#X obj 106 170 +~;
#X obj 226 170 +~;
#X obj 346 170 +~;
#X obj 466 170 +~;
#X obj 346 146 ffc~ 30 0.5 0.5;
#X obj 226 146 ffc~ 40 0.5 0.5;
#X obj 106 146 ffc~ 20 0.5 0.5;
#X obj 466 146 ffc~ 25 0.5 0.5;
#X obj 106 194 sap~ 25 0.25 -0.25;
#X obj 106 218 sap~ 30 0.25 -0.25;
#X obj 142 55 inlet~;
#X obj 106 242 outlet~;
#X connect 0 0 8 0;
#X connect 1 0 0 1;
#X connect 2 0 1 1;
#X connect 3 0 2 1;
#X connect 4 0 2 0;
#X connect 5 0 1 0;
#X connect 6 0 0 0;
#X connect 7 0 3 0;
#X connect 8 0 9 0;
#X connect 9 0 11 0;
#X connect 10 0 6 0;
#X connect 10 0 5 0;
#X connect 10 0 4 0;
#X connect 10 0 7 0;
#X restore 963 817 pd verb~;
#X obj 963 841 +~;
#X obj 1063 792 sigtrap~ 100;
#N canvas 0 23 1285 736 verb~ 0;
#X obj 106 170 +~;
#X obj 226 170 +~;
#X obj 346 170 +~;
#X obj 466 170 +~;
#X obj 346 146 ffc~ 30 0.5 0.5;
#X obj 226 146 ffc~ 40 0.5 0.5;
#X obj 106 146 ffc~ 20 0.5 0.5;
#X obj 466 146 ffc~ 25 0.5 0.5;
#X obj 106 194 sap~ 25 0.25 -0.25;
#X obj 106 218 sap~ 30 0.25 -0.25;
#X obj 142 55 inlet~;
#X obj 106 242 outlet~;
#X connect 0 0 8 0;
#X connect 1 0 0 1;
#X connect 2 0 1 1;
#X connect 3 0 2 1;
#X connect 4 0 2 0;
#X connect 5 0 1 0;
#X connect 6 0 0 0;
#X connect 7 0 3 0;
#X connect 8 0 9 0;
#X connect 9 0 11 0;
#X connect 10 0 6 0;
#X connect 10 0 5 0;
#X connect 10 0 4 0;
#X connect 10 0 7 0;
#X restore 1063 817 pd verb~;
#X obj 1063 841 +~;
#X obj 1163 792 sigtrap~ 100;
#N canvas 0 23 1285 736 verb~ 0;
#X obj 106 170 +~;
#X obj 226 170 +~;
#X obj 346 170 +~;
#X obj 466 170 +~;
#X obj 346 146 ffc~ 30 0.5 0.5;
#X obj 226 146 ffc~ 40 0.5 0.5;
#X obj 106 146 ffc~ 20 0.5 0.5;
#X obj 466 146 ffc~ 25 0.5 0.5;
#X obj 106 194 sap~ 25 0.25 -0.25;
#X obj 106 218 sap~ 30 0.25 -0.25;
#X obj 142 55 inlet~;
#X obj 106 242 outlet~;
#X connect 0 0 8 0;
#X connect 1 0 0 1;
#X connect 2 0 1 1;
#X connect 3 0 2 1;
#X connect 4 0 2 0;
#X connect 5 0 1 0;
#X connect 6 0 0 0;
#X connect 7 0 3 0;
#X connect 8 0 9 0;
#X connect 9 0 11 0;
#X connect 10 0 6 0;
#X connect 10 0 5 0;
#X connect 10 0 4 0;
#X connect 10 0 7 0;
#X restore 1163 817 pd verb~;
#X obj 1163 841 +~;
#X obj 863 865 *~ 0.01;
#X obj 982 23 vsl 12 128 0 4 0 0 mic_a empty empty 0 -9 0 10 -262144
-1 -1 4200 1;
#X obj 329 1213 *~;
#X obj 329 1237 +~;
#X obj 998 31 vu 15 120 mic_vu empty -1 -8 0 10 -66577 -1 0 0;
#X obj 329 1261 env~;
#X obj 329 1285 - 100;
#X obj 1032 23 vsl 12 128 0 1 0 0 tab_a empty empty 0 -9 0 10 -262144
-1 -1 5100 1;
#X obj 409 1213 *~;
#X obj 409 1237 +~;
#X obj 1048 31 vu 15 120 tab_vu empty -1 -8 0 10 -66577 -1 0 0;
#X obj 409 1261 env~;
#X obj 409 1285 - 100;
#X obj 1082 23 vsl 12 128 0 1 0 0 sig_chirp_a empty empty 0 -9 0 10
-262144 -1 -1 2500 1;
#X obj 489 1213 *~;
#X obj 489 1237 +~;
#X obj 1098 31 vu 15 120 sig_chirp_vu empty -1 -8 0 10 -66577 -1 0
0;
#X obj 489 1261 env~;
#X obj 489 1285 - 100;
#X obj 1132 23 vsl 12 128 0 0.25 0 0 sig_chain_a empty empty 0 -9 0
10 -262144 -1 -1 2200 1;
#X obj 609 1213 *~;
#X obj 609 1237 +~;
#X obj 1148 31 vu 15 120 sig_chain_vu empty -1 -8 0 10 -66577 -1 0
0;
#X obj 609 1261 env~;
#X obj 609 1285 - 100;
#X msg 1044 1327 start;
#X msg 1045 1358 stop;
#X obj 62 1182 tgl 15 0 empty click_t empty 17 7 0 10 -262144 -1 -1
0 1;
#X obj 247 1148 osc~ 800;
#X obj 10 511 r~ mic_m;
#X obj 347 1187 r mic_a;
#X obj 329 1309 s mic_vu;
#X obj 409 1309 s tab_vu;
#X obj 427 1188 r tab_a;
#X obj 655 1068 s~ sig_chirp_m;
#X obj 489 1167 r~ sig_chirp_m;
#X obj 507 1190 r sig_chirp_a;
#X obj 489 1309 s sig_chirp_vu;
#X obj 863 889 s~ sig_chain_m;
#X obj 609 1166 r~ sig_chain_m;
#X obj 627 1189 r sig_chain_a;
#X obj 609 1309 s sig_chain_vu;
#X obj 409 1163 r~ tab_m;
#X obj 278 1041 s beat;
#X obj 413 991 s time_monitor;
#X obj 11 693 s measure_b;
#X obj 412 916 r measure_b;
#X obj 48 1023 r measure_b;
#X msg 48 1046 0 \, 1 10 \, 0 10 100;
#X msg 265 1096 0 \, 1 3 \, 0 3 3;
#X obj 111 674 spigot;
#X obj 111 698 s reset_b;
#X obj 643 295 i;
#X obj 643 319 + 1;
#X msg 644 268 0;
#X floatatom 556 320 5 0 0 0 - - -;
#X obj 644 245 r reset_b;
#X obj 339 884 r reset_b;
#X obj 643 343 mod 4;
#X obj 680 268 r measure_b;
#X obj 556 343 s measure_i;
#X obj 111 648 t b a;
#X obj 23 20 tgl 15 0 main_t empty empty 17 7 0 10 -262144 -1 -1 0
1;
#X obj 23 50 tgl 15 0 click_t empty empty 17 7 0 10 -262144 -1 -1 0
1;
#X text 48 49 click on/off;
#X text 48 19 main timing on/off;
#X obj 5 78 cnv 15 500 400 empty empty Samples 20 12 0 14 -261234 -66577
0;
#N canvas 0 22 450 278 (subpatch) 0;
#X array sample1 89600 float 2;
#X coords 0 1 89600 -1 200 40 1 0 0;
#X restore 40 361 graph;
#X obj 21 355 bng 15 250 50 0 empty empty empty 17 7 0 10 -262144 -1
-1;
#X obj 43 415 hsl 395 16 0 1 0 0 empty time_monitor empty -2 -8 0 10
-262144 -1 -1 26989 1;
#N canvas 0 22 450 278 (subpatch) 0;
#X array sample2 89600 float 2;
#X coords 0 1 89600 -1 200 40 1 0 0;
#X restore 40 301 graph;
#X obj 21 372 tgl 15 0 sample1_record_t sample1_record_b empty 17 7
0 10 -262144 -258113 -1 0 1;
#X obj 20 295 bng 15 250 50 0 empty empty empty 17 7 0 10 -262144 -1
-1;
#X obj 20 312 tgl 15 0 sample2_record_t sample2_record_b empty 17 7
0 10 -262144 -258113 -1 0 1;
#X obj 40 434 hradio 50 1 0 8 empty beat empty 0 -8 0 10 -262144 -1
-1 1;
#N canvas 0 23 450 278 (subpatch) 0;
#X array sample3 179200 float 2;
#X coords 0 1 179200 -1 400 40 1 0 0;
#X restore 40 241 graph;
#X obj 21 235 bng 15 250 50 0 empty empty empty 17 7 0 10 -262144 -1
-1;
#X obj 21 252 tgl 15 0 sample3_record_t sample3_record_b empty 17 7
0 10 -262144 -258113 -1 0 1;
#N canvas 0 22 450 278 (subpatch) 0;
#X array sample4 179200 float 2;
#X coords 0 1 179200 -1 400 40 1 0 0;
#X restore 40 181 graph;
#X obj 21 175 bng 15 250 50 0 empty empty empty 17 7 0 10 -262144 -1
-1;
#X obj 21 192 tgl 15 0 sample4_record_t sample4_record_b empty 17 7
0 10 -262144 -258113 -1 0 1;
#X obj 21 390 bng 15 250 50 0 sample1_clear_b empty empty 17 7 0 10
-262144 -1 -1;
#X obj 20 330 bng 15 250 50 0 sample2_clear_b empty empty 17 7 0 10
-262144 -1 -1;
#X obj 21 270 bng 15 250 50 0 sample3_clear_b empty empty 17 7 0 10
-262144 -1 -1;
#X obj 21 210 bng 15 250 50 0 sample4_clear_b empty empty 17 7 0 10
-262144 -1 -1;
#N canvas 0 22 450 278 (subpatch) 0;
#X array sample5 179200 float 2;
#X coords 0 1 179200 -1 400 40 1 0 0;
#X restore 40 121 graph;
#X obj 21 115 bng 15 250 50 0 empty empty empty 17 7 0 10 -262144 -1
-1;
#X obj 21 132 tgl 15 0 sample5_record_t sample5_record_b empty 17 7
0 10 -262144 -258113 -1 0 1;
#X obj 21 150 bng 15 250 50 0 sample5_clear_b empty empty 17 7 0 10
-262144 -1 -1;
#X obj 553 17 cnv 15 300 200 empty empty Sequencing 20 12 0 14 -233017
-66577 0;
#X obj 603 85 tgl 15 1 s5_m1_t reset_seq_t empty 17 7 0 10 -262144
-1 -1 0 1;
#X obj 603 105 tgl 15 0 s4_m1_t reset_seq_t empty 17 7 0 10 -262144
-1 -1 0 1;
#X obj 603 125 tgl 15 0 s3_m1_t reset_seq_t empty 17 7 0 10 -262144
-1 -1 0 1;
#X obj 603 145 tgl 15 0 s2_m1_t reset_seq_t empty 17 7 0 10 -262144
-1 -1 0 1;
#X obj 603 165 tgl 15 0 s1_m1_t reset_seq_t empty 17 7 0 10 -262144
-1 -1 0 1;
#X obj 623 85 tgl 15 0 s5_m2_t reset_seq_t empty 17 7 0 10 -262144
-1 -1 0 1;
#X obj 623 105 tgl 15 0 s4_m2_t reset_seq_t empty 17 7 0 10 -262144
-1 -1 0 1;
#X obj 623 125 tgl 15 0 s3_m2_t reset_seq_t empty 17 7 0 10 -262144
-1 -1 0 1;
#X obj 623 145 tgl 15 0 s2_m2_t reset_seq_t empty 17 7 0 10 -262144
-1 -1 0 1;
#X obj 623 165 tgl 15 0 s1_m2_t reset_seq_t empty 17 7 0 10 -262144
-1 -1 0 1;
#X obj 643 85 tgl 15 0 s5_m3_t reset_seq_t empty 17 7 0 10 -262144
-1 -1 0 1;
#X obj 643 105 tgl 15 0 s4_m3_t reset_seq_t empty 17 7 0 10 -262144
-1 -1 0 1;
#X obj 643 125 tgl 15 0 s3_m3_t reset_seq_t empty 17 7 0 10 -262144
-1 -1 0 1;
#X obj 643 145 tgl 15 0 s2_m3_t reset_seq_t empty 17 7 0 10 -262144
-1 -1 0 1;
#X obj 643 165 tgl 15 0 s1_m3_t reset_seq_t empty 17 7 0 10 -262144
-1 -1 0 1;
#X obj 663 85 tgl 15 0 s5_m4_t reset_seq_t empty 17 7 0 10 -262144
-1 -1 0 1;
#X obj 663 105 tgl 15 0 s4_m4_t reset_seq_t empty 17 7 0 10 -262144
-1 -1 0 1;
#X obj 663 125 tgl 15 0 s3_m4_t reset_seq_t empty 17 7 0 10 -262144
-1 -1 0 1;
#X obj 663 145 tgl 15 0 s2_m4_t reset_seq_t empty 17 7 0 10 -262144
-1 -1 0 1;
#X obj 663 165 tgl 15 0 s1_m4_t reset_seq_t empty 17 7 0 10 -262144
-1 -1 0 1;
#X obj 606 65 hsl 70 15 1 4 0 0 empty measure_i empty -2 -8 0 10 -262144
-1 -1 0 1;
#X msg 701 42 0;
#X obj 701 66 s reset_seq_t;
#X obj 1182 23 vsl 12 128 0 0.25 0 0 delay_a empty empty 0 -9 0 10
-262144 -1 -1 4000 1;
#X obj 1198 31 vu 15 120 delay_vu empty -1 -8 0 10 -66577 -1 0 0;
#X obj 729 1213 *~;
#X obj 729 1237 +~;
#X obj 729 1261 env~;
#X obj 729 1285 - 100;
#X obj 729 1166 r~ delay_m;
#X obj 747 1189 r delay_a;
#X obj 729 1309 s delay_vu;
#X obj 864 1154 s~ delay_m;
#X obj 868 971 r~ sig_chain_m;
#X obj 1024 1090 delread~ del_mic 1000;
#X obj 1184 1090 delread~ del_mic 500;
#X obj 868 1050 delwrite~ del_mic 2000;
#X obj 864 1090 delread~ del_mic 2000;
#X obj 1024 1114 +~;
#X obj 1184 1114 +~;
#X obj 864 1114 +~;
#X obj 868 995 +~;
#X obj 1024 994 *~ 0.25;
#X obj 1024 1018 +~;
#X obj 1024 970 delread~ del_mic 20;
#X obj 758 995 +~;
#X obj 10 569 +~;
#X obj 240 569 +~;
#X obj 470 569 +~;
#X obj 710 569 +~;
#X obj 950 569 +~;
#X obj 950 593 s~ tab_m;
#X obj 863 765 r~ mic_m;
#X obj 758 971 r~ mic_m;
#X obj 603 1378 writesf~ 6;
#X obj 655 972 r~ tab_m;
#X obj 1232 23 vsl 12 128 0 0.25 0 0 fx1_a empty empty 0 -9 0 10 -262144
-1 -1 0 1;
#X obj 1248 31 vu 15 120 fx1_vu empty -1 -8 0 10 -66577 -1 0 0;
#X obj 833 1217 +~;
#X obj 546 819 s~ fx1_m;
#X obj 546 795 rewav_test 2 0.5;
#X obj 833 1193 channel-strip fx1;
#X msg 751 42 1;
#X obj 338 982 mod 8;
#X obj 264 907 metro 500;
#X msg 339 907 0;
#X obj 278 981 - 1;
#X obj 278 1005 mod 8;
#X obj 710 540 sample-v2 sample4 0.25 176400 s4;
#X obj 950 540 sample-v2 sample5 0.25 176400 s5;
#X obj 470 540 sample-v2 sample3 0.25 176400 s3;
#X obj 240 540 sample-v2 sample2 0.5 88200 s2;
#X obj 10 540 sample-v2 sample1 0.5 88200 s1;
#X obj 655 769 r measure_b;
#X obj 546 745 +~;
#X obj 633 720 r~ sig_chain_m;
#X obj 546 721 r~ tab_m;
#X msg 1044 1295 open portland-2021-08-09-01.wav;
#X obj 10 596 adc~ 2;
#X connect 0 0 1 0;
#X connect 3 0 36 0;
#X connect 3 0 178 1;
#X connect 4 0 78 0;
#X connect 5 0 17 0;
#X connect 5 0 95 0;
#X connect 5 0 188 0;
#X connect 6 0 7 0;
#X connect 6 0 8 0;
#X connect 7 0 187 0;
#X connect 8 0 190 0;
#X connect 9 0 10 1;
#X connect 10 0 14 0;
#X connect 11 0 2 0;
#X connect 11 0 2 1;
#X connect 11 0 178 0;
#X connect 12 0 13 1;
#X connect 13 0 14 1;
#X connect 14 0 16 0;
#X connect 15 0 13 0;
#X connect 16 0 2 0;
#X connect 17 0 79 0;
#X connect 18 0 4 0;
#X connect 19 0 20 0;
#X connect 20 0 21 0;
#X connect 21 0 68 0;
#X connect 22 0 23 0;
#X connect 23 0 24 0;
#X connect 23 0 25 0;
#X connect 24 0 34 0;
#X connect 25 0 26 0;
#X connect 26 0 27 0;
#X connect 26 0 28 0;
#X connect 27 0 24 1;
#X connect 28 0 29 0;
#X connect 29 0 30 0;
#X connect 29 0 31 0;
#X connect 30 0 27 1;
#X connect 31 0 32 0;
#X connect 32 0 33 0;
#X connect 33 0 30 1;
#X connect 34 0 72 0;
#X connect 36 0 37 0;
#X connect 36 0 39 0;
#X connect 37 0 11 0;
#X connect 37 0 11 1;
#X connect 39 0 40 0;
#X connect 40 0 65 0;
#X connect 42 0 43 0;
#X connect 42 0 45 0;
#X connect 43 0 37 1;
#X connect 45 0 46 0;
#X connect 46 0 66 0;
#X connect 48 0 49 0;
#X connect 48 0 51 0;
#X connect 49 0 43 1;
#X connect 51 0 52 0;
#X connect 52 0 71 0;
#X connect 54 0 55 0;
#X connect 54 0 57 0;
#X connect 55 0 49 1;
#X connect 57 0 58 0;
#X connect 58 0 75 0;
#X connect 59 0 178 0;
#X connect 60 0 178 0;
#X connect 61 0 16 1;
#X connect 62 0 10 0;
#X connect 63 0 192 0;
#X connect 63 0 193 0;
#X connect 63 0 194 0;
#X connect 63 0 195 0;
#X connect 63 0 196 0;
#X connect 64 0 36 1;
#X connect 67 0 42 1;
#X connect 69 0 48 0;
#X connect 69 0 178 3;
#X connect 70 0 48 1;
#X connect 73 0 54 0;
#X connect 73 0 178 4;
#X connect 74 0 54 1;
#X connect 76 0 42 0;
#X connect 76 0 178 2;
#X connect 80 0 18 0;
#X connect 81 0 82 0;
#X connect 82 0 12 0;
#X connect 83 0 9 0;
#X connect 84 0 85 0;
#X connect 86 0 87 0;
#X connect 87 0 92 0;
#X connect 87 0 89 0;
#X connect 88 0 86 0;
#X connect 89 0 94 0;
#X connect 90 0 88 0;
#X connect 91 0 189 0;
#X connect 92 0 86 1;
#X connect 93 0 86 0;
#X connect 95 0 84 0;
#X connect 95 1 84 1;
#X connect 102 0 105 0;
#X connect 106 0 107 0;
#X connect 110 0 111 0;
#X connect 113 0 114 0;
#X connect 120 0 121 0;
#X connect 145 0 146 0;
#X connect 149 0 150 0;
#X connect 149 0 151 0;
#X connect 150 0 55 1;
#X connect 151 0 152 0;
#X connect 152 0 155 0;
#X connect 153 0 149 0;
#X connect 153 0 178 5;
#X connect 154 0 149 1;
#X connect 157 0 165 0;
#X connect 158 0 162 0;
#X connect 159 0 163 0;
#X connect 161 0 164 0;
#X connect 162 0 164 1;
#X connect 163 0 162 1;
#X connect 164 0 156 0;
#X connect 165 0 169 1;
#X connect 166 0 167 0;
#X connect 167 0 165 1;
#X connect 168 0 166 0;
#X connect 169 0 160 0;
#X connect 170 0 171 1;
#X connect 171 0 172 1;
#X connect 172 0 173 1;
#X connect 173 0 174 1;
#X connect 174 0 175 0;
#X connect 176 0 22 0;
#X connect 177 0 169 0;
#X connect 179 0 19 0;
#X connect 182 0 150 1;
#X connect 184 0 183 0;
#X connect 185 0 182 0;
#X connect 186 0 146 0;
#X connect 187 0 6 1;
#X connect 188 0 6 0;
#X connect 188 0 83 0;
#X connect 189 0 6 0;
#X connect 190 0 191 0;
#X connect 191 0 77 0;
#X connect 192 0 173 0;
#X connect 193 0 174 0;
#X connect 194 0 172 0;
#X connect 195 0 171 0;
#X connect 196 0 170 0;
#X connect 197 0 184 1;
#X connect 198 0 184 0;
#X connect 199 0 198 1;
#X connect 200 0 198 0;
#X connect 201 0 178 0;
#X connect 202 0 0 0;
#X connect 202 0 0 1;
