#N canvas 1934 157 450 300 12;
#X obj 163 21 inlet~;
#X obj 163 69 *~ -1;
#X obj 84 103 delwrite~ \$0-del \$1;
#X obj 163 45 *~ \$2;
#X obj 24 21 delread~ \$0-del \$1;
#X obj 84 75 *~ \$2;
#X obj 24 103 outlet~;
#X obj 24 45 +~;
#X connect 0 0 3 0;
#X connect 0 0 7 0;
#X connect 1 0 7 1;
#X connect 3 0 1 0;
#X connect 4 0 7 0;
#X connect 5 0 2 0;
#X connect 7 0 5 0;
#X connect 7 0 6 0;
