#N canvas 484 171 450 300 12;
#X obj 31 138 inlet~;
#X obj 89 138 +~;
#X obj 143 123 delwrite~ \$0-del 300;
#X obj 151 145 delread~ \$0-del \$1;
#X obj 308 134 +~;
#X obj 349 139 outlet~;
#X obj 154 33 inlet;
#X obj 207 32 inlet~;
#X obj 187 180 *~ \$2;
#X obj 266 33 inlet~;
#X obj 200 84 *~ \$3;
#X connect 0 0 1 0;
#X connect 1 0 2 0;
#X connect 1 0 10 0;
#X connect 3 0 4 1;
#X connect 3 0 8 0;
#X connect 4 0 5 0;
#X connect 6 0 3 0;
#X connect 7 0 8 1;
#X connect 8 0 1 1;
#X connect 9 0 10 1;
#X connect 10 0 4 0;
