#N canvas 0 23 1440 855 12;
#X obj 519 351 basic-seq;
#X msg 555 215 120;
#X obj 414 167 bng 15 250 50 0 empty empty empty 17 7 0 10 -262144
-1 -1;
#X obj 562 791 dac~;
#X msg 347 166 stop;
#X floatatom 935 255 5 0 0 0 - - -;
#X obj 984 309 +;
#X floatatom 1002 255 5 0 0 0 - - -;
#X obj 984 281 bng 15 250 50 0 empty empty empty 17 7 0 10 -262144
-1 -1;
#X obj 1026 309 +;
#X floatatom 1044 255 5 0 0 0 - - -;
#X obj 1026 281 bng 15 250 50 0 empty empty empty 17 7 0 10 -262144
-1 -1;
#X obj 1002 228 + 2;
#X obj 1070 228 + 5;
#X obj 1070 204 random 3;
#X obj 1002 204 random 3;
#X obj 926 204 random 28;
#X obj 1093 309 +;
#X floatatom 1111 255 5 0 0 0 - - -;
#X obj 1093 281 bng 15 250 50 0 empty empty empty 17 7 0 10 -262144
-1 -1;
#X obj 1137 204 random 3;
#X obj 1138 228 + 8;
#X obj 888 308 - 12;
#X obj 948 409 bng 15 250 50 0 empty empty empty 17 7 0 10 -262144
-1 -1;
#X obj 924 132 bng 15 250 50 0 empty empty empty 17 7 0 10 -262144
-1 -1;
#X obj 824 407 bng 15 250 50 0 empty empty empty 17 7 0 10 -262144
-1 -1;
#X obj 926 227 + 62;
#X obj 837 460 basic-voice 400;
#X obj 987 460 basic-voice 200;
#X obj 1017 490 basic-voice 200;
#X obj 1047 520 basic-voice 200;
#X obj 1077 550 basic-voice 200;
#X connect 1 0 0 1;
#X connect 2 0 1 0;
#X connect 2 0 0 2;
#X connect 2 0 0 0;
#X connect 4 0 0 0;
#X connect 5 0 6 0;
#X connect 5 0 9 0;
#X connect 5 0 17 0;
#X connect 5 0 22 0;
#X connect 5 0 28 1;
#X connect 6 0 29 1;
#X connect 7 0 6 1;
#X connect 7 0 8 0;
#X connect 8 0 6 0;
#X connect 9 0 30 1;
#X connect 10 0 9 1;
#X connect 10 0 11 0;
#X connect 11 0 9 0;
#X connect 12 0 7 0;
#X connect 13 0 10 0;
#X connect 14 0 13 0;
#X connect 15 0 12 0;
#X connect 16 0 26 0;
#X connect 17 0 31 1;
#X connect 18 0 17 1;
#X connect 18 0 19 0;
#X connect 19 0 17 0;
#X connect 20 0 21 0;
#X connect 21 0 18 0;
#X connect 22 0 27 1;
#X connect 23 0 28 0;
#X connect 23 0 29 0;
#X connect 23 0 30 0;
#X connect 23 0 31 0;
#X connect 24 0 16 0;
#X connect 24 0 15 0;
#X connect 24 0 14 0;
#X connect 24 0 20 0;
#X connect 25 0 27 0;
#X connect 26 0 5 0;
#X connect 27 0 3 0;
#X connect 27 0 3 1;
#X connect 28 0 3 0;
#X connect 28 0 3 1;
#X connect 29 0 3 0;
#X connect 29 0 3 1;
#X connect 30 0 3 0;
#X connect 30 0 3 1;
#X connect 31 0 3 0;
#X connect 31 0 3 1;
