#N canvas 0 23 887 524 12;
#X obj 44 11 inlet~;
#X obj 246 158 unpack 0 0;
#X obj 246 276 *~;
#X obj 179 301 outlet~;
#X obj 246 85 +~;
#X obj 44 79 route 0;
#X obj 44 103 unpack 0 0;
#X floatatom 344 265 5 0 0 0 - - -;
#X obj 44 55 sigmund~ peaks -npeak 1;
#X obj 177 269 *~;
#X obj 53 145 + 0.25;
#X obj 184 138 + 0.01;
#X obj 111 11 delread~ \$0-buff \$1;
#X obj 246 300 delwrite~ \$0-buff \$1;
#X obj 246 110 sigmund~ peaks -npeak 1;
#X obj 246 134 route 0;
#X obj 246 182 osc~ 20;
#X connect 0 0 8 0;
#X connect 0 0 4 0;
#X connect 1 0 7 0;
#X connect 1 0 16 0;
#X connect 2 0 13 0;
#X connect 4 0 14 0;
#X connect 5 0 6 0;
#X connect 6 1 10 0;
#X connect 6 1 11 0;
#X connect 8 0 5 0;
#X connect 9 0 3 0;
#X connect 10 0 9 1;
#X connect 10 0 2 1;
#X connect 11 0 2 1;
#X connect 12 0 4 1;
#X connect 14 0 15 0;
#X connect 15 0 1 0;
#X connect 16 0 9 0;
#X connect 16 0 2 0;
