#N canvas 0 23 450 300 12;
#X obj 50 25 inlet~;
#X obj 50 79 sigmund~ peaks -npeak 1;
#X obj 50 103 route 0;
#X obj 50 127 unpack 0 0;
#X obj 50 151 osc~;
#X obj 50 175 *~;
#X obj 50 49 +~;
#X obj 258 27 inlet~ amp;
#X obj 20 270 outlet~;
#X obj 50 223 +~;
#X obj 16 199 *~;
#X obj 50 199 *~;
#X obj 228 91 +~ 1;
#X obj 228 115 /~ 2;
#X obj 278 91 -~ 1;
#X obj 278 115 /~ 2;
#X obj 228 139 *~;
#X obj 278 139 *~;
#X obj 80 270 delwrite~ \$0-del \$1;
#X obj 103 26 delread~ \$0-del \$1;
#X connect 0 0 6 0;
#X connect 0 0 10 0;
#X connect 1 0 2 0;
#X connect 2 0 3 0;
#X connect 3 0 4 0;
#X connect 3 1 5 1;
#X connect 4 0 5 0;
#X connect 5 0 11 0;
#X connect 6 0 1 0;
#X connect 7 0 12 0;
#X connect 7 0 14 0;
#X connect 9 0 8 0;
#X connect 9 0 18 0;
#X connect 10 0 9 1;
#X connect 11 0 9 0;
#X connect 12 0 13 0;
#X connect 13 0 16 0;
#X connect 13 0 16 1;
#X connect 14 0 15 0;
#X connect 15 0 17 0;
#X connect 15 0 17 1;
#X connect 16 0 10 1;
#X connect 17 0 11 1;
#X connect 19 0 6 1;
