#N canvas 0 23 1440 855 12;
#X obj 411 277 mtof;
#X obj 410 341 osc~;
#X obj 451 341 osc~;
#X obj 411 365 +~;
#X obj 411 389 /~ 2;
#X obj 361 341 osc~;
#X obj 361 365 /~;
#X obj 394 695 dac~;
#X obj 411 413 +~ 2;
#X obj 62 565 oscope~ 20;
#X obj 451 317 / 2;
#X obj 551 277 mtof;
#X obj 550 341 osc~;
#X obj 591 341 osc~;
#X obj 551 365 +~;
#X obj 551 389 /~ 2;
#X obj 501 341 osc~;
#X obj 501 365 /~;
#X obj 551 413 +~ 2;
#X obj 591 317 / 2;
#X obj 405 460 +~;
#X obj 691 277 mtof;
#X obj 690 341 osc~;
#X obj 731 341 osc~;
#X obj 691 365 +~;
#X obj 691 389 /~ 2;
#X obj 641 341 osc~;
#X obj 641 365 /~;
#X obj 691 413 +~ 2;
#X obj 731 317 / 2;
#X obj 227 99 i;
#X obj 227 123 + 1;
#X obj 227 147 mod 64;
#X floatatom 287 123 5 0 0 0 - - -;
#X obj 202 25 bng 15 250 50 0 empty empty empty 17 7 0 10 -262144 -1
-1;
#X obj 691 316 * 3;
#X obj 551 316 * 3;
#X obj 411 316 * 3;
#X obj 404 508 *~;
#X obj 452 486 vline~;
#X obj 287 146 mod 8;
#X obj 559 157 unpack i i i;
#X obj 559 181 t b;
#X msg 467 119 50 64 50;
#X msg 641 119 50 62 57;
#X obj 227 75 metro 750;
#X msg 450 459 1 100 \, 0.5 500 100 \, 0.1 1200 800;
#X obj 554 13 sel 0 4;
#X obj 166 346 mtof;
#X obj 106 424 *~;
#X obj 106 448 cos~;
#X obj 404 562 +~;
#X obj 404 484 /~ 3;
#X obj 404 532 *~;
#X obj 502 540 vsl 15 128 0.01 1 1 0 empty empty empty 0 -9 0 10 -262144
-1 -1 9500 1;
#X obj 315 519 *~;
#X obj 299 332 vsl 15 128 0.01 1 1 0 empty empty empty 0 -9 0 10 -262144
-1 -1 0 1;
#X obj 106 376 * 4;
#X obj 106 400 phasor~;
#X obj 166 400 osc~;
#X obj 625 574 *~ 2;
#X obj 625 526 delwrite~ del-chord 100;
#X obj 625 550 delread~ del-chord 100;
#X connect 0 0 5 0;
#X connect 0 0 10 0;
#X connect 0 0 37 0;
#X connect 1 0 3 0;
#X connect 2 0 3 1;
#X connect 3 0 4 0;
#X connect 4 0 8 0;
#X connect 5 0 6 0;
#X connect 6 0 20 0;
#X connect 8 0 6 1;
#X connect 10 0 2 0;
#X connect 11 0 16 0;
#X connect 11 0 19 0;
#X connect 11 0 36 0;
#X connect 12 0 14 0;
#X connect 13 0 14 1;
#X connect 14 0 15 0;
#X connect 15 0 18 0;
#X connect 16 0 17 0;
#X connect 17 0 20 1;
#X connect 18 0 17 1;
#X connect 19 0 13 0;
#X connect 20 0 52 0;
#X connect 21 0 26 0;
#X connect 21 0 29 0;
#X connect 21 0 35 0;
#X connect 22 0 24 0;
#X connect 23 0 24 1;
#X connect 24 0 25 0;
#X connect 25 0 28 0;
#X connect 26 0 27 0;
#X connect 27 0 20 1;
#X connect 28 0 27 1;
#X connect 29 0 23 0;
#X connect 30 0 31 0;
#X connect 30 0 33 0;
#X connect 31 0 32 0;
#X connect 32 0 30 1;
#X connect 33 0 40 0;
#X connect 34 0 45 0;
#X connect 35 0 22 0;
#X connect 36 0 12 0;
#X connect 37 0 1 0;
#X connect 38 0 53 0;
#X connect 38 0 61 0;
#X connect 39 0 38 1;
#X connect 40 0 47 0;
#X connect 41 0 42 0;
#X connect 41 0 0 0;
#X connect 41 1 11 0;
#X connect 41 2 21 0;
#X connect 41 2 48 0;
#X connect 42 0 46 0;
#X connect 43 0 41 0;
#X connect 44 0 41 0;
#X connect 45 0 30 0;
#X connect 46 0 39 0;
#X connect 47 0 43 0;
#X connect 47 1 44 0;
#X connect 48 0 57 0;
#X connect 48 0 59 0;
#X connect 49 0 50 0;
#X connect 50 0 9 0;
#X connect 50 0 55 0;
#X connect 51 0 7 1;
#X connect 51 0 7 0;
#X connect 52 0 38 0;
#X connect 53 0 51 0;
#X connect 54 0 53 1;
#X connect 55 0 51 1;
#X connect 56 0 55 1;
#X connect 57 0 58 0;
#X connect 58 0 49 0;
#X connect 59 0 49 1;
#X connect 60 0 53 0;
#X connect 62 0 60 0;
