#N canvas 0 23 744 381 12;
#X obj 138 135 adc~;
#X obj 137 159 +~;
#X obj 217 -13 vsl 15 128 -1 1 0 0 empty empty empty 0 -9 0 10 -262144
-1 -1 0 1;
#X obj 218 146 sig~;
#X obj 137 207 +~;
#X obj 263 207 +~;
#X obj 389 207 +~;
#X obj 277 -13 vsl 15 128 -1 1 0 0 empty empty empty 0 -9 0 10 -262144
-1 -1 6800 1;
#X obj 278 146 sig~;
#X obj 137 275 dac~;
#X msg 336 279 start;
#X msg 343 311 stop;
#X obj 389 183 sigverb~ 500;
#X obj 499 207 +~;
#X obj 609 207 +~;
#X obj 499 183 sigverb~ 200;
#X obj 609 183 sigverb~ 700;
#X obj 263 183 sigverb~ 500;
#X obj 137 183 sigverb~ 100;
#X obj 137 231 sigverb~ 200;
#X obj 198 285 writesf~ 2;
#X msg 258 253 open test.wav;
#X obj 24 218 test~ 200;
#X obj 43 141 osc~ 16;
#X connect 0 0 1 0;
#X connect 0 1 1 1;
#X connect 1 0 12 0;
#X connect 1 0 17 0;
#X connect 1 0 18 0;
#X connect 1 0 15 0;
#X connect 1 0 16 0;
#X connect 1 0 9 1;
#X connect 1 0 20 1;
#X connect 1 0 22 0;
#X connect 2 0 3 0;
#X connect 3 0 12 1;
#X connect 3 0 17 1;
#X connect 3 0 18 1;
#X connect 3 0 15 1;
#X connect 3 0 16 1;
#X connect 4 0 19 0;
#X connect 5 0 4 1;
#X connect 6 0 5 1;
#X connect 7 0 8 0;
#X connect 8 0 19 1;
#X connect 10 0 20 0;
#X connect 11 0 20 0;
#X connect 12 0 6 0;
#X connect 13 0 6 1;
#X connect 14 0 13 1;
#X connect 15 0 13 0;
#X connect 16 0 14 0;
#X connect 17 0 5 0;
#X connect 18 0 4 0;
#X connect 21 0 20 0;
#X connect 22 0 9 0;
#X connect 22 0 20 0;
#X connect 23 0 22 1;
