#N canvas 721 237 685 462 12;
#X obj 50 25 inlet~;
#X obj 50 127 unpack 0 0;
#X obj 50 191 osc~;
#X obj 50 215 *~;
#X obj 50 49 +~;
#X obj 258 27 inlet~ amp;
#X obj 20 290 outlet~;
#X obj 50 263 +~;
#X obj 16 239 *~;
#X obj 50 239 *~;
#X obj 228 91 +~ 1;
#X obj 228 115 /~ 2;
#X obj 278 91 -~ 1;
#X obj 278 115 /~ 2;
#X obj 228 139 *~;
#X obj 278 139 *~;
#X obj 80 290 delwrite~ \$0-del \$1;
#X obj 103 26 delread~ \$0-del \$1;
#X obj 130 126 unpack 0 0;
#X obj 50 103 route 1 0;
#X obj 50 79 sigmund~ peaks -npeak 2;
#X obj 50 151 * 2;
#X obj 80 191 osc~;
#X obj 80 215 *~;
#X obj 80 263 +~;
#X obj 80 239 *~;
#X obj 80 151 * 2;
#X connect 0 0 4 0;
#X connect 0 0 8 0;
#X connect 1 0 21 0;
#X connect 2 0 3 0;
#X connect 3 0 9 0;
#X connect 4 0 20 0;
#X connect 5 0 10 0;
#X connect 5 0 12 0;
#X connect 7 0 6 0;
#X connect 7 0 16 0;
#X connect 9 0 7 0;
#X connect 10 0 11 0;
#X connect 11 0 14 0;
#X connect 11 0 14 1;
#X connect 12 0 13 0;
#X connect 13 0 15 0;
#X connect 13 0 15 1;
#X connect 14 0 8 1;
#X connect 15 0 9 1;
#X connect 17 0 4 1;
#X connect 18 1 3 1;
#X connect 19 0 1 0;
#X connect 19 1 18 0;
#X connect 20 0 19 0;
#X connect 21 0 2 0;
#X connect 22 0 23 0;
#X connect 23 0 25 0;
#X connect 25 0 24 0;
#X connect 26 0 22 0;
