#N canvas 0 23 1011 539 12;
#X obj 196 97 basic-seq;
#X obj 178 319 osc~ 440;
#X obj 178 343 *~;
#X msg 196 270 1 \, 0 100;
#X obj 196 294 line~;
#X obj 248 343 *~;
#X msg 266 270 1 \, 0 100;
#X obj 266 294 line~;
#X obj 319 343 *~;
#X msg 337 270 1 \, 0 100;
#X obj 337 294 line~;
#X obj 388 343 *~;
#X msg 406 270 1 \, 0 100;
#X obj 406 294 line~;
#X obj 388 319 osc~ 330;
#X obj 319 319 osc~ 220;
#X obj 248 320 osc~ 220;
#X obj 259 431 dac~;
#X connect 0 0 3 0;
#X connect 0 1 6 0;
#X connect 0 2 9 0;
#X connect 0 3 12 0;
#X connect 1 0 2 0;
#X connect 2 0 17 0;
#X connect 3 0 4 0;
#X connect 4 0 2 1;
#X connect 5 0 17 1;
#X connect 6 0 7 0;
#X connect 7 0 5 1;
#X connect 8 0 17 1;
#X connect 9 0 10 0;
#X connect 10 0 8 1;
#X connect 11 0 17 0;
#X connect 11 0 17 1;
#X connect 12 0 13 0;
#X connect 13 0 11 1;
#X connect 14 0 11 0;
#X connect 15 0 8 0;
#X connect 16 0 5 0;
