#N canvas 0 23 1440 855 12;
#X obj 246 51 hsl 128 15 0 1 0 0 empty empty empty -2 -8 0 10 -262144
-1 -1 12200 1;
#X msg 243 81 1 \$1;
#X obj 75 117 *~;
#X obj 177 117 +~;
#X obj 177 295 +~;
#X obj 177 349 *~;
#X obj 177 195 +~;
#X obj 243 105 -;
#X obj 104 344 +~;
#X obj 288 265 sapf~ 5 0.65;
#X obj 276 171 sapf~ 5 0.25;
#X obj 177 171 sapf~ 20 0.35;
#X obj 177 265 sapf~ 10 0.2;
#X obj 367 171 sapf~ 15 0.55;
#X obj 466 171 sapf~ 25 0.03;
#X obj 498 265 sapf~ 15 0.65;
#X obj 387 265 sapf~ 12 0.25;
#X obj 176 219 expr~ tanh($v1);
#X obj 609 117 +~;
#X obj 610 195 +~;
#X obj 709 171 sapf~ 5 0.25;
#X obj 610 171 sapf~ 20 0.35;
#X obj 800 171 sapf~ 15 0.55;
#X obj 899 171 sapf~ 25 0.03;
#X obj 610 219 expr~ tanh($v1);
#X obj 1006 115 +~;
#X obj 1007 193 +~;
#X obj 1106 169 sapf~ 5 0.25;
#X obj 1007 169 sapf~ 20 0.35;
#X obj 1007 217 expr~ tanh($v1);
#X obj 176 243 +~;
#X obj 177 319 expr~ tanh($v1);
#X obj 177 141 *~;
#X obj 609 141 *~;
#X obj 1006 139 *~;
#X obj 80 29 inlet~;
#X obj 76 445 outlet~;
#X obj 246 30 hsl 128 15 0.0001 10 1 0 empty empty empty -2 -8 0 10
-262144 -1 -1 5900 1;
#X connect 0 0 1 0;
#X connect 0 0 2 1;
#X connect 1 0 7 0;
#X connect 2 0 8 0;
#X connect 3 0 32 0;
#X connect 4 0 31 0;
#X connect 5 0 8 1;
#X connect 6 0 17 0;
#X connect 7 0 5 1;
#X connect 8 0 36 0;
#X connect 9 0 4 1;
#X connect 10 0 6 1;
#X connect 11 0 6 0;
#X connect 12 0 4 0;
#X connect 13 0 6 1;
#X connect 14 0 6 1;
#X connect 15 0 4 1;
#X connect 16 0 4 0;
#X connect 17 0 30 0;
#X connect 17 0 18 1;
#X connect 18 0 33 0;
#X connect 19 0 24 0;
#X connect 20 0 19 1;
#X connect 21 0 19 0;
#X connect 22 0 19 1;
#X connect 23 0 19 1;
#X connect 24 0 25 1;
#X connect 24 0 30 1;
#X connect 25 0 34 0;
#X connect 26 0 29 0;
#X connect 27 0 26 1;
#X connect 28 0 26 0;
#X connect 29 0 30 1;
#X connect 30 0 12 0;
#X connect 30 0 9 0;
#X connect 30 0 16 0;
#X connect 30 0 15 0;
#X connect 31 0 5 0;
#X connect 32 0 11 0;
#X connect 32 0 18 0;
#X connect 33 0 25 0;
#X connect 33 0 21 0;
#X connect 34 0 28 0;
#X connect 35 0 2 0;
#X connect 37 0 33 1;
#X connect 37 0 34 1;
#X connect 37 0 32 1;
#X coords 0 -1 1 1 140 48 1 240 24;
