#N canvas 15 115 1440 855 12;
#X obj 439 113 inlet;
#X obj 364 289 noise~;
#X text 221 288 sample start noise;
#X obj 675 250 noise~;
#X text 728 250 sample len noise;
#X obj 364 413 samphold~;
#X obj 675 371 samphold~;
#X obj 675 274 +~ 1;
#X obj 675 298 /~ 2;
#X obj 364 363 *~;
#X obj 675 322 *~ \$3;
#X obj 675 346 +~ \$2;
#X obj 434 447 +~;
#X obj 364 313 +~ 1;
#X obj 364 337 /~ 2;
#X obj 364 387 -~;
#X obj 509 357 *~, f 4;
#X obj 434 471 tabread~ \$1;
#X obj 434 525 outlet~;
#X obj 675 395 delwrite~ \$0del 1;
#X obj 623 176 delread~ \$0del 1;
#X obj 519 263 phasor~ \$2;
#X obj 623 200 expr~ 1/($v1+0.0000001);
#X obj 861 109 bng 15 250 50 0 empty empty empty 17 7 0 10 -262144
-1 -1;
#X obj 953 222 snapshot~;
#X floatatom 953 246 5 0 0 0 - - -;
#X obj 872 221 snapshot~;
#X floatatom 872 245 5 0 0 0 - - -;
#X obj 872 268 *;
#X floatatom 872 292 5 0 0 0 - - -;
#X obj 594 442 cos~;
#X obj 594 466 expr~ 1-$v1;
#X obj 434 495 *~;
#X floatatom 415 212 5 0 0 0 - - -;
#X obj 623 223 *~ 48000;
#X obj 419 187 expr size("\$1");
#X text 639 444 hamming window;
#X obj 623 247 *~ 1;
#X obj 550 180 pack \$4;
#X obj 550 204 t i i;
#X obj 599 288 spigot;
#X obj 579 233 != 0;
#X text 491 113 start / reset phase;
#X connect 0 0 21 1;
#X connect 0 0 35 0;
#X connect 0 0 38 0;
#X connect 1 0 13 0;
#X connect 3 0 7 0;
#X connect 5 0 12 0;
#X connect 6 0 16 1;
#X connect 6 0 19 0;
#X connect 6 0 15 1;
#X connect 6 0 24 0;
#X connect 7 0 8 0;
#X connect 8 0 10 0;
#X connect 9 0 15 0;
#X connect 10 0 11 0;
#X connect 11 0 6 0;
#X connect 12 0 17 0;
#X connect 13 0 14 0;
#X connect 14 0 9 0;
#X connect 15 0 5 0;
#X connect 16 0 12 1;
#X connect 17 0 32 0;
#X connect 20 0 22 0;
#X connect 21 0 5 1;
#X connect 21 0 6 1;
#X connect 21 0 16 0;
#X connect 21 0 30 0;
#X connect 22 0 34 0;
#X connect 22 0 26 0;
#X connect 23 0 24 0;
#X connect 23 0 26 0;
#X connect 24 0 25 0;
#X connect 25 0 28 1;
#X connect 26 0 27 0;
#X connect 27 0 28 0;
#X connect 28 0 29 0;
#X connect 30 0 31 0;
#X connect 31 0 32 1;
#X connect 32 0 18 0;
#X connect 34 0 21 0;
#X connect 34 0 37 0;
#X connect 35 0 9 1;
#X connect 35 0 33 0;
#X connect 38 0 39 0;
#X connect 39 0 40 0;
#X connect 39 1 41 0;
#X connect 40 0 37 1;
#X connect 41 0 40 1;
