#N canvas 0 23 1440 855 12;
#X obj 358 114 adc~;
#X obj 358 138 +~;
#X obj 358 162 s~ mic_m;
#X obj 527 501 dac~;
#X obj 537 297 comb~ 1 0.5;
#X obj 757 297 comb~;
#X obj 537 321 +~;
#X obj 1047 297 comb~;
#X obj 757 321 +~;
#X obj 1047 321 +~;
#X obj 537 346 c-tanh~;
#X obj 261 352 hsl 128 15 0 1 0 0 empty empty empty -2 -8 0 10 -262144
-1 -1 12700 1;
#X obj 537 370 *~;
#X obj 258 372 - 1;
#X obj 441 325 *~;
#X obj 258 396 * -1;
#X obj 537 394 +~;
#X obj 724 188 +~ 0.2;
#X obj 624 188 +~ 0.2;
#X obj 624 164 /~ 4;
#X obj 724 164 /~ 8;
#X obj 914 188 +~ 0.2;
#X obj 814 188 +~ 0.2;
#X obj 814 164 /~ 4;
#X obj 914 164 /~ 8;
#X obj 624 140 osc~ 2;
#X obj 724 140 osc~ 4;
#X obj 814 140 osc~ 8;
#X obj 914 140 osc~ 16;
#X obj 1049 167 r~ mic_m;
#X obj 1047 345 delwrite~ del1 20;
#X obj 757 268 delread~ del1 20;
#X obj 537 268 delread~ del2 20;
#X obj 757 345 delwrite~ del2 20;
#X connect 0 0 1 0;
#X connect 0 1 1 1;
#X connect 1 0 2 0;
#X connect 4 0 6 0;
#X connect 5 0 8 0;
#X connect 6 0 10 0;
#X connect 7 0 9 0;
#X connect 8 0 6 1;
#X connect 8 0 33 0;
#X connect 9 0 8 1;
#X connect 9 0 30 0;
#X connect 10 0 12 0;
#X connect 11 0 12 1;
#X connect 11 0 13 0;
#X connect 12 0 16 0;
#X connect 13 0 15 0;
#X connect 14 0 16 1;
#X connect 15 0 14 1;
#X connect 16 0 3 0;
#X connect 16 0 3 1;
#X connect 17 0 4 2;
#X connect 17 0 5 1;
#X connect 18 0 4 1;
#X connect 19 0 18 0;
#X connect 20 0 17 0;
#X connect 21 0 7 2;
#X connect 22 0 7 1;
#X connect 22 0 5 2;
#X connect 23 0 22 0;
#X connect 24 0 21 0;
#X connect 25 0 19 0;
#X connect 26 0 20 0;
#X connect 27 0 23 0;
#X connect 28 0 24 0;
#X connect 29 0 7 0;
#X connect 31 0 5 0;
#X connect 32 0 4 0;
